<?xml version="1.0" standalone="no"?>
<!DOCTYPE svg PUBLIC "-//W3C//DTD SVG 20010904//EN"
 "http://www.w3.org/TR/2001/REC-SVG-20010904/DTD/svg10.dtd">
<svg version="1.0" xmlns="http://www.w3.org/2000/svg"
 width="600.000000pt" height="600.000000pt" viewBox="0 0 600.000000 600.000000"
 preserveAspectRatio="xMidYMid meet">
<metadata>
Created by potrace 1.11, written by Peter Selinger 2001-2013
</metadata>
<g transform="translate(0.000000,600.000000) scale(0.100000,-0.100000)"
fill="#000000" stroke="none">
<path d="M3179 5576 c-2 -2 -35 -7 -72 -11 -37 -3 -76 -8 -85 -9 -33 -6 -107
-16 -166 -22 -33 -3 -67 -7 -75 -9 -9 -2 -45 -6 -81 -10 -36 -3 -76 -8 -90
-10 -54 -8 -420 -54 -480 -60 -19 -2 -71 -8 -115 -14 -112 -14 -185 -23 -220
-27 -16 -1 -46 -5 -65 -8 -19 -3 -57 -8 -85 -11 -27 -3 -63 -8 -80 -10 -16 -2
-50 -6 -75 -9 -57 -7 -118 -14 -172 -21 -24 -3 -63 -8 -88 -11 -25 -3 -56 -7
-70 -9 -14 -2 -52 -7 -85 -10 -33 -3 -71 -8 -85 -10 -14 -2 -47 -6 -75 -10
-27 -3 -66 -7 -85 -10 -19 -2 -60 -7 -90 -11 -30 -4 -63 -8 -72 -10 -9 -1 -48
-6 -85 -9 -37 -4 -84 -10 -103 -14 -20 -4 -44 -7 -54 -5 -23 3 -20 1 77 -70
90 -65 101 -70 182 -82 76 -10 104 -14 200 -29 22 -4 54 -8 70 -11 17 -2 41
-6 55 -9 14 -2 41 -6 60 -9 76 -10 136 -19 155 -22 17 -4 128 -20 335 -51 19
-3 37 -7 38 -8 2 -2 -58 -45 -135 -96 -120 -81 -248 -172 -263 -189 -3 -3 -34
-30 -70 -60 -36 -30 -67 -57 -70 -60 -6 -6 -130 -111 -148 -125 -7 -5 -84 -89
-171 -186 -141 -157 -186 -215 -279 -364 -14 -22 -38 -59 -53 -83 -16 -23 -29
-45 -29 -49 0 -4 -6 -14 -14 -22 -8 -9 -42 -86 -76 -171 -33 -85 -69 -175 -80
-200 -10 -25 -21 -63 -25 -85 -3 -22 -20 -116 -38 -209 -30 -155 -32 -183 -31
-360 0 -105 3 -204 6 -221 4 -16 9 -57 13 -90 26 -240 138 -578 274 -824 90
-163 232 -357 357 -490 90 -94 133 -132 314 -275 53 -42 463 -286 480 -286 5
0 10 -4 12 -8 2 -4 39 -23 83 -41 44 -18 110 -46 147 -62 37 -16 131 -45 210
-65 159 -40 161 -40 238 -48 30 -3 84 -9 120 -13 82 -9 166 -9 360 1 243 12
276 15 345 31 36 8 77 17 93 20 15 2 72 14 127 26 55 12 116 23 135 26 33 5
155 48 425 150 128 48 159 62 245 110 30 17 91 49 135 73 211 112 199 104 535
361 52 40 103 82 113 93 10 12 71 77 135 145 186 196 189 200 251 290 123 180
189 314 255 516 70 216 90 354 90 625 -1 187 -4 230 -24 330 -6 30 -13 70 -16
89 -3 18 -8 43 -10 55 -2 11 -7 37 -10 56 -3 19 -33 105 -66 190 -33 85 -62
164 -66 175 -3 11 -48 92 -101 180 -125 211 -288 406 -477 571 -75 66 -146
127 -157 136 -19 17 -19 18 34 44 30 14 77 38 104 53 50 27 254 134 495 259
69 35 186 96 260 135 74 39 174 91 223 116 48 25 86 48 85 52 -2 3 -37 36 -78
71 l-75 66 -50 -8 c-27 -4 -72 -11 -100 -14 -27 -4 -129 -18 -225 -32 -96 -13
-193 -27 -215 -30 -22 -3 -51 -7 -65 -9 -14 -2 -79 -11 -145 -20 -66 -9 -133
-18 -150 -21 -16 -3 -48 -7 -70 -9 -22 -3 -49 -7 -60 -9 -11 -2 -45 -7 -76
-10 -31 -4 -66 -8 -76 -10 -11 -3 -44 -7 -74 -11 -30 -3 -61 -8 -69 -10 -8 -2
-40 -7 -70 -10 -30 -3 -80 -10 -110 -15 -30 -5 -79 -12 -109 -15 -30 -4 -61
-8 -70 -10 -9 -1 -41 -6 -71 -10 -30 -4 -64 -9 -75 -11 -11 -2 -42 -6 -70 -9
-27 -3 -75 -10 -105 -15 -30 -5 -79 -12 -109 -15 -68 -8 -92 -13 -99 -19 -2
-3 22 -36 55 -73 75 -85 159 -214 207 -318 38 -82 84 -224 92 -285 3 -19 9
-60 14 -90 9 -62 6 -264 -5 -325 -44 -245 -99 -386 -209 -535 -79 -106 -82
-109 -181 -189 -38 -31 -72 -59 -75 -63 -6 -8 -217 -98 -240 -103 -8 -1 -51
-6 -95 -10 -44 -4 -89 -9 -99 -11 -19 -3 -112 8 -257 32 -47 7 -157 62 -195
96 -20 18 -66 77 -101 131 -52 78 -70 117 -93 197 -16 55 -31 103 -34 108 -8
13 -10 283 -2 322 38 194 48 239 60 265 8 17 32 76 55 132 52 133 189 357 309
508 155 195 405 432 637 607 6 4 24 19 40 33 l30 25 -21 17 c-111 93 -171 132
-185 119z"/>
</g>
</svg>
