<?xml version="1.0" encoding="iso-8859-1"?>
<!-- Generator: Adobe Illustrator 16.0.0, SVG Export Plug-In . SVG Version: 6.00 Build 0)  -->
<!DOCTYPE svg PUBLIC "-//W3C//DTD SVG 1.1//EN" "http://www.w3.org/Graphics/SVG/1.1/DTD/svg11.dtd">
<svg version="1.1" id="Capa_1" xmlns="http://www.w3.org/2000/svg" xmlns:xlink="http://www.w3.org/1999/xlink" x="0px" y="0px"
	 width="29.116px" height="29.116px" viewBox="0 0 29.116 29.116" style="enable-background:new 0 0 29.116 29.116;"
	 xml:space="preserve">
<g>
	<path d="M25.666,11.364L22.73,19.24l2.521-1.682c-0.896,3.445-3.782,6.197-7.517,7.21L16.84,13.024l1.723-0.191
		c0.272-0.03,0.496-0.28,0.496-0.555v-0.5c0-0.275-0.224-0.525-0.496-0.555l-1.875-0.208l-0.047-0.616
		c1.894-0.811,3.225-2.692,3.225-4.878c0-2.926-2.381-5.307-5.307-5.307S9.251,2.596,9.251,5.521c0,2.187,1.332,4.067,3.225,4.878
		l-0.047,0.616l-1.875,0.208c-0.273,0.03-0.497,0.28-0.497,0.555v0.5c0,0.275,0.224,0.525,0.497,0.555l1.722,0.191l-0.895,11.744
		c-3.733-1.013-6.621-3.765-7.516-7.21l2.521,1.682L3.45,11.364L0,18.262l2.319-1.128c0.817,6.642,5.978,11.768,12.24,11.768
		s11.423-5.125,12.238-11.768l2.319,1.128L25.666,11.364z M11.726,5.521c0-1.563,1.271-2.834,2.833-2.834s2.833,1.271,2.833,2.834
		c0,1.562-1.271,2.833-2.833,2.833S11.726,7.083,11.726,5.521z"/>
</g>
<g>
</g>
<g>
</g>
<g>
</g>
<g>
</g>
<g>
</g>
<g>
</g>
<g>
</g>
<g>
</g>
<g>
</g>
<g>
</g>
<g>
</g>
<g>
</g>
<g>
</g>
<g>
</g>
<g>
</g>
</svg>
