<?xml version="1.0" encoding="iso-8859-1"?>
<!-- Generator: Adobe Illustrator 16.0.0, SVG Export Plug-In . SVG Version: 6.00 Build 0)  -->
<!DOCTYPE svg PUBLIC "-//W3C//DTD SVG 1.1//EN" "http://www.w3.org/Graphics/SVG/1.1/DTD/svg11.dtd">
<svg version="1.1" id="Capa_1" xmlns="http://www.w3.org/2000/svg" xmlns:xlink="http://www.w3.org/1999/xlink" x="0px" y="0px"
	 width="28.245px" height="28.246px" viewBox="0 0 28.245 28.246" style="enable-background:new 0 0 28.245 28.246;"
	 xml:space="preserve">
<g>
	<g>
		<path d="M0,26.365h8.752V8.844H0V26.365z M4.834,10.691H6.63v1.795H4.834V10.691z M4.834,13.405H6.63V15.2H4.834V13.405z
			 M2.121,10.691h1.795v1.795H2.121V10.691z M2.121,13.405h1.795V15.2H2.121V13.405z"/>
		<path d="M9.747,26.365h8.751V1.88H9.747V26.365z M14.581,3.729h1.797v1.796h-1.797V3.729z M14.581,6.441h1.797v1.795h-1.797V6.441
			z M11.868,3.729h1.795v1.796h-1.795V3.729z M11.868,6.441h1.795v1.795h-1.795V6.441z"/>
		<path d="M19.493,11.628v14.736h8.752V11.628H19.493z M23.41,17.984h-1.796v-1.795h1.796V17.984z M23.41,15.271h-1.796v-1.794
			h1.796V15.271z M26.124,17.984h-1.797v-1.795h1.797V17.984z M26.124,15.271h-1.797v-1.794h1.797V15.271z"/>
	</g>
</g>
<g>
</g>
<g>
</g>
<g>
</g>
<g>
</g>
<g>
</g>
<g>
</g>
<g>
</g>
<g>
</g>
<g>
</g>
<g>
</g>
<g>
</g>
<g>
</g>
<g>
</g>
<g>
</g>
<g>
</g>
</svg>
