<?xml version="1.0" encoding="iso-8859-1"?>
<!-- Generator: Adobe Illustrator 16.0.0, SVG Export Plug-In . SVG Version: 6.00 Build 0)  -->
<!DOCTYPE svg PUBLIC "-//W3C//DTD SVG 1.1//EN" "http://www.w3.org/Graphics/SVG/1.1/DTD/svg11.dtd">
<svg version="1.1" id="Capa_1" xmlns="http://www.w3.org/2000/svg" xmlns:xlink="http://www.w3.org/1999/xlink" x="0px" y="0px"
	 width="30.387px" height="30.386px" viewBox="0 0 30.387 30.386" style="enable-background:new 0 0 30.387 30.386;"
	 xml:space="preserve">
<g>
	<g>
		<polygon points="23.703,25.887 6.685,25.887 7.901,19.49 22.486,19.49 		"/>
		<path d="M21.88,4.5H8.508c-1.337,0-2.431,1.095-2.431,2.431v1.012H7.9V6.439h14.586v1.503h1.824V6.93
			C24.311,5.593,23.217,4.5,21.88,4.5z"/>
		<path d="M27.957,9.157H2.431C1.094,9.157,0,10.252,0,11.588v7.294c0,1.336,1.094,2.432,2.431,2.432h2.778l0.868-3.039h18.234
			l0.867,3.039h2.778c1.337,0,2.431-1.096,2.431-2.432v-7.294C30.388,10.252,29.295,9.157,27.957,9.157z M24.553,12.981
			c-0.503,0-0.912-0.407-0.912-0.911c0-0.505,0.408-0.912,0.912-0.912s0.912,0.407,0.912,0.912
			C25.465,12.574,25.056,12.981,24.553,12.981z M27.186,12.778c-0.391,0-0.707-0.316-0.707-0.708s0.316-0.709,0.707-0.709
			s0.709,0.317,0.709,0.709S27.576,12.778,27.186,12.778z"/>
	</g>
</g>
<g>
</g>
<g>
</g>
<g>
</g>
<g>
</g>
<g>
</g>
<g>
</g>
<g>
</g>
<g>
</g>
<g>
</g>
<g>
</g>
<g>
</g>
<g>
</g>
<g>
</g>
<g>
</g>
<g>
</g>
</svg>
