<?xml version="1.0" encoding="iso-8859-1"?>
<!-- Generator: Adobe Illustrator 16.0.0, SVG Export Plug-In . SVG Version: 6.00 Build 0)  -->
<!DOCTYPE svg PUBLIC "-//W3C//DTD SVG 1.1//EN" "http://www.w3.org/Graphics/SVG/1.1/DTD/svg11.dtd">
<svg version="1.1" id="Capa_1" xmlns="http://www.w3.org/2000/svg" xmlns:xlink="http://www.w3.org/1999/xlink" x="0px" y="0px"
	 width="32.601px" height="32.601px" viewBox="0 0 32.601 32.601" style="enable-background:new 0 0 32.601 32.601;"
	 xml:space="preserve">
<g>
	<g>
		<path d="M22.577,12.098c-0.007,0.036-0.015,0.074-0.021,0.109c-0.172,0.815-0.401,1.931-0.328,2.227
			c0.228,0.555,0.343,1.106,0.346,1.644h0.995v3.866h-3.42c-0.804,0.555-1.776,1.059-2.979,1.494l-1.322,0.481h1.877v3.866h-3.864
			v-2.348l-1.547-0.177c-0.572-0.064-1.793-0.466-3.02-0.958v10.297h18.844V12.098H22.577z M23.569,25.786h-3.865V21.92h3.865
			V25.786z"/>
		<path d="M11.366,12.858c-0.325,1.847,0.226,3.689,1.362,2.39c1.528-1.75,2.39-3.832,1.683-6.467
			c4.785,1.195,4.295,8.479,2.446,11.795c1.794-0.652,5.899-2.418,4.512-5.817c-0.599-1.467,2.882-8.695-1.089-10.273
			c1.363,1.903-0.69,4.117-0.976,3.262c-1.251-3.75-3.954-8.151-7.017-7.719c0.767,3.372-1.139,6.632-3.04,8.045
			C7.564,9.324,6.092,8.189,7.11,5.657C6.577,6.482,5.128,7.484,4.845,8.618c-0.233,0.932,0.006,2.143,0.587,2.976
			c0.881,1.264,1.37,2.84,0.663,3.492c-0.53,0.487-1.494-0.13-0.712-1.534c-2.277,2.242,0.261,5.221,1.256,6.373
			c0.512,0.594,4.571,2.29,5.775,2.426C9.739,20.032,9.085,15.031,11.366,12.858z"/>
	</g>
</g>
<g>
</g>
<g>
</g>
<g>
</g>
<g>
</g>
<g>
</g>
<g>
</g>
<g>
</g>
<g>
</g>
<g>
</g>
<g>
</g>
<g>
</g>
<g>
</g>
<g>
</g>
<g>
</g>
<g>
</g>
</svg>
