<?xml version="1.0" encoding="iso-8859-1"?>
<!-- Generator: Adobe Illustrator 16.0.0, SVG Export Plug-In . SVG Version: 6.00 Build 0)  -->
<!DOCTYPE svg PUBLIC "-//W3C//DTD SVG 1.1//EN" "http://www.w3.org/Graphics/SVG/1.1/DTD/svg11.dtd">
<svg version="1.1" id="Capa_1" xmlns="http://www.w3.org/2000/svg" xmlns:xlink="http://www.w3.org/1999/xlink" x="0px" y="0px"
	 width="31.781px" height="31.781px" viewBox="0 0 31.781 31.781" style="enable-background:new 0 0 31.781 31.781;"
	 xml:space="preserve">
<g>
	<g>
		<path d="M22.952,0H8.828C6.238,0,4.12,2.118,4.12,4.708v22.365c0,2.589,2.119,4.708,4.708,4.708h14.125
			c2.59,0,4.708-2.119,4.708-4.708V4.708C27.661,2.119,25.542,0,22.952,0z M11.686,27.074c0,0.646-0.53,1.177-1.177,1.177H8.827
			c-0.647,0-1.177-0.53-1.177-1.177v-1.684c0-0.646,0.53-1.176,1.177-1.176h1.682c0.647,0,1.177,0.529,1.177,1.176V27.074z
			 M11.686,20.852c0,0.646-0.53,1.177-1.177,1.177H8.827c-0.647,0-1.177-0.529-1.177-1.177V19.17c0-0.646,0.53-1.177,1.177-1.177
			h1.682c0.647,0,1.177,0.53,1.177,1.177V20.852z M11.686,14.63c0,0.645-0.53,1.176-1.177,1.176H8.827
			c-0.647,0-1.177-0.529-1.177-1.176v-1.682c0-0.647,0.53-1.178,1.177-1.178h1.682c0.647,0,1.177,0.53,1.177,1.178V14.63z
			 M17.908,27.074c0,0.646-0.53,1.177-1.177,1.177h-1.682c-0.647,0-1.177-0.53-1.177-1.177v-1.684c0-0.646,0.53-1.176,1.177-1.176
			h1.682c0.647,0,1.177,0.529,1.177,1.176V27.074z M17.908,20.852c0,0.646-0.53,1.177-1.177,1.177h-1.682
			c-0.647,0-1.177-0.529-1.177-1.177V19.17c0-0.646,0.53-1.177,1.177-1.177h1.682c0.647,0,1.177,0.53,1.177,1.177V20.852z
			 M17.908,14.63c0,0.645-0.53,1.176-1.177,1.176h-1.682c-0.647,0-1.177-0.529-1.177-1.176v-1.682c0-0.647,0.53-1.178,1.177-1.178
			h1.682c0.647,0,1.177,0.53,1.177,1.178V14.63z M24.129,27.074c0,0.646-0.53,1.177-1.177,1.177h-1.682
			c-0.647,0-1.178-0.53-1.178-1.177v-1.684c0-0.646,0.53-1.176,1.178-1.176h1.682c0.646,0,1.177,0.529,1.177,1.176V27.074z
			 M24.129,20.852c0,0.646-0.53,1.177-1.177,1.177h-1.682c-0.647,0-1.178-0.529-1.178-1.177V19.17c0-0.646,0.53-1.177,1.178-1.177
			h1.682c0.646,0,1.177,0.53,1.177,1.177V20.852z M24.129,14.63c0,0.645-0.53,1.176-1.177,1.176h-1.682
			c-0.647,0-1.178-0.529-1.178-1.176v-1.682c0-0.647,0.53-1.178,1.178-1.178h1.682c0.646,0,1.177,0.53,1.177,1.178V14.63z
			 M24.129,8.24c0,0.647-0.53,1.178-1.177,1.178H8.828c-0.647,0-1.177-0.53-1.177-1.178V5.381c0-0.647,0.53-1.177,1.177-1.177
			h14.125c0.647,0,1.177,0.529,1.177,1.177L24.129,8.24L24.129,8.24z"/>
		<path d="M16.327,5.165c-0.822,0-1.214,0.729-1.214,1.65c0.005,0.901,0.367,1.641,1.19,1.641c0.813,0,1.209-0.677,1.209-1.66
			C17.513,5.924,17.181,5.165,16.327,5.165z M16.323,7.893c-0.289,0-0.466-0.348-0.46-1.077c-0.005-0.74,0.181-1.088,0.455-1.088
			c0.299,0,0.451,0.373,0.451,1.077C16.768,7.531,16.612,7.893,16.323,7.893z"/>
		<path d="M19.048,5.165c-0.824,0-1.216,0.729-1.216,1.65c0.005,0.901,0.367,1.641,1.19,1.641c0.812,0,1.209-0.677,1.209-1.66
			C20.231,5.924,19.899,5.165,19.048,5.165z M19.042,7.893c-0.289,0-0.466-0.348-0.46-1.077c-0.005-0.74,0.181-1.088,0.455-1.088
			c0.299,0,0.451,0.373,0.451,1.077C19.488,7.531,19.331,7.893,19.042,7.893z"/>
		<path d="M21.767,5.165c-0.822,0-1.215,0.729-1.215,1.65c0.006,0.901,0.367,1.641,1.19,1.641c0.813,0,1.209-0.677,1.209-1.66
			C22.952,5.924,22.619,5.165,21.767,5.165z M21.763,7.893c-0.289,0-0.465-0.348-0.461-1.077c-0.004-0.74,0.182-1.088,0.455-1.088
			c0.299,0,0.451,0.373,0.451,1.077C22.207,7.531,22.052,7.893,21.763,7.893z"/>
	</g>
</g>
<g>
</g>
<g>
</g>
<g>
</g>
<g>
</g>
<g>
</g>
<g>
</g>
<g>
</g>
<g>
</g>
<g>
</g>
<g>
</g>
<g>
</g>
<g>
</g>
<g>
</g>
<g>
</g>
<g>
</g>
</svg>
