<?xml version="1.0" encoding="iso-8859-1"?>
<!-- Generator: Adobe Illustrator 16.0.0, SVG Export Plug-In . SVG Version: 6.00 Build 0)  -->
<!DOCTYPE svg PUBLIC "-//W3C//DTD SVG 1.1//EN" "http://www.w3.org/Graphics/SVG/1.1/DTD/svg11.dtd">
<svg version="1.1" id="Capa_1" xmlns="http://www.w3.org/2000/svg" xmlns:xlink="http://www.w3.org/1999/xlink" x="0px" y="0px"
	 width="26px" height="26px" viewBox="0 0 26 26" style="enable-background:new 0 0 26 26;" xml:space="preserve">
<g>
	<g>
		<path d="M20,0H6C2.691,0,0,2.691,0,6v14c0,3.309,2.691,6,6,6h14c3.309,0,6-2.691,6-6V6C26,2.691,23.309,0,20,0z M24,20
			c0,2.206-1.794,4-4,4H6c-2.206,0-4-1.794-4-4V6c0-2.206,1.794-4,4-4h14c2.206,0,4,1.794,4,4V20z"/>
		<path d="M6.317,15.477H5.358c-0.188,0-0.342,0.154-0.342,0.342v0.959c0,0.188,0.154,0.344,0.342,0.344h0.959
			c0.188,0,0.342-0.154,0.342-0.344v-0.959C6.66,15.631,6.506,15.477,6.317,15.477z"/>
		<path d="M8.705,15.477H7.746c-0.188,0-0.342,0.154-0.342,0.342v0.959c0,0.188,0.154,0.344,0.342,0.344h0.959
			c0.188,0,0.342-0.154,0.342-0.344v-0.959C9.047,15.631,8.893,15.477,8.705,15.477z"/>
		<path d="M11.092,15.477h-0.959c-0.188,0-0.342,0.154-0.342,0.342v0.959c0,0.188,0.154,0.344,0.342,0.344h0.959
			c0.188,0,0.342-0.154,0.342-0.344v-0.959C11.435,15.631,11.28,15.477,11.092,15.477z"/>
		<path d="M13.479,15.477H12.52c-0.188,0-0.342,0.154-0.342,0.342v0.959c0,0.188,0.154,0.344,0.342,0.344h0.958
			c0.188,0,0.342-0.154,0.342-0.344v-0.959C13.822,15.631,13.667,15.477,13.479,15.477z"/>
		<path d="M15.867,15.477h-0.959c-0.188,0-0.342,0.154-0.342,0.342v0.959c0,0.188,0.154,0.344,0.342,0.344h0.959
			c0.188,0,0.342-0.154,0.342-0.344v-0.959C16.209,15.631,16.055,15.477,15.867,15.477z"/>
		<path d="M18.254,15.477h-0.959c-0.188,0-0.342,0.154-0.342,0.342v0.959c0,0.188,0.154,0.344,0.342,0.344h0.959
			c0.188,0,0.342-0.154,0.342-0.344v-0.959C18.596,15.631,18.441,15.477,18.254,15.477z"/>
		<path d="M20.643,15.477h-0.959c-0.188,0-0.343,0.154-0.343,0.342v0.959c0,0.188,0.154,0.344,0.343,0.344h0.959
			c0.188,0,0.342-0.154,0.342-0.344v-0.959C20.982,15.631,20.83,15.477,20.643,15.477z"/>
		<path d="M6.317,17.864H5.358c-0.188,0-0.342,0.153-0.342,0.342v0.959c0,0.188,0.154,0.342,0.342,0.342h0.959
			c0.188,0,0.342-0.153,0.342-0.342v-0.959C6.66,18.018,6.506,17.864,6.317,17.864z"/>
		<path d="M8.705,17.864H7.746c-0.188,0-0.342,0.153-0.342,0.342v0.959c0,0.188,0.154,0.342,0.342,0.342h0.959
			c0.188,0,0.342-0.153,0.342-0.342v-0.959C9.047,18.018,8.893,17.864,8.705,17.864z"/>
		<path d="M11.092,17.864h-0.959c-0.188,0-0.342,0.153-0.342,0.342v0.959c0,0.188,0.154,0.342,0.342,0.342h0.959
			c0.188,0,0.342-0.153,0.342-0.342v-0.959C11.435,18.018,11.28,17.864,11.092,17.864z"/>
		<path d="M13.479,17.864H12.52c-0.188,0-0.342,0.153-0.342,0.342v0.959c0,0.188,0.154,0.342,0.342,0.342h0.958
			c0.188,0,0.342-0.153,0.342-0.342v-0.959C13.822,18.018,13.667,17.864,13.479,17.864z"/>
		<path d="M15.867,17.864h-0.959c-0.188,0-0.342,0.153-0.342,0.342v0.959c0,0.188,0.154,0.342,0.342,0.342h0.959
			c0.188,0,0.342-0.153,0.342-0.342v-0.959C16.209,18.018,16.055,17.864,15.867,17.864z"/>
		<path d="M18.254,17.864h-0.959c-0.188,0-0.342,0.153-0.342,0.342v0.959c0,0.188,0.154,0.342,0.342,0.342h0.959
			c0.188,0,0.342-0.153,0.342-0.342v-0.959C18.596,18.018,18.441,17.864,18.254,17.864z"/>
		<path d="M20.643,17.864h-0.959c-0.188,0-0.343,0.153-0.343,0.342v0.959c0,0.188,0.154,0.342,0.343,0.342h0.959
			c0.188,0,0.342-0.153,0.342-0.342v-0.959C20.982,18.018,20.83,17.864,20.643,17.864z"/>
		<path d="M6.317,20.251H5.358c-0.188,0-0.342,0.154-0.342,0.343v0.959c0,0.188,0.154,0.342,0.342,0.342h0.959
			c0.188,0,0.342-0.153,0.342-0.342v-0.959C6.66,20.405,6.506,20.251,6.317,20.251z"/>
		<path d="M8.705,20.251H7.746c-0.188,0-0.342,0.154-0.342,0.343v0.959c0,0.188,0.154,0.342,0.342,0.342h0.959
			c0.188,0,0.342-0.153,0.342-0.342v-0.959C9.047,20.405,8.893,20.251,8.705,20.251z"/>
		<path d="M11.092,20.251h-0.959c-0.188,0-0.342,0.154-0.342,0.343v0.959c0,0.188,0.154,0.342,0.342,0.342h0.959
			c0.188,0,0.342-0.153,0.342-0.342v-0.959C11.435,20.405,11.28,20.251,11.092,20.251z"/>
		<path d="M13.479,20.251H12.52c-0.188,0-0.342,0.154-0.342,0.343v0.959c0,0.188,0.154,0.342,0.342,0.342h0.958
			c0.188,0,0.342-0.153,0.342-0.342v-0.959C13.822,20.405,13.667,20.251,13.479,20.251z"/>
		<path d="M15.867,20.251h-0.959c-0.188,0-0.342,0.154-0.342,0.343v0.959c0,0.188,0.154,0.342,0.342,0.342h0.959
			c0.188,0,0.342-0.153,0.342-0.342v-0.959C16.209,20.405,16.055,20.251,15.867,20.251z"/>
		<path d="M18.254,20.251h-0.959c-0.188,0-0.342,0.154-0.342,0.343v0.959c0,0.188,0.154,0.342,0.342,0.342h0.959
			c0.188,0,0.342-0.153,0.342-0.342v-0.959C18.596,20.405,18.441,20.251,18.254,20.251z"/>
		<path d="M20.643,20.251h-0.959c-0.188,0-0.343,0.154-0.343,0.343v0.959c0,0.188,0.154,0.342,0.343,0.342h0.959
			c0.188,0,0.342-0.153,0.342-0.342v-0.959C20.982,20.405,20.83,20.251,20.643,20.251z"/>
		<path d="M15.646,8.45c-0.176-0.109-0.431-0.205-0.763-0.287c0.41-0.227,0.718-0.49,0.921-0.791
			c0.202-0.301,0.305-0.637,0.305-1.008c0-0.633-0.25-1.158-0.75-1.576s-1.312-0.627-2.433-0.627c-0.977,0-1.731,0.191-2.265,0.574
			c-0.534,0.383-0.894,0.934-1.081,1.652l2.256,0.404c0.063-0.426,0.182-0.724,0.357-0.894c0.175-0.17,0.404-0.255,0.686-0.255
			c0.272,0,0.488,0.078,0.646,0.234c0.156,0.156,0.233,0.365,0.233,0.627c0,0.273-0.104,0.51-0.313,0.709
			c-0.209,0.199-0.469,0.299-0.781,0.299c-0.074,0-0.178-0.01-0.311-0.029L12.23,9.187c0.328-0.094,0.586-0.141,0.773-0.141
			c0.353,0,0.63,0.109,0.835,0.328s0.309,0.527,0.309,0.926c0,0.391-0.106,0.703-0.319,0.938c-0.214,0.235-0.479,0.352-0.8,0.352
			c-0.305,0-0.556-0.093-0.753-0.278c-0.197-0.185-0.343-0.519-0.437-0.999l-2.385,0.316c0.156,0.535,0.38,0.979,0.671,1.333
			s0.662,0.622,1.113,0.806c0.451,0.184,1.067,0.275,1.849,0.275c0.802,0,1.447-0.124,1.938-0.372
			c0.492-0.248,0.869-0.602,1.131-1.061c0.263-0.459,0.394-0.938,0.394-1.438c0-0.398-0.079-0.741-0.237-1.028
			S15.932,8.626,15.646,8.45z"/>
	</g>
</g>
<g>
</g>
<g>
</g>
<g>
</g>
<g>
</g>
<g>
</g>
<g>
</g>
<g>
</g>
<g>
</g>
<g>
</g>
<g>
</g>
<g>
</g>
<g>
</g>
<g>
</g>
<g>
</g>
<g>
</g>
</svg>
