<?xml version="1.0" encoding="iso-8859-1"?>
<!-- Generator: Adobe Illustrator 16.0.0, SVG Export Plug-In . SVG Version: 6.00 Build 0)  -->
<!DOCTYPE svg PUBLIC "-//W3C//DTD SVG 1.1//EN" "http://www.w3.org/Graphics/SVG/1.1/DTD/svg11.dtd">
<svg version="1.1" id="Capa_1" xmlns="http://www.w3.org/2000/svg" xmlns:xlink="http://www.w3.org/1999/xlink" x="0px" y="0px"
	 width="27.555px" height="27.555px" viewBox="0 0 27.555 27.555" style="enable-background:new 0 0 27.555 27.555;"
	 xml:space="preserve">
<g>
	<path d="M13.777,0C7.108,0,1.701,5.407,1.701,12.076c0,3.45,1.454,6.553,3.773,8.752L5.07,27.555l5.736-3.787
		c0.952,0.241,1.944,0.383,2.971,0.383c6.67,0,12.076-5.406,12.076-12.076C25.854,5.407,20.447,0,13.777,0z M6.625,10.223
		c0-1.197,0.97-2.167,2.167-2.167c1.197,0,2.167,0.97,2.167,2.167c0,1.197-0.97,2.167-2.167,2.167
		C7.594,12.391,6.625,11.421,6.625,10.223z M13.777,20.229c-3.335,0-6.039-2.646-6.039-4.17c0-1.521,2.703,0.064,6.039,0.064
		c3.335,0,6.038-1.588,6.038-0.064C19.815,17.583,17.112,20.229,13.777,20.229z M18.764,12.391c-1.197,0-2.168-0.97-2.168-2.167
		c0-1.197,0.971-2.167,2.168-2.167s2.166,0.97,2.166,2.167C20.93,11.421,19.961,12.391,18.764,12.391z"/>
</g>
<g>
</g>
<g>
</g>
<g>
</g>
<g>
</g>
<g>
</g>
<g>
</g>
<g>
</g>
<g>
</g>
<g>
</g>
<g>
</g>
<g>
</g>
<g>
</g>
<g>
</g>
<g>
</g>
<g>
</g>
</svg>
