<?xml version="1.0" encoding="iso-8859-1"?>
<!-- Generator: Adobe Illustrator 16.0.0, SVG Export Plug-In . SVG Version: 6.00 Build 0)  -->
<!DOCTYPE svg PUBLIC "-//W3C//DTD SVG 1.1//EN" "http://www.w3.org/Graphics/SVG/1.1/DTD/svg11.dtd">
<svg version="1.1" id="Capa_1" xmlns="http://www.w3.org/2000/svg" xmlns:xlink="http://www.w3.org/1999/xlink" x="0px" y="0px"
	 width="25.934px" height="25.934px" viewBox="0 0 25.934 25.934" style="enable-background:new 0 0 25.934 25.934;"
	 xml:space="preserve">
<g>
	<path d="M25.304,18.714L9.245,9.444c-0.019-0.011-0.041-0.01-0.062-0.02c1.191-2.644,1.176-5.162-0.147-5.925
		c-1.015-0.586-2.539,0.03-3.959,1.403C4.965,4.815,4.856,4.725,4.73,4.652C3.223,3.781,1.293,4.298,0.423,5.806
		c-0.87,1.507-0.354,3.436,1.153,4.306c0.126,0.073,0.259,0.123,0.392,0.176c-0.48,1.917-0.251,3.543,0.764,4.13
		c1.323,0.765,3.511-0.48,5.205-2.834c0.019,0.013,0.028,0.033,0.048,0.043l9.317,5.378l-1.716,2.971
		c-0.261,0.452-0.105,1.03,0.347,1.292c0.453,0.261,1.03,0.105,1.292-0.347l1.715-2.97l0.546,0.315l-1.715,2.97
		c-0.261,0.452-0.106,1.031,0.346,1.292c0.452,0.262,1.031,0.105,1.292-0.346l1.715-2.971l0.546,0.315l-0.944,1.638
		c-0.263,0.453-0.106,1.031,0.346,1.292c0.453,0.261,1.031,0.106,1.292-0.346l0.946-1.639l0.733,0.424
		c0.604,0.348,1.374,0.141,1.723-0.462C26.112,19.833,25.906,19.063,25.304,18.714z M3.069,8.791
		c-0.603-0.349-0.81-1.12-0.461-1.723c0.348-0.604,1.12-0.81,1.723-0.462c0.604,0.348,0.811,1.12,0.461,1.723
		C4.444,8.932,3.672,9.139,3.069,8.791z M3.992,12.236c-0.603-0.348-0.81-1.119-0.462-1.722c0.349-0.604,1.12-0.81,1.723-0.461
		c0.604,0.348,0.811,1.119,0.461,1.723C5.367,12.377,4.597,12.584,3.992,12.236z M6.516,7.867c-0.604-0.349-0.811-1.12-0.461-1.723
		c0.348-0.603,1.118-0.81,1.722-0.461s0.81,1.12,0.461,1.722C7.89,8.009,7.118,8.216,6.516,7.867z"/>
</g>
<g>
</g>
<g>
</g>
<g>
</g>
<g>
</g>
<g>
</g>
<g>
</g>
<g>
</g>
<g>
</g>
<g>
</g>
<g>
</g>
<g>
</g>
<g>
</g>
<g>
</g>
<g>
</g>
<g>
</g>
</svg>
