<?xml version="1.0" encoding="iso-8859-1"?>
<!-- Generator: Adobe Illustrator 16.0.0, SVG Export Plug-In . SVG Version: 6.00 Build 0)  -->
<!DOCTYPE svg PUBLIC "-//W3C//DTD SVG 1.1//EN" "http://www.w3.org/Graphics/SVG/1.1/DTD/svg11.dtd">
<svg version="1.1" id="Capa_1" xmlns="http://www.w3.org/2000/svg" xmlns:xlink="http://www.w3.org/1999/xlink" x="0px" y="0px"
	 width="29.492px" height="29.492px" viewBox="0 0 29.492 29.492" style="enable-background:new 0 0 29.492 29.492;"
	 xml:space="preserve">
<g>
	<path d="M27.453,13.82c-0.514-1.841-1.98-3.18-3.729-3.18c-0.021,0-0.039,0.006-0.06,0.007c-0.28-3.498-2.778-6.246-5.853-6.246
		c-1.729,0-3.272,0.884-4.354,2.265c-0.682-0.658-1.547-1.07-2.5-1.07c-2.139,0-3.873,1.993-3.93,4.472
		C6.654,9.902,6.25,9.799,5.826,9.799c-1.885,0-3.412,1.781-3.412,3.978C1.08,13.777,0,15.036,0,16.59s1.08,2.813,2.414,2.813
		c0.023,0,4.463,0,9.566,0l-2.504,5.688l9.256-5.688c4.572,0,8.328,0,8.346,0c1.334,0,2.414-1.26,2.414-2.813
		C29.494,15.183,28.609,14.03,27.453,13.82z"/>
</g>
<g>
</g>
<g>
</g>
<g>
</g>
<g>
</g>
<g>
</g>
<g>
</g>
<g>
</g>
<g>
</g>
<g>
</g>
<g>
</g>
<g>
</g>
<g>
</g>
<g>
</g>
<g>
</g>
<g>
</g>
</svg>
