<?xml version="1.0" encoding="iso-8859-1"?>
<!-- Generator: Adobe Illustrator 16.0.0, SVG Export Plug-In . SVG Version: 6.00 Build 0)  -->
<!DOCTYPE svg PUBLIC "-//W3C//DTD SVG 1.1//EN" "http://www.w3.org/Graphics/SVG/1.1/DTD/svg11.dtd">
<svg version="1.1" id="Capa_1" xmlns="http://www.w3.org/2000/svg" xmlns:xlink="http://www.w3.org/1999/xlink" x="0px" y="0px"
	 width="30px" height="30px" viewBox="0 0 30 30" style="enable-background:new 0 0 30 30;" xml:space="preserve">
<g>
	<g>
		<path d="M15,0C6.729,0,0,6.729,0,15c0,8.271,6.729,15,15,15c8.271,0,15-6.729,15-15C30,6.729,23.271,0,15,0z M15,27.777
			C7.956,27.777,2.223,22.046,2.223,15S7.956,2.223,15,2.223S27.777,7.954,27.777,15S22.044,27.777,15,27.777z"/>
		<path d="M12.296,11.384c2.449,0,4.437-0.794,4.437-1.774V8.513c0,0.98-1.986,1.774-4.437,1.774c-2.451,0-4.436-0.794-4.436-1.774
			V9.61C7.86,10.59,9.845,11.384,12.296,11.384z"/>
		<path d="M12.296,13.144c2.449,0,4.437-0.794,4.437-1.774v-1.098c0,0.98-1.986,1.773-4.437,1.773c-2.451,0-4.436-0.793-4.436-1.773
			v1.098C7.86,12.35,9.845,13.144,12.296,13.144z"/>
		<path d="M12.296,14.904c2.449,0,4.437-0.793,4.437-1.774v-1.098c0,0.98-1.986,1.774-4.437,1.774c-2.451,0-4.436-0.794-4.436-1.774
			v1.098C7.86,14.111,9.845,14.904,12.296,14.904z"/>
		<path d="M12.296,9.596c2.449,0,4.437-0.793,4.437-1.774V7.4c0-0.98-1.986-1.774-4.437-1.774C9.845,5.626,7.86,6.42,7.86,7.4v0.422
			C7.86,8.802,9.845,9.596,12.296,9.596z M12.296,6.069c2.437,0,3.991,0.788,3.991,1.331s-1.555,1.331-3.991,1.331
			c-2.438,0-3.992-0.788-3.992-1.331S9.858,6.069,12.296,6.069z"/>
		<path d="M16.73,14.46v-0.668c0,0.251-0.133,0.49-0.367,0.707C16.484,14.485,16.607,14.471,16.73,14.46z"/>
		<path d="M12.296,15.566c-2.451,0-4.436-0.793-4.436-1.773v1.098c0,0.98,1.984,1.774,4.436,1.774c0.107,0,0.214-0.004,0.319-0.007
			c0.066-0.448,0.339-0.831,0.757-1.146C13.026,15.546,12.667,15.566,12.296,15.566z"/>
		<path d="M7.86,15.673v1.099c0,0.979,1.984,1.773,4.436,1.773c0.101,0,0.199-0.004,0.298-0.006c0-0.493,0-0.891,0-1.098
			c-0.099,0.002-0.197,0.006-0.298,0.006C9.845,17.448,7.86,16.654,7.86,15.673z"/>
		<path d="M7.86,17.434v1.099c0,0.979,1.984,1.774,4.436,1.774c0.101,0,0.199-0.005,0.298-0.007c0-0.366,0-0.739,0-1.098
			c-0.099,0.003-0.197,0.006-0.298,0.006C9.845,19.208,7.86,18.414,7.86,17.434z"/>
		<path d="M7.86,19.193v1.099c0,0.979,1.984,1.774,4.436,1.774c0.101,0,0.199-0.004,0.298-0.006c0-0.289,0-0.67,0-1.098
			c-0.099,0.002-0.197,0.006-0.298,0.006C9.845,20.968,7.86,20.174,7.86,19.193z"/>
		<path d="M17.705,19.755c-2.449,0-4.435-0.794-4.435-1.774v1.099c0,0.979,1.985,1.774,4.435,1.774c2.451,0,4.436-0.795,4.436-1.774
			V17.98C22.141,18.961,20.156,19.755,17.705,19.755z"/>
		<path d="M17.705,21.516c-2.449,0-4.435-0.793-4.435-1.774v1.098c0,0.979,1.985,1.774,4.435,1.774c2.451,0,4.436-0.795,4.436-1.774
			v-1.098C22.141,20.723,20.156,21.516,17.705,21.516z"/>
		<path d="M17.705,23.275c-2.449,0-4.435-0.795-4.435-1.774V22.6c0,0.979,1.985,1.773,4.435,1.773c2.451,0,4.436-0.794,4.436-1.773
			v-1.099C22.141,22.48,20.156,23.275,17.705,23.275z"/>
		<path d="M17.705,15.095c-2.449,0-4.435,0.794-4.435,1.774v0.422c0,0.98,1.985,1.773,4.435,1.773c2.451,0,4.436-0.793,4.436-1.773
			v-0.422C22.141,15.889,20.156,15.095,17.705,15.095z M17.705,18.2c-2.438,0-3.991-0.788-3.991-1.331s1.556-1.331,3.991-1.331
			c2.438,0,3.992,0.788,3.992,1.331S20.143,18.2,17.705,18.2z"/>
	</g>
</g>
<g>
</g>
<g>
</g>
<g>
</g>
<g>
</g>
<g>
</g>
<g>
</g>
<g>
</g>
<g>
</g>
<g>
</g>
<g>
</g>
<g>
</g>
<g>
</g>
<g>
</g>
<g>
</g>
<g>
</g>
</svg>
