<?xml version="1.0" encoding="iso-8859-1"?>
<!-- Generator: Adobe Illustrator 16.0.0, SVG Export Plug-In . SVG Version: 6.00 Build 0)  -->
<!DOCTYPE svg PUBLIC "-//W3C//DTD SVG 1.1//EN" "http://www.w3.org/Graphics/SVG/1.1/DTD/svg11.dtd">
<svg version="1.1" id="Capa_1" xmlns="http://www.w3.org/2000/svg" xmlns:xlink="http://www.w3.org/1999/xlink" x="0px" y="0px"
	 width="28.535px" height="28.535px" viewBox="0 0 28.535 28.535" style="enable-background:new 0 0 28.535 28.535;"
	 xml:space="preserve">
<g>
	<g>
		<path d="M22.768,5.018h-17v10.909h16.998L22.768,5.018z M8.268,15.461c0,0.059-0.081,0.104-0.179,0.104H6.66
			c-0.098,0-0.179-0.046-0.179-0.104v-0.514c0-0.058,0.081-0.104,0.179-0.104h1.429c0.099,0,0.179,0.046,0.179,0.104V15.461z
			 M22.055,15.461c0,0.059-0.081,0.104-0.179,0.104H9.447c-0.098,0-0.179-0.046-0.179-0.104v-0.514c0-0.058,0.081-0.104,0.179-0.104
			h12.429c0.099,0,0.179,0.046,0.179,0.104V15.461z"/>
		<path d="M28.209,22.783l-2.117-3.972c-0.311-0.582-0.829-1.101-1.434-1.5c0.378-0.502,0.609-1.119,0.609-1.794v-10
			c0-1.654-1.346-3-3-3h-16c-1.654,0-3,1.346-3,3v10c0,0.675,0.232,1.292,0.61,1.794c-0.604,0.399-1.123,0.918-1.434,1.5
			l-2.117,3.972c-0.416,0.779-0.436,1.594-0.053,2.23c0.383,0.637,1.11,1.004,1.994,1.004h24c0.884,0,1.611-0.366,1.994-1.004
			C28.645,24.375,28.625,23.562,28.209,22.783z M5.268,15.518v-10c0-0.552,0.449-1,1-1h16c0.551,0,1,0.448,1,1v10
			c0,0.552-0.449,1-1,1h-16C5.717,16.518,5.268,16.069,5.268,15.518z M26.268,24.018h-24c-0.152,0-0.236-0.025-0.263-0.025
			c-0.001,0-0.003,0-0.004,0c0.001-0.037,0.015-0.125,0.091-0.269l2.117-3.972c0.345-0.646,1.327-1.234,2.059-1.234h16
			c0.732,0,1.714,0.589,2.06,1.234l2.116,3.972c0.077,0.144,0.091,0.231,0.104,0.248C26.515,23.987,26.431,24.018,26.268,24.018z"/>
		<polygon points="11.659,21.799 10.659,23.393 17.877,23.393 16.877,21.799 		"/>
	</g>
</g>
<g>
</g>
<g>
</g>
<g>
</g>
<g>
</g>
<g>
</g>
<g>
</g>
<g>
</g>
<g>
</g>
<g>
</g>
<g>
</g>
<g>
</g>
<g>
</g>
<g>
</g>
<g>
</g>
<g>
</g>
</svg>
