<?xml version="1.0" encoding="iso-8859-1"?>
<!-- Generator: Adobe Illustrator 16.0.0, SVG Export Plug-In . SVG Version: 6.00 Build 0)  -->
<!DOCTYPE svg PUBLIC "-//W3C//DTD SVG 1.1//EN" "http://www.w3.org/Graphics/SVG/1.1/DTD/svg11.dtd">
<svg version="1.1" id="Capa_1" xmlns="http://www.w3.org/2000/svg" xmlns:xlink="http://www.w3.org/1999/xlink" x="0px" y="0px"
	 width="31.344px" height="31.344px" viewBox="0 0 31.344 31.344" style="enable-background:new 0 0 31.344 31.344;"
	 xml:space="preserve">
<g>
	<g>
		<path d="M23.724,27.417l-2.418-1.813c-0.276-0.207-0.782-0.377-1.129-0.377h-3.251v0.422c0,0.69-0.562,1.254-1.254,1.254
			c-0.691,0-1.254-0.563-1.254-1.254v-0.422h-3.251c-0.346,0-0.853,0.17-1.13,0.377L7.62,27.417
			c-0.277,0.206-0.222,0.375,0.124,0.375h15.855C23.945,27.792,24.001,27.624,23.724,27.417z"/>
		<path d="M30.089,3.551H1.255C0.566,3.551,0,4.115,0,4.805v16.299c0,0.688,0.565,1.254,1.255,1.254h13.79v3.291
			c0,0.346,0.281,0.625,0.627,0.625c0.346,0,0.627-0.279,0.627-0.625v-3.291h13.79c0.688,0,1.255-0.565,1.255-1.254V4.805
			C31.344,4.115,30.777,3.551,30.089,3.551z M13.584,16.567h-0.563c-0.231,1.5-1.528,2.653-3.093,2.653
			c-0.288,0-0.521-0.233-0.521-0.522c0-0.287,0.233-0.521,0.521-0.521c0.986,0,1.812-0.688,2.027-1.607h-0.461
			c-0.143,0-0.187-0.093-0.1-0.206l0.982-1.243c0.088-0.113,0.236-0.113,0.322,0l0.984,1.243
			C13.771,16.474,13.729,16.567,13.584,16.567z M16.716,16.567h-0.522v2.131c0,0.289-0.231,0.522-0.521,0.522
			s-0.521-0.233-0.521-0.522v-2.131H14.63c-0.145,0-0.188-0.093-0.1-0.205l0.98-1.243c0.09-0.113,0.236-0.113,0.326,0l0.98,1.243
			C16.904,16.474,16.859,16.567,16.716,16.567z M21.416,19.22c-1.564,0-2.861-1.153-3.094-2.653H17.76
			c-0.145,0-0.188-0.093-0.1-0.205l0.984-1.243c0.086-0.113,0.232-0.113,0.321,0l0.981,1.243c0.088,0.112,0.043,0.205-0.1,0.205
			h-0.461c0.217,0.92,1.041,1.608,2.027,1.608c0.287,0,0.521,0.233,0.521,0.521C21.938,18.985,21.704,19.22,21.416,19.22z
			 M22.111,14.521c-0.023,0-12.852,0-12.877,0c-0.698,0-1.262-0.657-1.262-1.47c0-0.811,0.563-1.469,1.262-1.469
			c0-1.146,0.796-2.076,1.781-2.076c0.219,0,0.431,0.054,0.627,0.14c0.028-1.294,0.936-2.333,2.054-2.333
			c0.497,0,0.947,0.214,1.304,0.558c0.563-0.723,1.37-1.184,2.271-1.184c1.605,0,2.907,1.436,3.055,3.263
			c0.013,0,0.021-0.004,0.033-0.004c0.912,0,1.679,0.7,1.945,1.659c0.604,0.111,1.065,0.713,1.065,1.446
			C23.371,13.863,22.809,14.521,22.111,14.521z"/>
	</g>
</g>
<g>
</g>
<g>
</g>
<g>
</g>
<g>
</g>
<g>
</g>
<g>
</g>
<g>
</g>
<g>
</g>
<g>
</g>
<g>
</g>
<g>
</g>
<g>
</g>
<g>
</g>
<g>
</g>
<g>
</g>
</svg>
