<?xml version="1.0" encoding="iso-8859-1"?>
<!-- Generator: Adobe Illustrator 16.0.0, SVG Export Plug-In . SVG Version: 6.00 Build 0)  -->
<!DOCTYPE svg PUBLIC "-//W3C//DTD SVG 1.1//EN" "http://www.w3.org/Graphics/SVG/1.1/DTD/svg11.dtd">
<svg version="1.1" id="Capa_1" xmlns="http://www.w3.org/2000/svg" xmlns:xlink="http://www.w3.org/1999/xlink" x="0px" y="0px"
	 width="25.426px" height="25.426px" viewBox="0 0 25.426 25.426" style="enable-background:new 0 0 25.426 25.426;"
	 xml:space="preserve">
<g>
	<path d="M4.5,16.438c0-0.555,0.447-1,1-1h5.99c0.126,0.68,0.352,1.34,0.675,1.967c-0.056,0.01-0.106,0.033-0.165,0.033H5.5
		C4.947,17.438,4.5,16.989,4.5,16.438z M5.5,13.438h5.905c0.039-0.39,0.102-0.778,0.205-1.163c0.077-0.288,0.177-0.565,0.287-0.838
		H5.5c-0.553,0-1,0.447-1,1C4.5,12.989,4.947,13.438,5.5,13.438z M14.949,7.92c0.334-0.193,0.687-0.349,1.046-0.484H5.5
		c-0.553,0-1,0.447-1,1c0,0.553,0.447,1,1,1h7.621C13.637,8.841,14.248,8.325,14.949,7.92z M20.195,22.416
		c-0.064,0.006-0.129,0.021-0.195,0.021H4c-1.104,0-2-0.896-2-2v-16c0-1.104,0.896-2,2-2h16c1.104,0,2,0.896,2,2v3.433
		c0.759,0.419,1.434,0.979,2,1.646V4.438c0-2.205-1.795-4-4-4H4c-2.205,0-4,1.795-4,4v16c0,2.205,1.795,4,4,4h16
		c0.434,0,0.844-0.088,1.234-0.217l-0.24-0.422L20.195,22.416z M13.389,17.1c-1.638-2.838-0.662-6.476,2.176-8.114
		c2.834-1.636,6.476-0.663,8.112,2.174c1.638,2.836,0.662,6.475-2.174,8.112C18.667,20.907,15.025,19.938,13.389,17.1z
		 M14.242,16.605c1.367,2.365,4.402,3.186,6.769,1.816c2.368-1.369,3.179-4.404,1.815-6.771c-1.368-2.366-4.403-3.18-6.771-1.815
		C13.688,11.204,12.872,14.237,14.242,16.605z M22.992,18.906l-2.553,1.477l1.965,3.399l2.553-1.475L22.992,18.906z M25.229,22.774
		l-2.557,1.478c0.407,0.705,1.309,0.944,2.016,0.539C25.395,24.385,25.635,23.482,25.229,22.774z"/>
</g>
<g>
</g>
<g>
</g>
<g>
</g>
<g>
</g>
<g>
</g>
<g>
</g>
<g>
</g>
<g>
</g>
<g>
</g>
<g>
</g>
<g>
</g>
<g>
</g>
<g>
</g>
<g>
</g>
<g>
</g>
</svg>
