<?xml version="1.0" encoding="iso-8859-1"?>
<!-- Generator: Adobe Illustrator 16.0.0, SVG Export Plug-In . SVG Version: 6.00 Build 0)  -->
<!DOCTYPE svg PUBLIC "-//W3C//DTD SVG 1.1//EN" "http://www.w3.org/Graphics/SVG/1.1/DTD/svg11.dtd">
<svg version="1.1" id="Capa_1" xmlns="http://www.w3.org/2000/svg" xmlns:xlink="http://www.w3.org/1999/xlink" x="0px" y="0px"
	 width="28.859px" height="28.859px" viewBox="0 0 28.859 28.859" style="enable-background:new 0 0 28.859 28.859;"
	 xml:space="preserve">
<g>
	<path d="M24.649,22.799c0.634-0.539,0.765-1.484,0.268-2.176c-0.12-0.168-0.275-0.304-0.447-0.41
		c0.487-0.641,0.755-1.355,0.755-2.127c0-0.893-0.727-1.619-1.619-1.619c-0.07,0-0.137,0.012-0.205,0.021V1.121
		C23.4,0.505,22.896,0,22.279,0H6.582C5.966,0,5.461,0.505,5.461,1.121v15.367c-0.068-0.01-0.135-0.021-0.205-0.021
		c-0.893,0-1.619,0.728-1.619,1.619c0,0.774,0.267,1.489,0.756,2.131c-0.174,0.105-0.329,0.241-0.45,0.41
		c-0.494,0.688-0.364,1.631,0.269,2.172c-0.147,0.121-0.276,0.264-0.373,0.436c-0.21,0.377-0.26,0.814-0.142,1.23
		c0.119,0.416,0.392,0.76,0.77,0.971c0.32,0.178,0.653,0.345,0.994,0.504v0.969c0,0.617,0.505,1.122,1.121,1.122H8.12v0.595
		c0,0.129,0.126,0.234,0.28,0.234h2.056c0.154,0,0.28-0.105,0.28-0.234V28.03h7.387v0.595c0,0.129,0.126,0.234,0.28,0.234h2.056
		c0.154,0,0.28-0.105,0.28-0.234V28.03h1.54c0.617,0,1.121-0.505,1.121-1.122v-0.969c0.341-0.158,0.674-0.325,0.994-0.504
		c0.779-0.436,1.06-1.422,0.626-2.2C24.926,23.064,24.797,22.92,24.649,22.799z M7.128,2.803c0-0.308,0.252-0.561,0.561-0.561
		h13.483c0.308,0,0.561,0.252,0.561,0.561v2.904c0,0.308-0.252,0.561-0.561,0.561H7.689c-0.309,0-0.561-0.252-0.561-0.561V2.803z
		 M7.128,7.942c0-0.308,0.252-0.561,0.561-0.561h13.483c0.308,0,0.561,0.252,0.561,0.561v2.904c0,0.308-0.252,0.561-0.561,0.561
		H7.689c-0.309,0-0.561-0.252-0.561-0.561V7.942z M14.431,18.146c1.168,0,2.119-0.951,2.119-2.118c0-0.595-0.253-1.167-0.694-1.567
		c-0.216-0.197-0.232-0.532-0.035-0.749c0.196-0.216,0.531-0.231,0.748-0.036c0.66,0.601,1.04,1.458,1.04,2.351
		c0,1.751-1.425,3.177-3.177,3.177c-1.752,0-3.177-1.425-3.177-3.177c0-0.893,0.379-1.75,1.04-2.351
		c0.217-0.197,0.551-0.181,0.749,0.036c0.196,0.216,0.181,0.551-0.036,0.749c-0.441,0.399-0.694,0.971-0.694,1.566
		C12.313,17.195,13.264,18.146,14.431,18.146z M13.902,16.028V13.38c0-0.292,0.237-0.53,0.529-0.53s0.529,0.237,0.529,0.53v2.647
		c0,0.292-0.237,0.529-0.529,0.529S13.902,16.32,13.902,16.028z M23.867,24.493c-2.58,1.437-5.931,2.228-9.437,2.228
		c-3.505,0-6.857-0.791-9.438-2.229c-0.261-0.145-0.354-0.473-0.209-0.734c0.146-0.261,0.473-0.352,0.734-0.209
		c2.424,1.35,5.589,2.094,8.914,2.094c3.326,0,6.49-0.742,8.912-2.092c0.26-0.145,0.59-0.053,0.733,0.209
		C24.222,24.02,24.128,24.348,23.867,24.493z M4.82,21.258c0.174-0.242,0.512-0.297,0.753-0.123c2.04,1.471,5.351,2.348,8.857,2.348
		c3.506,0,6.818-0.879,8.858-2.35c0.242-0.172,0.58-0.117,0.754,0.123c0.175,0.242,0.119,0.58-0.122,0.754
		c-2.25,1.621-5.71,2.551-9.49,2.551s-7.237-0.93-9.488-2.551C4.701,21.838,4.646,21.499,4.82,21.258z M14.43,22.403
		c-5.538,0-9.714-1.856-9.714-4.317c0-0.298,0.242-0.539,0.54-0.539c0.298,0,0.54,0.241,0.54,0.539c0,1.532,3.546,3.238,8.635,3.238
		c5.088,0,8.634-1.707,8.634-3.238c0-0.298,0.242-0.539,0.54-0.539s0.54,0.241,0.54,0.539C24.145,20.547,19.97,22.403,14.43,22.403z
		"/>
</g>
<g>
</g>
<g>
</g>
<g>
</g>
<g>
</g>
<g>
</g>
<g>
</g>
<g>
</g>
<g>
</g>
<g>
</g>
<g>
</g>
<g>
</g>
<g>
</g>
<g>
</g>
<g>
</g>
<g>
</g>
</svg>
