<?xml version="1.0" encoding="iso-8859-1"?>
<!-- Generator: Adobe Illustrator 16.0.0, SVG Export Plug-In . SVG Version: 6.00 Build 0)  -->
<!DOCTYPE svg PUBLIC "-//W3C//DTD SVG 1.1//EN" "http://www.w3.org/Graphics/SVG/1.1/DTD/svg11.dtd">
<svg version="1.1" id="Capa_1" xmlns="http://www.w3.org/2000/svg" xmlns:xlink="http://www.w3.org/1999/xlink" x="0px" y="0px"
	 width="27px" height="27px" viewBox="0 0 27 27" style="enable-background:new 0 0 27 27;" xml:space="preserve">
<g>
	<g>
		<path d="M13.5,0C6.056,0,0,6.056,0,13.5C0,20.943,6.056,27,13.5,27C20.943,27,27,20.943,27,13.5C27,6.056,20.943,0,13.5,0z
			 M13.5,26.509c-7.173,0-13.009-5.836-13.009-13.009S6.327,0.491,13.5,0.491S26.509,6.327,26.509,13.5S20.673,26.509,13.5,26.509z"
			/>
		<path d="M13.5,9.573c-2.166,0-3.928,1.762-3.928,3.927s1.762,3.927,3.928,3.927s3.928-1.762,3.928-3.927S15.666,9.573,13.5,9.573z
			 M13.5,15.464c-1.082,0-1.963-0.881-1.963-1.964s0.881-1.964,1.963-1.964s1.963,0.881,1.963,1.964S14.582,15.464,13.5,15.464z"/>
		<path d="M13.5,1.227C6.724,1.227,1.228,6.722,1.228,13.5c0,6.777,5.496,12.273,12.272,12.273c6.777,0,12.271-5.496,12.271-12.273
			C25.771,6.722,20.277,1.227,13.5,1.227z M7.515,14.973c0,0.541-0.442,0.982-0.982,0.982H3.588c-0.539,0-0.981-0.441-0.981-0.982
			v-2.945c0-0.54,0.442-0.982,0.981-0.982h2.945c0.54,0,0.982,0.442,0.982,0.982V14.973z M13.5,18.409
			c-2.711,0-4.909-2.197-4.909-4.909s2.198-4.909,4.909-4.909c2.712,0,4.909,2.197,4.909,4.909S16.212,18.409,13.5,18.409z"/>
	</g>
</g>
<g>
</g>
<g>
</g>
<g>
</g>
<g>
</g>
<g>
</g>
<g>
</g>
<g>
</g>
<g>
</g>
<g>
</g>
<g>
</g>
<g>
</g>
<g>
</g>
<g>
</g>
<g>
</g>
<g>
</g>
</svg>
