<?xml version="1.0" encoding="iso-8859-1"?>
<!-- Generator: Adobe Illustrator 16.0.0, SVG Export Plug-In . SVG Version: 6.00 Build 0)  -->
<!DOCTYPE svg PUBLIC "-//W3C//DTD SVG 1.1//EN" "http://www.w3.org/Graphics/SVG/1.1/DTD/svg11.dtd">
<svg version="1.1" id="Capa_1" xmlns="http://www.w3.org/2000/svg" xmlns:xlink="http://www.w3.org/1999/xlink" x="0px" y="0px"
	 width="27.661px" height="27.661px" viewBox="0 0 27.661 27.661" style="enable-background:new 0 0 27.661 27.661;"
	 xml:space="preserve">
<g>
	<g>
		<path d="M23.052,0H4.611c-1.13,0-2.05,0.919-2.05,2.049v8.196c0,0.634,0.098,1.614,0.221,2.23l2.672,13.359
			c0.207,1.025,1.186,1.827,2.23,1.827h12.294c1.044,0,2.022-0.802,2.229-1.828l2.672-13.357c0.123-0.617,0.221-1.597,0.221-2.231
			V2.049C25.101,0.92,24.182,0,23.052,0z M23.052,10.246c0,0.494-0.085,1.348-0.183,1.828L20.2,25.432
			c-0.016,0.074-0.146,0.182-0.222,0.182H7.685c-0.076,0-0.207-0.107-0.221-0.182L4.792,12.073
			c-0.096-0.479-0.181-1.333-0.181-1.827V2.05h18.44L23.052,10.246L23.052,10.246z"/>
		<polygon points="19.323,24.588 22.027,11.067 22.027,7.172 5.636,11.067 8.34,24.588 		"/>
	</g>
</g>
<g>
</g>
<g>
</g>
<g>
</g>
<g>
</g>
<g>
</g>
<g>
</g>
<g>
</g>
<g>
</g>
<g>
</g>
<g>
</g>
<g>
</g>
<g>
</g>
<g>
</g>
<g>
</g>
<g>
</g>
</svg>
