<?xml version="1.0" encoding="iso-8859-1"?>
<!-- Generator: Adobe Illustrator 16.0.0, SVG Export Plug-In . SVG Version: 6.00 Build 0)  -->
<!DOCTYPE svg PUBLIC "-//W3C//DTD SVG 1.1//EN" "http://www.w3.org/Graphics/SVG/1.1/DTD/svg11.dtd">
<svg version="1.1" id="Capa_1" xmlns="http://www.w3.org/2000/svg" xmlns:xlink="http://www.w3.org/1999/xlink" x="0px" y="0px"
	 width="29.138px" height="29.138px" viewBox="0 0 29.138 29.138" style="enable-background:new 0 0 29.138 29.138;"
	 xml:space="preserve">
<g>
	<g>
		<path d="M20.773,6.539H5.708c-0.923,0-1.675,0.751-1.675,1.674v6.696c0,0.518,0.08,1.319,0.181,1.822l2.183,10.914
			c0.169,0.837,0.969,1.493,1.822,1.493h10.044c0.853,0,1.652-0.655,1.82-1.493l2.184-10.913c0.102-0.504,0.181-1.305,0.181-1.823
			V8.213C22.447,7.29,21.696,6.539,20.773,6.539z M20.773,14.909c0,0.403-0.069,1.101-0.148,1.493l-2.182,10.913
			c-0.014,0.062-0.119,0.149-0.182,0.149H8.218c-0.063,0-0.169-0.087-0.181-0.148L5.854,16.4c-0.078-0.391-0.147-1.089-0.147-1.492
			V8.213h15.065L20.773,14.909L20.773,14.909z"/>
		<path d="M19.822,0.04c-0.427-0.136-0.883,0.089-1.037,0.507l-1.936,5.231h1.783l1.444-3.902l4.522,1.433l0.506-1.596L19.822,0.04z
			"/>
		<path d="M17.726,26.627l2.21-11.048v-3.181H6.545v3.181l2.209,11.048H17.726z M16.585,23.788l-1.312,0.48
			c-0.432,0.158-0.915-0.066-1.073-0.499l-0.479-1.309c-0.159-0.435,0.065-0.916,0.498-1.074l1.31-0.479
			c0.433-0.157,0.916,0.067,1.073,0.499l0.479,1.311C17.242,23.147,17.015,23.632,16.585,23.788z M16.241,13.594l1.354-0.333
			c0.445-0.11,0.901,0.167,1.013,0.613l0.332,1.354c0.108,0.448-0.166,0.903-0.613,1.013l-1.354,0.333
			c-0.447,0.11-0.901-0.166-1.012-0.612l-0.334-1.354C15.517,14.159,15.794,13.703,16.241,13.594z M13.123,16.814l1.354-0.332
			c0.447-0.109,0.903,0.167,1.013,0.613l0.333,1.354c0.108,0.448-0.167,0.903-0.614,1.014l-1.354,0.333
			c-0.448,0.109-0.902-0.166-1.013-0.613l-0.333-1.354C12.4,17.381,12.676,16.925,13.123,16.814z M12.459,20.641l0.027,1.394
			c0.008,0.461-0.362,0.845-0.822,0.854l-1.394,0.025c-0.462,0.01-0.845-0.36-0.854-0.82L9.39,20.697
			c-0.009-0.46,0.361-0.844,0.821-0.853l1.395-0.026C12.066,19.811,12.451,20.181,12.459,20.641z M8.139,15.585l0.645-1.237
			c0.213-0.408,0.722-0.568,1.13-0.355l1.236,0.646c0.409,0.212,0.568,0.721,0.355,1.129l-0.645,1.237
			c-0.214,0.407-0.722,0.567-1.13,0.354l-1.236-0.645C8.086,16.502,7.926,15.992,8.139,15.585z"/>
	</g>
</g>
<g>
</g>
<g>
</g>
<g>
</g>
<g>
</g>
<g>
</g>
<g>
</g>
<g>
</g>
<g>
</g>
<g>
</g>
<g>
</g>
<g>
</g>
<g>
</g>
<g>
</g>
<g>
</g>
<g>
</g>
</svg>
