<?xml version="1.0" encoding="iso-8859-1"?>
<!-- Generator: Adobe Illustrator 16.0.0, SVG Export Plug-In . SVG Version: 6.00 Build 0)  -->
<!DOCTYPE svg PUBLIC "-//W3C//DTD SVG 1.1//EN" "http://www.w3.org/Graphics/SVG/1.1/DTD/svg11.dtd">
<svg version="1.1" id="Capa_1" xmlns="http://www.w3.org/2000/svg" xmlns:xlink="http://www.w3.org/1999/xlink" x="0px" y="0px"
	 width="25px" height="25px" viewBox="0 0 25 25" style="enable-background:new 0 0 25 25;" xml:space="preserve">
<g>
	<g>
		<path d="M1.716,6.029l9.07,5.442c0.943,0.566,2.487,0.566,3.43,0l9.07-5.442C24.229,5.463,24.102,5,23.001,5h-21
			C0.901,5,0.773,5.463,1.716,6.029z"/>
		<path d="M24.73,6.018c-0.162,0.281-0.445,0.577-0.931,0.868l-8.575,5.146l6.176,3.41c0.242,0.133,0.33,0.438,0.195,0.679
			c-0.091,0.165-0.262,0.258-0.438,0.258c-0.082,0-0.165-0.021-0.241-0.063l-6.742-3.723c-0.503,0.194-1.077,0.303-1.674,0.303
			c-0.596,0-1.171-0.108-1.674-0.303l-6.742,3.723c-0.077,0.043-0.16,0.063-0.241,0.063c-0.176,0-0.347-0.093-0.438-0.258
			c-0.134-0.242-0.046-0.546,0.196-0.679l6.174-3.41L1.201,6.886C0.716,6.595,0.433,6.299,0.27,6.018C0.103,6.31,0,6.642,0,7v11
			c0,1.1,0.9,2,2,2h21c1.1,0,2-0.9,2-2V7C25.001,6.642,24.898,6.31,24.73,6.018z"/>
	</g>
</g>
<g>
</g>
<g>
</g>
<g>
</g>
<g>
</g>
<g>
</g>
<g>
</g>
<g>
</g>
<g>
</g>
<g>
</g>
<g>
</g>
<g>
</g>
<g>
</g>
<g>
</g>
<g>
</g>
<g>
</g>
</svg>
