<?xml version="1.0" encoding="iso-8859-1"?>
<!-- Generator: Adobe Illustrator 16.0.0, SVG Export Plug-In . SVG Version: 6.00 Build 0)  -->
<!DOCTYPE svg PUBLIC "-//W3C//DTD SVG 1.1//EN" "http://www.w3.org/Graphics/SVG/1.1/DTD/svg11.dtd">
<svg version="1.1" id="Capa_1" xmlns="http://www.w3.org/2000/svg" xmlns:xlink="http://www.w3.org/1999/xlink" x="0px" y="0px"
	 width="26px" height="26px" viewBox="0 0 26 26" style="enable-background:new 0 0 26 26;" xml:space="preserve">
<g>
	<path d="M25.984,8.88c-0.008-0.066-0.02-0.131-0.051-0.188c-0.018-0.028-0.047-0.046-0.07-0.071
		c-0.034-0.038-0.062-0.082-0.106-0.109L14.973,2.041c-1.065-0.641-2.88-0.641-3.945,0L0.243,8.511
		C0.198,8.539,0.171,8.583,0.137,8.621c-0.022,0.024-0.053,0.043-0.07,0.071C0.035,8.75,0.025,8.814,0.016,8.88
		C0.014,8.901,0,8.918,0,8.94v13c0,1.378,1.122,2.5,2.5,2.5h21c1.378,0,2.5-1.122,2.5-2.5v-13C26,8.918,25.986,8.901,25.984,8.88z
		 M25,21.053l-9.316-5.64L25,9.824V21.053z M10.316,15.414L1,21.053V9.824L10.316,15.414z M11.542,2.897
		c0.748-0.448,2.167-0.448,2.915,0L24.52,8.935l-3.812,2.237c-0.152-0.436-0.443-0.823-0.872-1.07l-7.795-4.5
		c-0.953-0.55-2.182-0.221-2.732,0.732l-3.102,5.374L1.48,8.936L11.542,2.897z M23.5,23.44h-21c-0.736,0-1.347-0.533-1.473-1.233
		l10.286-6.228c0.161,0.073,0.331,0.136,0.511,0.185l0.923,0.542c0.078,0.046,0.166,0.068,0.253,0.068s0.175-0.022,0.253-0.068
		l0.923-0.542c0.18-0.049,0.35-0.111,0.512-0.185l10.285,6.228C24.848,22.907,24.236,23.44,23.5,23.44z"/>
</g>
<g>
</g>
<g>
</g>
<g>
</g>
<g>
</g>
<g>
</g>
<g>
</g>
<g>
</g>
<g>
</g>
<g>
</g>
<g>
</g>
<g>
</g>
<g>
</g>
<g>
</g>
<g>
</g>
<g>
</g>
</svg>
