<?xml version="1.0" encoding="iso-8859-1"?>
<!-- Generator: Adobe Illustrator 16.0.0, SVG Export Plug-In . SVG Version: 6.00 Build 0)  -->
<!DOCTYPE svg PUBLIC "-//W3C//DTD SVG 1.1//EN" "http://www.w3.org/Graphics/SVG/1.1/DTD/svg11.dtd">
<svg version="1.1" id="Capa_1" xmlns="http://www.w3.org/2000/svg" xmlns:xlink="http://www.w3.org/1999/xlink" x="0px" y="0px"
	 width="29.811px" height="29.811px" viewBox="0 0 29.811 29.811" style="enable-background:new 0 0 29.811 29.811;"
	 xml:space="preserve">
<g>
	<g>
		<path d="M28.905,21.905h-28c-0.399,0-0.716-0.239-0.842-0.578L0.006,21.91c-0.055,0.547,0.35,0.995,0.9,0.995h28
			c0.55,0,0.955-0.448,0.9-0.995l-0.059-0.583C29.621,21.666,29.305,21.905,28.905,21.905z"/>
		<path d="M28.905,19.905h-28c-0.399,0-0.716-0.239-0.842-0.578L0.006,19.91c-0.055,0.547,0.35,0.995,0.9,0.995h28
			c0.55,0,0.955-0.448,0.9-0.995l-0.059-0.583C29.621,19.666,29.305,19.905,28.905,19.905z"/>
		<path d="M28.905,17.905h-28c-0.399,0-0.716-0.239-0.842-0.578L0.006,17.91c-0.055,0.547,0.35,0.995,0.9,0.995h28
			c0.55,0,0.955-0.448,0.9-0.995l-0.059-0.583C29.621,17.666,29.305,17.905,28.905,17.905z"/>
		<path d="M0.906,16.905h28c0.55,0,0.955-0.448,0.9-0.995L29.005,7.9c-0.055-0.547-0.55-0.995-1.1-0.995h-26
			c-0.55,0-1.045,0.448-1.1,0.995l-0.801,8.01C-0.049,16.457,0.356,16.905,0.906,16.905z M1.304,7.95
			c0.029-0.291,0.31-0.545,0.602-0.545h26c0.292,0,0.573,0.254,0.603,0.545l0.801,8.01c0.012,0.122-0.022,0.235-0.097,0.317
			c-0.075,0.082-0.184,0.128-0.307,0.128h-28c-0.123,0-0.231-0.045-0.306-0.128c-0.075-0.083-0.109-0.195-0.097-0.317L1.304,7.95z"
			/>
		<path d="M28.01,8c-0.003-0.035-0.069-0.095-0.104-0.095h-26c-0.035,0-0.101,0.06-0.104,0.094l-0.791,7.906h27.827L28.01,8z
			 M17.792,10.27c-0.438-0.225-0.935-0.337-1.488-0.337c-0.431,0-0.809,0.091-1.134,0.272c-0.326,0.181-0.558,0.422-0.694,0.723
			h2.496v0.716H14.3c-0.016,0.15-0.023,0.255-0.023,0.313c0,0.069,0.004,0.145,0.012,0.226h2.684v0.727h-2.508
			c0.293,0.643,0.877,0.965,1.752,0.965c0.551,0,1.076-0.115,1.576-0.344v0.941c-0.462,0.184-1.063,0.276-1.806,0.276
			c-0.879,0-1.596-0.159-2.149-0.477c-0.554-0.318-0.922-0.771-1.102-1.361h-0.715v-0.727h0.563
			c-0.008-0.064-0.012-0.139-0.012-0.226c0-0.046,0.008-0.15,0.023-0.313h-0.574v-0.716h0.744c0.215-0.589,0.621-1.047,1.219-1.374
			c0.598-0.326,1.341-0.49,2.232-0.49c0.651,0,1.178,0.07,1.576,0.211V10.27z"/>
	</g>
</g>
<g>
</g>
<g>
</g>
<g>
</g>
<g>
</g>
<g>
</g>
<g>
</g>
<g>
</g>
<g>
</g>
<g>
</g>
<g>
</g>
<g>
</g>
<g>
</g>
<g>
</g>
<g>
</g>
<g>
</g>
</svg>
