<?xml version="1.0" encoding="iso-8859-1"?>
<!-- Generator: Adobe Illustrator 16.0.0, SVG Export Plug-In . SVG Version: 6.00 Build 0)  -->
<!DOCTYPE svg PUBLIC "-//W3C//DTD SVG 1.1//EN" "http://www.w3.org/Graphics/SVG/1.1/DTD/svg11.dtd">
<svg version="1.1" id="Capa_1" xmlns="http://www.w3.org/2000/svg" xmlns:xlink="http://www.w3.org/1999/xlink" x="0px" y="0px"
	 width="35.694px" height="35.694px" viewBox="0 0 35.694 35.694" style="enable-background:new 0 0 35.694 35.694;"
	 xml:space="preserve">
<g>
	<g>
		<path d="M22.659,18.131c-0.069-0.168-0.146-0.33-0.228-0.475l-2.643-7.93c0-0.002-0.004-0.003-0.005-0.005
			c-0.106-0.594-1.049-0.871-1.938-0.871s-1.831,0.277-1.938,0.871c-0.001,0.002-0.003,0.003-0.004,0.005l-2.678,8.032
			c-0.06,0.116-0.117,0.236-0.171,0.363c-1.438,0.555-2.339,1.355-2.339,2.268v1.959c0,1.709,3.132,3.048,7.13,3.048
			c3.998,0,7.13-1.339,7.13-3.048v-1.959C24.977,19.482,24.085,18.686,22.659,18.131z M16.342,10.48
			c0.383,0.221,0.953,0.33,1.504,0.33c0.55,0,1.123-0.109,1.505-0.33l0.599,1.796c-0.345,0.438-1.224,0.665-2.104,0.665
			c-0.879,0-1.759-0.228-2.103-0.665L16.342,10.48z M14.922,14.739c0.44,0.637,1.682,0.969,2.925,0.969
			c1.245,0,2.485-0.332,2.926-0.969l1,3.008c-0.008,0.026-0.014,0.053-0.024,0.079c-0.041,0.102-0.099,0.197-0.168,0.289
			c-0.008,0.01-0.017,0.021-0.026,0.031c-0.067,0.085-0.145,0.166-0.234,0.243c-0.705,0.588-2.037,0.896-3.373,0.91H17.76
			c-1.338-0.015-2.672-0.323-3.375-0.912c-0.091-0.076-0.169-0.159-0.237-0.245c-0.009-0.012-0.018-0.021-0.026-0.032
			c-0.068-0.09-0.125-0.187-0.166-0.287c-0.013-0.029-0.021-0.062-0.031-0.093L14.922,14.739z M17.847,22.784
			c-3.817,0-6.477-1.263-6.477-2.396c0-0.491,0.511-1.005,1.39-1.431c-0.084,0.295-0.137,0.548-0.137,0.668
			c0,0.016,0.004,0.027,0.005,0.04c0,0.005,0,0.01,0,0.016c0.063,1.273,2.283,2.229,5.219,2.229c2.879,0,5.067-0.917,5.211-2.155
			c0.017-0.04,0.026-0.083,0.026-0.129c0-0.022-0.015-0.041-0.021-0.062c-0.008-0.138-0.051-0.349-0.119-0.6
			c0.873,0.426,1.379,0.937,1.379,1.425C24.325,21.521,21.664,22.784,17.847,22.784z"/>
		<path d="M34.818,15.712l-14.85-14.85c-1.131-1.131-3.112-1.131-4.243,0l-14.85,14.85C0.311,16.276,0,17.03,0,17.833
			s0.312,1.558,0.876,2.121l14.85,14.851c0.565,0.564,1.318,0.876,2.121,0.876s1.556-0.312,2.122-0.876l14.85-14.851
			c0.564-0.563,0.876-1.318,0.876-2.121S35.383,16.276,34.818,15.712z M33.404,18.54l-14.85,14.851
			c-0.375,0.373-1.041,0.373-1.415,0L2.29,18.54C2.103,18.354,2,18.103,2,17.833c0-0.269,0.103-0.52,0.291-0.707l14.85-14.85
			c0.187-0.187,0.438-0.29,0.707-0.29s0.52,0.104,0.707,0.29l14.851,14.85c0.188,0.188,0.291,0.438,0.291,0.707
			C33.696,18.103,33.592,18.354,33.404,18.54z"/>
	</g>
</g>
<g>
</g>
<g>
</g>
<g>
</g>
<g>
</g>
<g>
</g>
<g>
</g>
<g>
</g>
<g>
</g>
<g>
</g>
<g>
</g>
<g>
</g>
<g>
</g>
<g>
</g>
<g>
</g>
<g>
</g>
</svg>
