<?xml version="1.0" standalone="no"?>
<!DOCTYPE svg PUBLIC "-//W3C//DTD SVG 20010904//EN"
 "http://www.w3.org/TR/2001/REC-SVG-20010904/DTD/svg10.dtd">
<svg version="1.0" xmlns="http://www.w3.org/2000/svg"
 width="280.000000pt" height="280.000000pt" viewBox="0 0 280.000000 280.000000"
 preserveAspectRatio="xMidYMid meet">

<g transform="translate(0.000000,280.000000) scale(0.100000,-0.100000)"
fill="#000000" stroke="none">
<path d="M1447 2491 c-21 -16 -50 -45 -65 -64 -40 -52 -56 -58 -165 -68 -61
-5 -110 -15 -126 -25 -14 -9 -58 -49 -96 -89 -77 -79 -113 -94 -172 -69 -27
11 -33 18 -33 44 0 17 7 45 16 61 20 40 12 47 -31 26 -124 -59 -189 -191 -151
-307 17 -51 16 -53 -6 -98 -34 -71 -31 -150 9 -229 l32 -63 -19 -44 c-55 -128
-64 -182 -64 -366 -1 -153 2 -186 23 -260 59 -216 166 -367 341 -483 120 -80
288 -112 431 -84 232 46 402 155 548 352 78 104 79 105 106 105 95 0 199 120
199 230 -1 26 -9 62 -21 85 l-21 40 27 55 c68 137 105 268 116 406 9 119 -6
199 -58 298 -54 105 -107 170 -172 211 -42 27 -63 51 -100 113 -26 43 -59 86
-74 95 -14 8 -64 22 -110 31 -71 14 -89 22 -127 55 -90 79 -169 93 -237 42z
m128 -30 c22 -10 56 -33 75 -50 24 -21 68 -41 135 -62 123 -39 146 -55 200
-138 24 -36 66 -86 94 -110 82 -68 152 -192 172 -305 15 -81 2 -222 -32 -333
-20 -65 -39 -95 -39 -60 0 39 -66 145 -127 205 l-67 64 37 31 c81 69 97 135
52 212 -45 78 -122 94 -243 50 -105 -38 -110 -36 -181 50 -63 77 -111 115
-145 115 -11 0 -61 -22 -113 -50 -51 -27 -102 -50 -112 -50 -11 0 -39 11 -62
25 -87 49 -135 31 -249 -95 -82 -91 -111 -110 -171 -110 -35 0 -47 6 -75 36
-70 73 -83 215 -28 297 l27 42 10 -30 c14 -43 35 -64 78 -76 65 -20 104 -5
183 70 138 130 161 140 257 112 39 -11 72 -15 85 -11 11 5 44 40 73 79 53 72
94 111 115 111 6 0 29 -9 51 -19z m-370 -446 c63 -31 102 -31 189 -1 101 36
144 24 242 -64 60 -55 73 -58 161 -35 129 34 201 13 224 -64 15 -50 -7 -99
-62 -135 -21 -15 -39 -32 -39 -39 0 -7 27 -32 59 -55 96 -68 170 -175 171
-247 0 -26 -6 -20 -44 46 -55 93 -143 189 -174 189 -12 0 -22 -3 -22 -7 0 -4
35 -43 78 -87 79 -82 156 -201 150 -233 -2 -11 -17 7 -43 51 -40 69 -134 166
-161 166 -27 0 -14 -28 30 -64 24 -19 70 -74 102 -122 l59 -85 -25 -19 -25
-19 22 -23 c35 -37 56 -96 48 -137 -15 -83 -95 -151 -177 -151 -31 0 -40 -5
-59 -37 -62 -104 -199 -251 -293 -314 -116 -78 -311 -127 -429 -108 -167 27
-359 185 -455 375 -139 276 -130 598 24 893 57 110 60 113 118 135 30 12 63
35 90 64 149 166 155 170 241 127z m-472 -179 c15 -11 27 -24 27 -28 0 -22
-75 -137 -83 -129 -5 5 -15 32 -23 60 -13 53 -6 108 18 122 13 8 18 6 61 -25z"/>
<path d="M915 1798 c-24 -13 -75 -59 -75 -68 0 -11 130 35 130 46 0 11 -20 34
-29 34 -4 0 -15 -6 -26 -12z"/>
<path d="M1500 1792 l-23 -18 55 -31 c30 -17 67 -45 81 -62 36 -43 51 -40 32
7 -17 40 -91 122 -111 122 -6 0 -22 -8 -34 -18z"/>
<path d="M853 1554 c-25 -38 -23 -118 3 -144 25 -25 49 -18 69 21 45 86 -21
200 -72 123z"/>
<path d="M1147 1492 c-21 -37 -65 -99 -98 -137 -32 -39 -59 -79 -59 -90 0 -12
15 -45 33 -75 27 -46 37 -55 65 -58 45 -5 49 16 12 75 l-31 50 70 136 c39 75
71 143 71 152 0 34 -27 11 -63 -53z"/>
<path d="M1453 1539 c-91 -17 -104 -50 -24 -63 22 -3 70 -26 106 -51 37 -25
71 -42 76 -39 5 3 9 23 9 44 0 77 -74 125 -167 109z"/>
<path d="M1920 1371 c0 -10 12 -27 28 -37 15 -9 44 -36 64 -58 20 -23 37 -35
38 -27 0 27 -50 99 -84 120 -41 26 -46 26 -46 2z"/>
<path d="M1915 1270 c-7 -12 56 -91 67 -84 16 10 8 42 -17 68 -26 28 -40 32
-50 16z"/>
<path d="M1416 1103 c8 -49 0 -56 -96 -83 -155 -43 -229 -51 -332 -35 -149 23
-168 31 -168 65 0 40 -12 38 -49 -7 -38 -46 -38 -60 -3 -123 27 -50 42 -62 42
-36 0 28 21 27 68 -3 143 -91 248 -111 371 -68 40 14 114 49 164 78 85 49 91
51 103 34 8 -11 14 -32 14 -49 0 -44 14 -21 35 57 20 78 22 74 -69 146 -88 69
-88 69 -80 24z m58 -99 c26 -26 6 -43 -115 -98 l-114 -51 -130 0 -130 0 -87
44 c-62 31 -88 49 -88 62 0 10 4 20 9 23 5 3 51 -4 102 -15 131 -29 268 -23
399 19 112 35 133 37 154 16z"/>
<path d="M1035 741 l-30 -7 35 -22 c59 -37 151 -21 134 23 -7 16 -81 19 -139
6z"/>
</g>
</svg>
