<?xml version="1.0" encoding="iso-8859-1"?>
<!-- Generator: Adobe Illustrator 16.0.0, SVG Export Plug-In . SVG Version: 6.00 Build 0)  -->
<!DOCTYPE svg PUBLIC "-//W3C//DTD SVG 1.1//EN" "http://www.w3.org/Graphics/SVG/1.1/DTD/svg11.dtd">
<svg version="1.1" id="Capa_1" xmlns="http://www.w3.org/2000/svg" xmlns:xlink="http://www.w3.org/1999/xlink" x="0px" y="0px"
	 width="27.629px" height="27.629px" viewBox="0 0 27.629 27.629" style="enable-background:new 0 0 27.629 27.629;"
	 xml:space="preserve">
<g>
	<g>
		<rect x="13.413" y="15.404" width="9.356" height="5.738"/>
		<path d="M13.413,25.29c0,1.286,1.054,2.339,2.34,2.339h4.678c1.286,0,2.339-1.053,2.339-2.339v-2.869h-9.356L13.413,25.29
			L13.413,25.29z"/>
		<path d="M26.643,3.654c0,0-0.95-2.193-2.339-2.339c-0.954-0.101-3.524,0.487-5.044,0.866V0.73h-2.339v2.612L9.318,1.315v4.678
			l7.603-2.027v1.608c-2.015,0.521-3.509,2.336-3.509,4.513v4.038h9.356v-4.038c0-2.177-1.495-3.991-3.509-4.513V5.159
			c2.122,0.591,6.378,1.677,6.213,0.834c-0.219-1.12-6.213-2.339-6.213-2.339s3.996-0.975,5.044-1.17
			C25.351,2.289,26.643,3.654,26.643,3.654z M18.091,4.403c-0.414,0-0.749-0.336-0.749-0.749s0.335-0.749,0.749-0.749
			c0.413,0,0.749,0.336,0.749,0.749S18.504,4.403,18.091,4.403z"/>
		<path d="M1.094,0.287L1.66,0.438c0.013,0.003,0.025,0.004,0.038,0.004c0.064,0,0.123-0.043,0.142-0.108
			C1.86,0.257,1.813,0.177,1.735,0.155L1.17,0.004C1.094-0.014,1.014,0.03,0.991,0.108C0.97,0.185,1.018,0.265,1.094,0.287z"/>
		<path d="M6.914,1.535L5.62,1.19c-0.077-0.02-0.158,0.026-0.18,0.104C5.418,1.371,5.465,1.451,5.543,1.473l1.294,0.346
			c0.013,0.003,0.025,0.004,0.038,0.004c0.065,0,0.123-0.043,0.142-0.108C7.038,1.637,6.99,1.557,6.914,1.535z"/>
		<path d="M2.955,0.783l1.294,0.345c0.013,0.003,0.025,0.005,0.038,0.005c0.064,0,0.123-0.044,0.142-0.108
			c0.021-0.078-0.026-0.158-0.104-0.18L3.03,0.5C2.956,0.479,2.874,0.526,2.852,0.604C2.831,0.681,2.877,0.761,2.955,0.783z"/>
		<path d="M8.13,2.164l0.565,0.15C8.708,2.318,8.72,2.319,8.733,2.319c0.065,0,0.123-0.044,0.142-0.108
			c0.021-0.078-0.026-0.158-0.104-0.18l-0.565-0.15C8.128,1.86,8.048,1.907,8.026,1.985C8.006,2.062,8.053,2.142,8.13,2.164z"/>
		<path d="M1.661,6.87L1.095,7.021C1.019,7.042,0.972,7.123,0.991,7.2c0.018,0.065,0.076,0.108,0.142,0.108
			c0.013,0,0.025-0.001,0.037-0.004l0.565-0.151C1.813,7.132,1.86,7.051,1.839,6.974C1.817,6.896,1.738,6.848,1.661,6.87z"/>
		<path d="M6.836,5.489L5.542,5.835C5.465,5.856,5.418,5.937,5.438,6.014c0.019,0.065,0.076,0.108,0.142,0.108
			c0.013,0,0.025-0.001,0.038-0.004l1.294-0.346C6.989,5.751,7.037,5.67,7.017,5.593C6.995,5.515,6.914,5.468,6.836,5.489z"/>
		<path d="M4.249,6.18L2.955,6.525c-0.077,0.021-0.124,0.102-0.104,0.18c0.018,0.064,0.076,0.108,0.142,0.108
			c0.013,0,0.024-0.001,0.037-0.005l1.294-0.345c0.078-0.021,0.125-0.102,0.104-0.18C4.406,6.207,4.326,6.156,4.249,6.18z"/>
		<path d="M8.696,4.994l-0.565,0.15c-0.077,0.021-0.124,0.102-0.104,0.18c0.019,0.064,0.076,0.108,0.142,0.108
			c0.013,0,0.025-0.001,0.038-0.005l0.565-0.15c0.077-0.021,0.124-0.102,0.104-0.18C8.854,5.02,8.773,4.97,8.696,4.994z"/>
		<path d="M8.734,3.507H8.149c-0.081,0-0.146,0.065-0.146,0.146s0.064,0.146,0.146,0.146h0.585c0.081,0,0.146-0.065,0.146-0.146
			S8.815,3.507,8.734,3.507z"/>
		<path d="M4.291,3.507H3.004c-0.081,0-0.146,0.065-0.146,0.146s0.065,0.146,0.146,0.146H4.29c0.081,0,0.146-0.065,0.146-0.146
			S4.372,3.507,4.291,3.507z"/>
		<path d="M5.579,3.8h1.285c0.081,0,0.146-0.065,0.146-0.146S6.944,3.508,6.863,3.508H5.579c-0.082,0-0.146,0.065-0.146,0.146
			S5.497,3.8,5.579,3.8z"/>
		<path d="M1.717,3.507H1.132c-0.081,0-0.146,0.065-0.146,0.146s0.065,0.146,0.146,0.146h0.585c0.081,0,0.146-0.065,0.146-0.146
			S1.798,3.507,1.717,3.507z"/>
	</g>
</g>
<g>
</g>
<g>
</g>
<g>
</g>
<g>
</g>
<g>
</g>
<g>
</g>
<g>
</g>
<g>
</g>
<g>
</g>
<g>
</g>
<g>
</g>
<g>
</g>
<g>
</g>
<g>
</g>
<g>
</g>
</svg>
