<?xml version="1.0" encoding="iso-8859-1"?>
<!-- Generator: Adobe Illustrator 16.0.0, SVG Export Plug-In . SVG Version: 6.00 Build 0)  -->
<!DOCTYPE svg PUBLIC "-//W3C//DTD SVG 1.1//EN" "http://www.w3.org/Graphics/SVG/1.1/DTD/svg11.dtd">
<svg version="1.1" id="Capa_1" xmlns="http://www.w3.org/2000/svg" xmlns:xlink="http://www.w3.org/1999/xlink" x="0px" y="0px"
	 width="30px" height="30px" viewBox="0 0 30 30" style="enable-background:new 0 0 30 30;" xml:space="preserve">
<g>
	<path d="M14.99,22.266c0.465,0.568,0.812,1.112,0.831,1.342c0,0.447-0.384,0.834-0.832,0.832c-0.224,0.002-0.433-0.086-0.59-0.242
		c-0.157-0.156-0.243-0.366-0.243-0.581C14.176,23.384,14.524,22.837,14.99,22.266z M5.794,14.414
		c-0.156,0.156-0.242,0.365-0.242,0.589c0,0.226,0.086,0.435,0.242,0.59c0.157,0.157,0.366,0.243,0.59,0.243
		c0.227-0.021,0.772-0.367,1.342-0.833c-0.568-0.465-1.115-0.813-1.349-0.832C6.16,14.171,5.951,14.257,5.794,14.414z M10.63,15.003
		l4.359,4.358l4.358-4.358l-4.358-4.359L10.63,15.003z M15.821,6.391c0-0.217-0.086-0.426-0.242-0.582
		c-0.156-0.157-0.366-0.243-0.589-0.243c-0.225,0-0.434,0.086-0.591,0.243c-0.156,0.156-0.243,0.365-0.242,0.589
		c0.02,0.229,0.367,0.773,0.831,1.343C15.454,7.169,15.804,6.622,15.821,6.391z M23.598,14.17c-0.229,0.019-0.772,0.366-1.345,0.833
		c0.567,0.465,1.115,0.812,1.351,0.832c0.435-0.001,0.826-0.387,0.826-0.833c0-0.224-0.088-0.433-0.244-0.59
		C24.027,14.256,23.816,14.169,23.598,14.17z M30,15c0,8.285-6.715,15-15,15S0,23.285,0,15S6.715,0,15,0S30,6.715,30,15z
		 M26.43,15.003c0-0.757-0.296-1.47-0.83-2.005c-0.535-0.535-1.248-0.829-2.004-0.829c-0.923,0.001-2.021,0.774-2.805,1.447
		l-4.415-4.415c0.672-0.782,1.444-1.881,1.447-2.803c0-0.757-0.296-1.47-0.83-2.005c-0.535-0.535-1.247-0.829-2.003-0.829
		c-1.514,0-2.835,1.321-2.833,2.833c0,0.931,0.773,2.027,1.444,2.807l-4.412,4.412c-0.78-0.672-1.875-1.445-2.805-1.446
		c-1.514,0-2.834,1.322-2.834,2.833c0,0.759,0.294,1.47,0.829,2.004c0.535,0.535,1.248,0.83,2.004,0.829
		c0.923,0,2.023-0.773,2.805-1.445l4.414,4.414c-0.671,0.782-1.446,1.881-1.447,2.805c0,0.756,0.295,1.468,0.83,2.002
		c0.535,0.535,1.247,0.83,2.003,0.83c0.757,0.002,1.47-0.293,2.005-0.828c0.534-0.534,0.827-1.248,0.83-2.006
		c-0.003-0.928-0.774-2.023-1.445-2.803l4.412-4.412c0.778,0.672,1.874,1.443,2.806,1.442c0.756,0.001,1.469-0.293,2.004-0.828
		C26.134,16.473,26.43,15.759,26.43,15.003z"/>
</g>
<g>
</g>
<g>
</g>
<g>
</g>
<g>
</g>
<g>
</g>
<g>
</g>
<g>
</g>
<g>
</g>
<g>
</g>
<g>
</g>
<g>
</g>
<g>
</g>
<g>
</g>
<g>
</g>
<g>
</g>
</svg>
