<?xml version="1.0" encoding="iso-8859-1"?>
<!-- Generator: Adobe Illustrator 16.0.0, SVG Export Plug-In . SVG Version: 6.00 Build 0)  -->
<!DOCTYPE svg PUBLIC "-//W3C//DTD SVG 1.1//EN" "http://www.w3.org/Graphics/SVG/1.1/DTD/svg11.dtd">
<svg version="1.1" id="Capa_1" xmlns="http://www.w3.org/2000/svg" xmlns:xlink="http://www.w3.org/1999/xlink" x="0px" y="0px"
	 width="26px" height="26px" viewBox="0 0 26 26" style="enable-background:new 0 0 26 26;" xml:space="preserve">
<g>
	<g>
		<polygon points="26,15.481 26,3.481 14,3.481 14,0.481 8,0.481 8,4.481 8,7.481 20,7.481 20,14.481 20,15.481 20,24.981 
			23.457,24.981 23.457,25.519 25.534,24.481 23.457,23.442 23.457,23.981 21,23.981 21,15.481 		"/>
		<polygon points="6,6.481 0,6.481 0,21.481 14.077,21.481 14.077,23.981 11.619,23.981 11.619,23.442 9.543,24.481 11.619,25.519 
			11.619,24.981 15.077,24.981 15.077,21.481 18,21.481 18,9.481 6,9.481 		"/>
	</g>
</g>
<g>
</g>
<g>
</g>
<g>
</g>
<g>
</g>
<g>
</g>
<g>
</g>
<g>
</g>
<g>
</g>
<g>
</g>
<g>
</g>
<g>
</g>
<g>
</g>
<g>
</g>
<g>
</g>
<g>
</g>
</svg>
