<?xml version="1.0" encoding="iso-8859-1"?>
<!-- Generator: Adobe Illustrator 16.0.0, SVG Export Plug-In . SVG Version: 6.00 Build 0)  -->
<!DOCTYPE svg PUBLIC "-//W3C//DTD SVG 1.1//EN" "http://www.w3.org/Graphics/SVG/1.1/DTD/svg11.dtd">
<svg version="1.1" id="Capa_1" xmlns="http://www.w3.org/2000/svg" xmlns:xlink="http://www.w3.org/1999/xlink" x="0px" y="0px"
	 width="27.938px" height="27.937px" viewBox="0 0 27.938 27.937" style="enable-background:new 0 0 27.938 27.937;"
	 xml:space="preserve">
<g>
	<g>
		<path d="M12.299,13.693c0-0.923,0.75-1.672,1.671-1.672c0.922,0,1.672,0.749,1.672,1.672v1.742h0.984v-1.742
			c0-1.466-1.191-2.657-2.657-2.657c-1.463,0-2.655,1.191-2.655,2.657v1.742h0.984V13.693z"/>
		<path d="M17.172,15.993h-6.401c-0.27,0-0.493,0.224-0.493,0.494v4.922c0,0.271,0.223,0.493,0.493,0.493h6.401
			c0.27,0,0.491-0.223,0.491-0.493v-4.922C17.662,16.216,17.44,15.993,17.172,15.993z"/>
		<path d="M25.643,7.633h-1.166l-2.823-4.891l-8.47,4.891h-3.104c-0.161,0-0.297-0.136-0.297-0.297V6.039
			c0-1.267-1.03-2.297-2.297-2.297H2.297C1.03,3.742,0,4.771,0,6.039v16.86c0,1.267,1.03,2.297,2.297,2.297h23.343
			c1.268,0,2.297-1.03,2.297-2.297V9.93C27.939,8.663,26.908,7.633,25.643,7.633z M25.939,22.899c0,0.161-0.137,0.297-0.297,0.297
			H2.298c-0.161,0-0.297-0.136-0.297-0.297V6.039c0-0.161,0.136-0.297,0.297-0.297h5.188c0.161,0,0.297,0.136,0.297,0.297v1.297
			c0,1.267,1.03,2.297,2.297,2.297h15.562c0.162,0,0.298,0.136,0.298,0.297L25.939,22.899L25.939,22.899z"/>
	</g>
</g>
<g>
</g>
<g>
</g>
<g>
</g>
<g>
</g>
<g>
</g>
<g>
</g>
<g>
</g>
<g>
</g>
<g>
</g>
<g>
</g>
<g>
</g>
<g>
</g>
<g>
</g>
<g>
</g>
<g>
</g>
</svg>
