<?xml version="1.0" encoding="iso-8859-1"?>
<!-- Generator: Adobe Illustrator 16.0.0, SVG Export Plug-In . SVG Version: 6.00 Build 0)  -->
<!DOCTYPE svg PUBLIC "-//W3C//DTD SVG 1.1//EN" "http://www.w3.org/Graphics/SVG/1.1/DTD/svg11.dtd">
<svg version="1.1" id="Capa_1" xmlns="http://www.w3.org/2000/svg" xmlns:xlink="http://www.w3.org/1999/xlink" x="0px" y="0px"
	 width="27.789px" height="27.789px" viewBox="0 0 27.789 27.789" style="enable-background:new 0 0 27.789 27.789;"
	 xml:space="preserve">
<g>
	<path d="M13.895,0.679C6.22,0.679,0,2.235,0,4.153v4.168c0,0.847,1.213,1.622,3.228,2.224l8.235,9.964v6.601h1.674l3.189-1.924
		V20.51l8.234-9.964c2.016-0.602,3.229-1.377,3.229-2.224V4.153C27.79,2.235,21.57,0.679,13.895,0.679z M13.895,2.068
		c6.83,0,11.309,1.248,12.361,2.085c-1.052,0.835-5.531,2.083-12.361,2.083c-6.83,0-11.309-1.248-12.361-2.083
		C2.586,3.316,7.065,2.068,13.895,2.068z"/>
</g>
<g>
</g>
<g>
</g>
<g>
</g>
<g>
</g>
<g>
</g>
<g>
</g>
<g>
</g>
<g>
</g>
<g>
</g>
<g>
</g>
<g>
</g>
<g>
</g>
<g>
</g>
<g>
</g>
<g>
</g>
</svg>
