<?xml version="1.0" encoding="iso-8859-1"?>
<!-- Generator: Adobe Illustrator 16.0.0, SVG Export Plug-In . SVG Version: 6.00 Build 0)  -->
<!DOCTYPE svg PUBLIC "-//W3C//DTD SVG 1.1//EN" "http://www.w3.org/Graphics/SVG/1.1/DTD/svg11.dtd">
<svg version="1.1" id="Capa_1" xmlns="http://www.w3.org/2000/svg" xmlns:xlink="http://www.w3.org/1999/xlink" x="0px" y="0px"
	 width="32.433px" height="32.433px" viewBox="0 0 32.433 32.433" style="enable-background:new 0 0 32.433 32.433;"
	 xml:space="preserve">
<g>
	<path d="M18.431,14.742c0.344-1.283,0.837-2.681,1.521-4.156c0.197,0.098,1.426,0.672,2.486,0.254
		c1.155-0.456,1.658-1.925,1.658-1.925s-1.369-0.729-2.525-0.274c-0.5,0.197-0.871,0.583-1.139,0.959
		c0.758-1.471,1.701-3,2.912-4.558c-0.986,1.024-1.839,2.062-2.577,3.095c0.337-0.674,0.724-1.734,0.474-2.774
		c-0.408-1.706-2.364-2.705-2.364-2.705s-1.292,1.774-0.886,3.483c0.384,1.602,2.108,2.567,2.322,2.681
		c-1.381,2.063-2.32,4.081-2.95,5.906c-0.019,0-0.038,0-0.057,0c-0.586,0-1.157,0.013-1.716,0.032
		c-0.96-2.336-2.215-4.809-3.826-7.323c0.502,0.149,1.199,0.262,1.838,0.009c1.154-0.456,1.659-1.925,1.659-1.925
		s-1.372-0.729-2.528-0.273c-0.731,0.289-1.201,0.982-1.446,1.453C9.797,4.471,8.015,2.216,5.878,0
		c1.288,1.658,2.381,3.293,3.368,4.906C8.924,4.659,8.535,4.445,8.09,4.378C6.833,4.192,5.634,5.234,5.634,5.234
		s0.841,1.347,2.097,1.537C8.666,6.91,9.567,6.372,9.967,6.085c1.779,3.09,3.033,6.043,3.93,8.773
		c-3.554,0.281-6.079,0.982-6.079,1.804l2.914,13.835c0,1.067,2.945,1.936,6.576,1.936s6.575-0.866,6.575-1.936l2.916-13.835
		C26.799,15.673,23.142,14.856,18.431,14.742z M9.166,16.546c0.093-0.037,0.195-0.074,0.311-0.111
		c0.087-0.028,0.183-0.058,0.281-0.086c0.129-0.037,0.27-0.073,0.419-0.11c0.118-0.028,0.239-0.058,0.37-0.086
		c0.165-0.035,0.347-0.07,0.531-0.105c0.146-0.027,0.291-0.054,0.448-0.08c0.204-0.034,0.426-0.065,0.649-0.096
		c0.173-0.023,0.338-0.047,0.521-0.069c0.247-0.03,0.519-0.054,0.788-0.08c0.188-0.018,0.37-0.037,0.568-0.052
		c0.03-0.002,0.065-0.004,0.099-0.006c0.213,0.697,0.403,1.373,0.573,2.033c-3.093-0.182-5.089-0.662-5.839-1.028
		c0.031-0.015,0.051-0.029,0.084-0.043C9.029,16.599,9.095,16.572,9.166,16.546z M15.917,15.576c0.379-0.011,0.766-0.02,1.172-0.022
		c-0.204,0.663-0.364,1.288-0.496,1.878C16.387,16.824,16.16,16.207,15.917,15.576z M18.222,15.568
		c0.268,0.005,0.551,0.005,0.805,0.016c0.188,0.007,0.357,0.019,0.541,0.028c0.34,0.017,0.681,0.035,0.994,0.059
		c0.2,0.015,0.383,0.035,0.571,0.052c0.269,0.025,0.538,0.05,0.783,0.08c0.185,0.022,0.354,0.046,0.526,0.07
		c0.221,0.03,0.441,0.061,0.643,0.094c0.16,0.026,0.311,0.055,0.456,0.082c0.183,0.034,0.36,0.068,0.524,0.104
		c0.133,0.029,0.258,0.059,0.375,0.088c0.146,0.037,0.287,0.072,0.412,0.108c0.102,0.029,0.2,0.06,0.289,0.087
		c0.113,0.037,0.215,0.073,0.307,0.109c0.07,0.027,0.14,0.055,0.197,0.081c0.034,0.015,0.055,0.028,0.084,0.043
		c-0.906,0.444-3.617,1.052-7.902,1.1C17.914,17.092,18.041,16.359,18.222,15.568z M8.84,17.533
		c1.219,0.492,3.428,0.861,6.097,1.002c1.053,4.507,1.12,8.063,1.022,10.067c-2.025,0.124-3.69,0.526-4.563,1.062L8.84,17.533z
		 M23.219,29.664c-0.853-0.521-2.461-0.914-4.421-1.047c-0.074-1.629-0.333-4.271-1.133-7.521c-0.026-0.608-0.023-1.458,0.07-2.501
		c3.521-0.033,6.535-0.454,8.041-1.061L23.219,29.664z"/>
</g>
<g>
</g>
<g>
</g>
<g>
</g>
<g>
</g>
<g>
</g>
<g>
</g>
<g>
</g>
<g>
</g>
<g>
</g>
<g>
</g>
<g>
</g>
<g>
</g>
<g>
</g>
<g>
</g>
<g>
</g>
</svg>
