<?xml version="1.0" encoding="iso-8859-1"?>
<!-- Generator: Adobe Illustrator 16.0.0, SVG Export Plug-In . SVG Version: 6.00 Build 0)  -->
<!DOCTYPE svg PUBLIC "-//W3C//DTD SVG 1.1//EN" "http://www.w3.org/Graphics/SVG/1.1/DTD/svg11.dtd">
<svg version="1.1" id="Capa_1" xmlns="http://www.w3.org/2000/svg" xmlns:xlink="http://www.w3.org/1999/xlink" x="0px" y="0px"
	 width="28.37px" height="28.371px" viewBox="0 0 28.37 28.371" style="enable-background:new 0 0 28.37 28.371;"
	 xml:space="preserve">
<g>
	<path d="M28.036,17.894l-1.772-1.354c1.117-1.15,1.812-2.716,1.812-4.442c0-2.321-3.442-3.146-6.391-3.146
		c-2.553,0-5.469,0.622-6.206,2.296h-2.589c-0.738-1.674-3.653-2.296-6.207-2.296c-2.948,0-6.39,0.824-6.39,3.146
		c0,1.727,0.695,3.292,1.813,4.442l-1.773,1.354c-0.373,0.283-0.444,0.816-0.16,1.19c0.167,0.22,0.42,0.333,0.676,0.333
		c0.179,0,0.361-0.057,0.514-0.174l2.143-1.635c0.94,0.545,2.016,0.879,3.178,0.879c3.232,0,5.884-2.422,6.304-5.54h2.392
		c0.421,3.118,3.073,5.54,6.305,5.54c1.162,0,2.238-0.334,3.179-0.879l2.143,1.635c0.153,0.117,0.335,0.174,0.514,0.174
		c0.256,0,0.51-0.113,0.677-0.333C28.479,18.71,28.409,18.177,28.036,17.894z M6.684,16.79c-2.587,0-4.691-2.104-4.691-4.691
		c0-0.604,1.785-1.446,4.691-1.446c2.907,0,4.692,0.843,4.692,1.446C11.376,14.685,9.271,16.79,6.684,16.79z M16.994,12.099
		c0-0.604,1.785-1.446,4.69-1.446c2.906,0,4.691,0.843,4.691,1.446c0,2.586-2.104,4.691-4.691,4.691S16.994,14.685,16.994,12.099z"
		/>
</g>
<g>
</g>
<g>
</g>
<g>
</g>
<g>
</g>
<g>
</g>
<g>
</g>
<g>
</g>
<g>
</g>
<g>
</g>
<g>
</g>
<g>
</g>
<g>
</g>
<g>
</g>
<g>
</g>
<g>
</g>
</svg>
