<?xml version="1.0" encoding="iso-8859-1"?>
<!-- Generator: Adobe Illustrator 16.0.0, SVG Export Plug-In . SVG Version: 6.00 Build 0)  -->
<!DOCTYPE svg PUBLIC "-//W3C//DTD SVG 1.1//EN" "http://www.w3.org/Graphics/SVG/1.1/DTD/svg11.dtd">
<svg version="1.1" id="Capa_1" xmlns="http://www.w3.org/2000/svg" xmlns:xlink="http://www.w3.org/1999/xlink" x="0px" y="0px"
	 width="25px" height="25px" viewBox="0 0 25 25" style="enable-background:new 0 0 25 25;" xml:space="preserve">
<g>
	<g>
		<path d="M21.5,0h-18c-0.55,0-1,0.45-1,1v21c0,0.55,0.318,1.318,0.707,1.707l0.586,0.586C4.182,24.682,4.95,25,5.5,25h14
			c0.55,0,1.318-0.318,1.707-0.707l0.586-0.586C22.182,23.318,22.5,22.55,22.5,22V1C22.5,0.45,22.05,0,21.5,0z M4.313,1
			c0.449,0,0.813,0.364,0.813,0.813c0,0.449-0.364,0.813-0.813,0.813S3.5,2.261,3.5,1.813S3.864,1,4.313,1z M3.5,14.812
			C3.5,14.364,3.864,14,4.313,14s0.813,0.364,0.813,0.812c0,0.449-0.364,0.813-0.813,0.813S3.5,15.261,3.5,14.812z M5.125,23.812
			c-0.449,0-0.813-0.363-0.813-0.812s0.364-0.812,0.813-0.812S5.938,22.551,5.938,23S5.574,23.812,5.125,23.812z M14,21.327h-3H6.5
			c-0.55,0-1-0.45-1-1v-2c0-0.55,0.45-1,1-1h3v-1.183c-2.363-1.125-4-3.527-4-6.317c0-3.866,3.134-7,7-7s7,3.134,7,7
			c0,2.791-1.637,5.192-4,6.317v1.183h3c0.55,0,1,0.45,1,1v2c0,0.55-0.45,1-1,1H14z M19.875,23.812
			c-0.449,0-0.812-0.363-0.812-0.812s0.363-0.812,0.812-0.812s0.812,0.363,0.812,0.812S20.324,23.812,19.875,23.812z M20.688,15.625
			c-0.449,0-0.812-0.364-0.812-0.812c0-0.449,0.363-0.813,0.812-0.813s0.812,0.365,0.812,0.813
			C21.5,15.262,21.137,15.625,20.688,15.625z M20.688,2.625c-0.449,0-0.812-0.364-0.812-0.813c0-0.449,0.363-0.813,0.812-0.813
			S21.5,1.364,21.5,1.813C21.5,2.262,21.137,2.625,20.688,2.625z"/>
		<path d="M12.5,7.327c-1.381,0-2.5,1.119-2.5,2.5v10c0,0.55,0.45,1,1,1h3c0.55,0,1-0.45,1-1v-10C15,8.446,13.881,7.327,12.5,7.327z
			 M12.5,11.827c-1.104,0-2-0.896-2-2s0.896-2,2-2c1.104,0,2,0.896,2,2S13.604,11.827,12.5,11.827z"/>
	</g>
</g>
<g>
</g>
<g>
</g>
<g>
</g>
<g>
</g>
<g>
</g>
<g>
</g>
<g>
</g>
<g>
</g>
<g>
</g>
<g>
</g>
<g>
</g>
<g>
</g>
<g>
</g>
<g>
</g>
<g>
</g>
</svg>
