<?xml version="1.0" encoding="iso-8859-1"?>
<!-- Generator: Adobe Illustrator 16.0.0, SVG Export Plug-In . SVG Version: 6.00 Build 0)  -->
<!DOCTYPE svg PUBLIC "-//W3C//DTD SVG 1.1//EN" "http://www.w3.org/Graphics/SVG/1.1/DTD/svg11.dtd">
<svg version="1.1" id="Capa_1" xmlns="http://www.w3.org/2000/svg" xmlns:xlink="http://www.w3.org/1999/xlink" x="0px" y="0px"
	 width="21.764px" height="21.763px" viewBox="0 0 21.764 21.763" style="enable-background:new 0 0 21.764 21.763;"
	 xml:space="preserve">
<g>
	<g>
		<path d="M10.882,0.023C4.872,0.023,0,2.46,0,5.464v2.69c1.872-2.248,5.984-3.778,10.882-3.778c4.897,0,9.01,1.53,10.882,3.778
			v-2.69C21.764,2.459,16.892,0.023,10.882,0.023z"/>
		<path d="M4.564,6.48C1.804,7.467,0,9.079,0,10.904c0,5.708,4.396,10.381,9.987,10.837C8.525,20.38,4.82,15.982,4.564,6.48z"/>
		<path d="M17.215,6.486c-0.107,9.484-3.904,13.885-5.419,15.254c5.581-0.466,9.968-5.135,9.968-10.836
			C21.764,9.083,19.966,7.474,17.215,6.486z"/>
		<path d="M10.882,5.964c1.649,0,3.282,0.193,4.75,0.562c-0.112,8.407-3.312,12.476-4.738,13.873
			c-1.386-1.406-4.497-5.481-4.746-13.877C7.611,6.155,9.238,5.964,10.882,5.964 M10.882,5.464c-1.901,0-3.688,0.245-5.243,0.674
			c0.18,9.651,4.105,13.915,5.249,14.948c1.173-1.023,5.228-5.283,5.247-14.945C14.576,5.71,12.787,5.464,10.882,5.464L10.882,5.464
			z"/>
		<g>
			<g>
				<path d="M10.882,7.428c-2.003,0-3.627,1.624-3.627,3.626c0,2.004,1.624,3.627,3.627,3.627c2.004,0,3.627-1.623,3.627-3.627
					C14.509,9.052,12.886,7.428,10.882,7.428z M10.882,13.958c-1.603,0-2.902-1.3-2.902-2.902c0-1.604,1.299-2.902,2.902-2.902
					c1.603,0,2.901,1.299,2.901,2.902C13.783,12.659,12.484,13.958,10.882,13.958z"/>
			</g>
			<g>
				<circle cx="10.882" cy="11.056" r="1.451"/>
			</g>
		</g>
	</g>
</g>
<g>
</g>
<g>
</g>
<g>
</g>
<g>
</g>
<g>
</g>
<g>
</g>
<g>
</g>
<g>
</g>
<g>
</g>
<g>
</g>
<g>
</g>
<g>
</g>
<g>
</g>
<g>
</g>
<g>
</g>
</svg>
