<svg id="svg" xmlns="http://www.w3.org/2000/svg" xmlns:xlink="http://www.w3.org/1999/xlink" width="400" height="400" viewBox="0, 0, 400,400"><g id="svgg"><path id="path0" d="M107.467 23.540 C -74.340 115.017,-13.539 387.419,191.176 398.576 C 402.267 410.080,478.753 119.676,290.026 23.261 C 242.541 -0.997,155.971 -0.865,107.467 23.540 M279.412 29.880 C 373.362 74.463,414.423 190.685,368.942 283.297 C 284.816 454.607,25.470 404.611,13.135 214.706 C 3.663 68.871,148.997 -32.007,279.412 29.880 M135.149 85.677 C 122.618 118.634,131.689 182.353,148.910 182.353 C 160.505 182.353,170.588 156.411,170.588 126.577 C 170.588 77.278,148.176 51.413,135.149 85.677 M241.383 81.966 C 233.689 96.343,233.478 147.399,241.031 167.264 C 253.594 200.307,276.471 171.757,276.471 123.035 C 276.471 78.811,255.936 54.775,241.383 81.966 M320.899 205.380 C 319.070 208.339,320.799 211.835,324.740 213.149 C 338.651 217.785,318.333 265.811,291.548 291.608 C 227.027 353.747,125.506 336.348,85.518 256.298 C 73.489 232.216,70.302 220.684,75.224 219.043 C 89.006 214.449,82.159 205.882,64.706 205.882 C 55.000 205.882,47.059 208.529,47.059 211.765 C 47.059 215.000,49.493 217.647,52.468 217.647 C 55.444 217.647,62.120 230.420,67.305 246.030 C 108.568 370.260,286.853 371.708,333.165 248.190 C 338.857 233.009,346.297 218.603,349.698 216.176 C 353.777 213.267,352.878 209.793,347.059 205.972 C 335.930 198.667,325.198 198.424,320.899 205.380 " stroke="none" fill="#000000" fill-rule="evenodd"></path></g></svg>