<?xml version="1.0" encoding="iso-8859-1"?>
<!-- Generator: Adobe Illustrator 16.0.0, SVG Export Plug-In . SVG Version: 6.00 Build 0)  -->
<!DOCTYPE svg PUBLIC "-//W3C//DTD SVG 1.1//EN" "http://www.w3.org/Graphics/SVG/1.1/DTD/svg11.dtd">
<svg version="1.1" id="Capa_1" xmlns="http://www.w3.org/2000/svg" xmlns:xlink="http://www.w3.org/1999/xlink" x="0px" y="0px"
	 width="30.815px" height="30.815px" viewBox="0 0 30.815 30.815" style="enable-background:new 0 0 30.815 30.815;"
	 xml:space="preserve">
<g>
	<path d="M30.748,5.755c-0.138-0.239-0.443-0.323-0.683-0.183L28.92,6.234c-2.43-3.687-7.353-4.896-11.224-2.66L0,13.791
		l8.414,14.574L26.11,18.148c3.871-2.235,5.284-7.103,3.308-11.049l1.147-0.662C30.805,6.3,30.887,5.994,30.748,5.755z
		 M25.51,17.106L8.855,26.722l-7.212-12.49l16.654-9.616c3.299-1.904,7.485-0.893,9.58,2.22l-1.041,0.601
		c-1.763-2.544-5.209-3.354-7.938-1.779L3.284,14.672l6.011,10.41l15.613-9.015c2.729-1.576,3.75-4.967,2.428-7.765l1.041-0.601
		C30.025,11.072,28.807,15.203,25.51,17.106z M25.309,10.398c-0.623,0.361-1.42,0.147-1.778-0.477
		c-0.358-0.622-0.146-1.419,0.478-1.778c0.469-0.27,1.035-0.215,1.44,0.094l-0.124,0.071c-0.238,0.138-0.32,0.443-0.184,0.683
		c0.093,0.16,0.261,0.25,0.434,0.25c0.085,0,0.171-0.021,0.25-0.067l0.124-0.071C26.014,9.609,25.779,10.128,25.309,10.398z"/>
</g>
<g>
</g>
<g>
</g>
<g>
</g>
<g>
</g>
<g>
</g>
<g>
</g>
<g>
</g>
<g>
</g>
<g>
</g>
<g>
</g>
<g>
</g>
<g>
</g>
<g>
</g>
<g>
</g>
<g>
</g>
</svg>
