<?xml version="1.0" encoding="iso-8859-1"?>
<!-- Generator: Adobe Illustrator 16.0.0, SVG Export Plug-In . SVG Version: 6.00 Build 0)  -->
<!DOCTYPE svg PUBLIC "-//W3C//DTD SVG 1.1//EN" "http://www.w3.org/Graphics/SVG/1.1/DTD/svg11.dtd">
<svg version="1.1" id="Capa_1" xmlns="http://www.w3.org/2000/svg" xmlns:xlink="http://www.w3.org/1999/xlink" x="0px" y="0px"
	 width="28.537px" height="28.537px" viewBox="0 0 28.537 28.537" style="enable-background:new 0 0 28.537 28.537;"
	 xml:space="preserve">
<g>
	<g>
		<path d="M28.21,22.784l-2.117-3.972c-0.311-0.582-0.83-1.101-1.434-1.5c0.378-0.502,0.609-1.119,0.609-1.794v-10
			c0-1.654-1.346-3-3-3h-16c-1.654,0-3,1.346-3,3v10c0,0.675,0.232,1.292,0.609,1.794c-0.604,0.399-1.123,0.918-1.434,1.5
			l-2.117,3.972c-0.416,0.779-0.436,1.594-0.053,2.23c0.383,0.637,1.11,1.004,1.995,1.004h24c0.885,0,1.611-0.366,1.994-1.004
			C28.646,24.376,28.626,23.563,28.21,22.784z M5.269,5.519c0-0.552,0.449-1,1-1h16c0.551,0,1,0.448,1,1v10c0,0.552-0.449,1-1,1h-16
			c-0.551,0-1-0.448-1-1V5.519z M26.269,24.019h-24c-0.152,0-0.236-0.025-0.264-0.025c0,0-0.003,0-0.004,0
			c0.002-0.037,0.015-0.125,0.092-0.269l2.117-3.972c0.345-0.646,1.326-1.234,2.059-1.234h16c0.732,0,1.714,0.589,2.06,1.234
			l2.116,3.972c0.077,0.144,0.091,0.231,0.104,0.248C26.515,23.988,26.431,24.019,26.269,24.019z"/>
		<polygon points="11.66,21.8 10.66,23.394 17.878,23.394 16.878,21.8 		"/>
		<path d="M9.688,14.978h9.162c0.867,0,1.574-0.706,1.575-1.574l-0.001-5.728c0.001-0.868-0.706-1.573-1.574-1.574L9.688,6.103
			C8.819,6.102,8.114,6.808,8.113,7.676l0.001,5.728C8.113,14.271,8.819,14.978,9.688,14.978z M13.923,12.587
			c-0.201,0.347-0.646,0.465-0.992,0.264c-0.347-0.199-0.464-0.644-0.265-0.989c0.2-0.346,1.012-1.101,1.355-0.901
			C14.371,11.163,14.123,12.242,13.923,12.587z M14.124,10.29c0.14-0.082,0.315-0.034,0.396,0.104s0.033,0.314-0.105,0.396
			c-0.139,0.08-0.316,0.033-0.396-0.105C13.937,10.544,13.985,10.37,14.124,10.29z M15.604,12.854
			c-0.347,0.199-0.79,0.081-0.989-0.267c-0.199-0.345-0.447-1.426-0.104-1.624c0.348-0.2,1.159,0.555,1.358,0.898
			C16.07,12.209,15.951,12.653,15.604,12.854z M16.94,10.542c-0.001,0.398-0.324,0.722-0.726,0.722
			c-0.399,0-1.458-0.324-1.459-0.723c0.001-0.401,1.061-0.727,1.459-0.727C16.615,9.814,16.941,10.141,16.94,10.542z M14.615,8.491
			c0.2-0.347,0.646-0.466,0.992-0.265c0.345,0.2,0.464,0.643,0.266,0.991c-0.201,0.344-1.013,1.099-1.356,0.899
			C14.165,9.915,14.415,8.835,14.615,8.491z M12.934,8.224c0.347-0.199,0.789-0.079,0.989,0.267
			c0.199,0.348,0.447,1.427,0.103,1.624c-0.347,0.201-1.159-0.553-1.357-0.897C12.465,8.871,12.586,8.426,12.934,8.224z
			 M12.323,9.814c0.397,0,1.458,0.325,1.457,0.723c-0.001,0.401-1.059,0.727-1.458,0.728c-0.399-0.001-0.726-0.326-0.725-0.727
			C11.597,10.138,11.92,9.814,12.323,9.814z"/>
	</g>
</g>
<g>
</g>
<g>
</g>
<g>
</g>
<g>
</g>
<g>
</g>
<g>
</g>
<g>
</g>
<g>
</g>
<g>
</g>
<g>
</g>
<g>
</g>
<g>
</g>
<g>
</g>
<g>
</g>
<g>
</g>
</svg>
