<?xml version="1.0" encoding="iso-8859-1"?>
<!-- Generator: Adobe Illustrator 16.0.0, SVG Export Plug-In . SVG Version: 6.00 Build 0)  -->
<!DOCTYPE svg PUBLIC "-//W3C//DTD SVG 1.1//EN" "http://www.w3.org/Graphics/SVG/1.1/DTD/svg11.dtd">
<svg version="1.1" id="Capa_1" xmlns="http://www.w3.org/2000/svg" xmlns:xlink="http://www.w3.org/1999/xlink" x="0px" y="0px"
	 width="31.344px" height="31.344px" viewBox="0 0 31.344 31.344" style="enable-background:new 0 0 31.344 31.344;"
	 xml:space="preserve">
<g>
	<g>
		<path d="M23.724,27.417l-2.418-1.813c-0.276-0.207-0.782-0.377-1.129-0.377h-3.251v0.422c0,0.69-0.562,1.254-1.254,1.254
			c-0.691,0-1.254-0.563-1.254-1.254v-0.422h-3.251c-0.346,0-0.853,0.17-1.13,0.377L7.62,27.417
			c-0.277,0.206-0.222,0.375,0.124,0.375h15.855C23.945,27.792,24.001,27.624,23.724,27.417z"/>
		<path d="M30.089,3.551H1.255C0.566,3.551,0,4.115,0,4.805v16.299c0,0.688,0.565,1.254,1.255,1.254h13.79v3.291
			c0,0.346,0.281,0.625,0.627,0.625c0.346,0,0.627-0.279,0.627-0.625v-3.291h13.79c0.688,0,1.255-0.565,1.255-1.254V4.805
			C31.344,4.115,30.777,3.551,30.089,3.551z M18.92,14.098l-6.495,3.572c-0.964,0.529-1.753,0.064-1.753-1.036v-7
			c0-1.1,0.789-1.566,1.752-1.036l6.495,3.572C19.883,12.7,19.883,13.567,18.92,14.098z"/>
	</g>
</g>
<g>
</g>
<g>
</g>
<g>
</g>
<g>
</g>
<g>
</g>
<g>
</g>
<g>
</g>
<g>
</g>
<g>
</g>
<g>
</g>
<g>
</g>
<g>
</g>
<g>
</g>
<g>
</g>
<g>
</g>
</svg>
