<?xml version="1.0" encoding="iso-8859-1"?>
<!-- Generator: Adobe Illustrator 16.0.0, SVG Export Plug-In . SVG Version: 6.00 Build 0)  -->
<!DOCTYPE svg PUBLIC "-//W3C//DTD SVG 1.1//EN" "http://www.w3.org/Graphics/SVG/1.1/DTD/svg11.dtd">
<svg version="1.1" id="Capa_1" xmlns="http://www.w3.org/2000/svg" xmlns:xlink="http://www.w3.org/1999/xlink" x="0px" y="0px"
	 width="32px" height="32px" viewBox="0 0 32 32" style="enable-background:new 0 0 32 32;" xml:space="preserve">
<g>
	<path d="M30.156,23.434C31.329,21.21,32,18.684,32,16c0-2.736-0.693-5.313-1.909-7.567c-0.021-0.693,0.116-1.572,0.252-2.436
		c0.275-1.741,0.535-3.387-0.25-4.166c-0.347-0.344-0.903-0.512-1.702-0.512c-0.744,0-1.625,0.142-2.479,0.279
		c-0.812,0.131-1.655,0.266-2.326,0.266c-0.049,0-0.084-0.008-0.13-0.009C21.229,0.676,18.691,0,16,0
		c-2.747,0-5.334,0.697-7.595,1.922c-0.09,0.005-0.163,0.019-0.262,0.019c-0.657,0-1.451-0.107-2.22-0.211
		C5.122,1.622,4.294,1.509,3.574,1.509c-0.931,0-1.544,0.187-1.927,0.586c-0.73,0.76-0.434,2.365-0.12,4.066
		c0.159,0.86,0.317,1.735,0.312,2.415C0.67,10.798,0,13.32,0,16c0,2.744,0.696,5.328,1.918,7.588c0.026,0.7-0.1,1.582-0.228,2.449
		c-0.247,1.688-0.502,3.432,0.306,4.222c0.332,0.324,0.857,0.482,1.606,0.482c0.75,0,1.649-0.155,2.519-0.306
		c0.883-0.151,1.784-0.281,2.462-0.271C10.804,31.331,13.324,32,16,32c2.744,0,5.327-0.695,7.586-1.918
		c0.079-0.003,0.141-0.016,0.229-0.016c0.66,0,1.465,0.113,2.244,0.224c0.812,0.115,1.653,0.233,2.377,0.233
		c0.899,0,1.494-0.181,1.867-0.566c0.743-0.766,0.456-2.384,0.151-4.098C30.3,24.996,30.146,24.118,30.156,23.434z M25,16
		c0,4.963-4.038,9-9,9s-9-4.037-9-9s4.038-9,9-9S25,11.037,25,16z M24.818,11.293c-0.936-1.743-2.369-3.178-4.112-4.111l1.716-4.717
		c3.112,1.482,5.63,4.001,7.113,7.113L24.818,11.293z M9.578,2.465l1.716,4.717C9.551,8.116,8.117,9.55,7.182,11.293L2.465,9.578
		C3.948,6.466,6.465,3.947,9.578,2.465z M7.182,20.707c0.935,1.743,2.369,3.178,4.112,4.111l-1.716,4.717
		c-3.112-1.482-5.63-4.001-7.113-7.113L7.182,20.707z M22.422,29.535l-1.716-4.717c1.743-0.935,3.177-2.368,4.112-4.111l4.717,1.715
		C28.052,25.534,25.535,28.053,22.422,29.535z M25.992,2.092c0.833-0.134,1.695-0.272,2.4-0.272c0.659,0,1.102,0.12,1.35,0.367
		c0.604,0.599,0.351,2.192,0.107,3.733c-0.096,0.606-0.18,1.189-0.226,1.732c-1.341-2.181-3.187-4.012-5.377-5.337
		C24.807,2.267,25.396,2.188,25.992,2.092z M2.019,6.07C1.755,4.638,1.456,3.015,2.008,2.44C2.287,2.15,2.8,2.008,3.575,2.008
		c0.686,0,1.497,0.11,2.282,0.216c0.593,0.08,1.186,0.147,1.746,0.183c-2.17,1.346-3.991,3.191-5.308,5.381
		C2.234,7.252,2.129,6.67,2.019,6.07z M6.037,29.943c-0.849,0.146-1.726,0.298-2.434,0.298c-0.612,0-1.023-0.111-1.257-0.341
		c-0.626-0.611-0.39-2.229-0.161-3.791c0.089-0.606,0.167-1.189,0.207-1.734c1.341,2.171,3.182,3.993,5.367,5.312
		C7.212,29.743,6.62,29.843,6.037,29.943z M29.943,29.609c-0.271,0.279-0.764,0.414-1.508,0.414c-0.688,0-1.513-0.115-2.309-0.229
		c-0.594-0.084-1.186-0.152-1.746-0.191c2.174-1.344,3.996-3.188,5.316-5.377c0.056,0.537,0.156,1.121,0.264,1.723
		C30.218,27.393,30.509,29.027,29.943,29.609z"/>
</g>
<g>
</g>
<g>
</g>
<g>
</g>
<g>
</g>
<g>
</g>
<g>
</g>
<g>
</g>
<g>
</g>
<g>
</g>
<g>
</g>
<g>
</g>
<g>
</g>
<g>
</g>
<g>
</g>
<g>
</g>
</svg>
