<?xml version="1.0" encoding="iso-8859-1"?>
<!-- Generator: Adobe Illustrator 16.0.0, SVG Export Plug-In . SVG Version: 6.00 Build 0)  -->
<!DOCTYPE svg PUBLIC "-//W3C//DTD SVG 1.1//EN" "http://www.w3.org/Graphics/SVG/1.1/DTD/svg11.dtd">
<svg version="1.1" id="Capa_1" xmlns="http://www.w3.org/2000/svg" xmlns:xlink="http://www.w3.org/1999/xlink" x="0px" y="0px"
	 width="33.579px" height="33.578px" viewBox="0 0 33.579 33.578" style="enable-background:new 0 0 33.579 33.578;"
	 xml:space="preserve">
<g>
	<g>
		<path d="M22.743,14.365l-12.481,3.344c-0.593,0.159-0.945,0.77-0.786,1.362c0.133,0.497,0.583,0.823,1.073,0.823
			c0.095,0,0.192-0.012,0.289-0.037l1.751-0.469v1.306h-1.415c-0.343,0-0.624,0.28-0.624,0.624v3.119
			c0,0.345,0.168,0.851,0.374,1.123l1.123,1.498c0.206,0.274,0.375,0.78,0.375,1.123v1.248c0,0.344,0.281,0.625,0.624,0.625h7.489
			c0.342,0,0.623-0.281,0.623-0.625v-1.248c0-0.343,0.17-0.849,0.375-1.123l1.123-1.498c0.206-0.272,0.375-0.778,0.375-1.123v-3.119
			c0-0.344-0.281-0.624-0.625-0.624h-1.436c0.004-0.035,0.021-0.065,0.021-0.101v-3.457l2.326-0.623
			c0.594-0.16,0.945-0.77,0.786-1.362C23.945,14.559,23.334,14.211,22.743,14.365z M14.441,20.694v-1.802l4.695-1.259v2.96
			c0,0.034,0.017,0.064,0.021,0.101H14.441z"/>
		<path d="M22.743,11.934l-12.481,3.344c-0.593,0.159-0.945,0.77-0.786,1.362c0.133,0.496,0.583,0.823,1.073,0.823
			c0.095,0,0.192-0.012,0.289-0.036l12.481-3.345c0.593-0.159,0.945-0.77,0.786-1.362C23.945,12.127,23.334,11.779,22.743,11.934z"
			/>
		<path d="M22.743,9.503l-12.481,3.344c-0.593,0.159-0.945,0.77-0.786,1.362c0.133,0.497,0.583,0.824,1.073,0.824
			c0.095,0,0.192-0.012,0.289-0.037l12.481-3.344c0.593-0.159,0.945-0.77,0.786-1.362C23.945,9.696,23.334,9.348,22.743,9.503z"/>
		<path d="M9.475,11.777c0.133,0.497,0.583,0.825,1.073,0.825c0.095,0,0.192-0.013,0.289-0.038l6.337-1.697
			c0.593-0.159,0.946-0.769,0.786-1.362c-0.158-0.594-0.769-0.941-1.361-0.787l-6.337,1.697C9.667,10.574,9.315,11.185,9.475,11.777
			z"/>
		<path d="M19.384,30.24h-5.19c-0.307,0-0.556,0.249-0.556,0.557c0,0.145,0.059,0.272,0.148,0.37
			c-0.089,0.099-0.148,0.228-0.148,0.371s0.059,0.272,0.148,0.371c-0.089,0.099-0.148,0.228-0.148,0.37
			c0,0.308,0.249,0.557,0.556,0.557h0.964c-0.021,0.059-0.038,0.119-0.038,0.186c0,0.308,0.25,0.557,0.556,0.557h2.225
			c0.307,0,0.557-0.249,0.557-0.557c0-0.065-0.018-0.127-0.039-0.186h0.965c0.307,0,0.556-0.249,0.556-0.557
			c0-0.145-0.06-0.271-0.147-0.37c0.088-0.099,0.147-0.228,0.147-0.371s-0.06-0.272-0.147-0.371c0.088-0.098,0.147-0.228,0.147-0.37
			C19.94,30.489,19.691,30.24,19.384,30.24z"/>
		<path d="M29.765,12.976h-2.354c-0.205,0-0.371,0.166-0.371,0.371s0.166,0.37,0.371,0.37h2.354c0.205,0,0.371-0.165,0.371-0.37
			S29.97,12.976,29.765,12.976z"/>
		<path d="M6.538,13.347c0-0.205-0.166-0.371-0.371-0.371H3.813c-0.205,0-0.371,0.166-0.371,0.371s0.166,0.37,0.371,0.37h2.354
			C6.372,13.717,6.538,13.552,6.538,13.347z"/>
		<path d="M26.69,10.692c0.044,0.165,0.194,0.274,0.357,0.274c0.033,0,0.064-0.004,0.097-0.012l2.274-0.608
			c0.197-0.053,0.314-0.257,0.262-0.454s-0.256-0.313-0.454-0.263l-2.272,0.608C26.754,10.291,26.637,10.494,26.69,10.692z"/>
		<path d="M6.887,16.001c-0.053-0.198-0.255-0.311-0.454-0.263L4.16,16.346c-0.198,0.053-0.315,0.256-0.262,0.453
			c0.044,0.166,0.194,0.275,0.358,0.275c0.032,0,0.064-0.004,0.096-0.012l2.273-0.608C6.823,16.402,6.94,16.198,6.887,16.001z"/>
		<path d="M25.667,8.219c0.068,0.119,0.192,0.186,0.322,0.186c0.062,0,0.125-0.016,0.184-0.049l2.039-1.176
			c0.178-0.103,0.24-0.329,0.137-0.507c-0.102-0.176-0.328-0.237-0.506-0.136l-2.039,1.175C25.625,7.815,25.564,8.042,25.667,8.219z
			"/>
		<path d="M7.405,18.337l-2.038,1.177c-0.178,0.102-0.238,0.328-0.136,0.506c0.069,0.119,0.193,0.186,0.321,0.186
			c0.063,0,0.127-0.016,0.185-0.05l2.038-1.177c0.178-0.103,0.238-0.328,0.136-0.506S7.582,18.232,7.405,18.337z"/>
		<path d="M26.227,3.909c-0.145-0.145-0.38-0.145-0.525,0l-1.666,1.663c-0.145,0.145-0.145,0.38,0,0.524
			c0.073,0.072,0.168,0.108,0.264,0.108c0.095,0,0.189-0.036,0.262-0.108l1.666-1.663C26.372,4.29,26.372,4.055,26.227,3.909z"/>
		<path d="M21.913,4.469c0.059,0.034,0.123,0.05,0.187,0.05c0.128,0,0.252-0.066,0.321-0.185l1.179-2.037
			c0.103-0.178,0.042-0.404-0.136-0.507c-0.178-0.104-0.403-0.042-0.506,0.135l-1.18,2.037C21.675,4.139,21.736,4.365,21.913,4.469z
			"/>
		<path d="M19.44,3.444c0.032,0.009,0.064,0.014,0.098,0.014c0.164,0,0.312-0.109,0.357-0.274l0.611-2.274
			c0.053-0.197-0.064-0.4-0.262-0.453c-0.197-0.052-0.401,0.063-0.455,0.261l-0.611,2.273C19.125,3.188,19.243,3.392,19.44,3.444z"
			/>
		<path d="M16.788,3.096L16.788,3.096c0.205,0,0.371-0.166,0.371-0.371l0.002-2.354C17.161,0.167,16.995,0,16.79,0
			s-0.371,0.166-0.371,0.371l-0.002,2.354C16.417,2.929,16.584,3.096,16.788,3.096z"/>
		<path d="M13.682,3.184c0.044,0.165,0.194,0.274,0.358,0.274c0.032,0,0.064-0.004,0.096-0.012c0.198-0.053,0.315-0.257,0.263-0.454
			l-0.607-2.275c-0.052-0.197-0.258-0.312-0.454-0.263c-0.198,0.053-0.315,0.257-0.262,0.454L13.682,3.184z"/>
		<path d="M11.158,4.335c0.068,0.118,0.193,0.185,0.321,0.185c0.063,0,0.126-0.016,0.185-0.049c0.177-0.103,0.239-0.329,0.136-0.507
			l-1.176-2.04c-0.102-0.177-0.329-0.238-0.506-0.136C9.941,1.89,9.879,2.117,9.982,2.295L11.158,4.335z"/>
		<path d="M9.542,5.575L7.878,3.909c-0.145-0.146-0.379-0.146-0.524,0C7.209,4.053,7.209,4.288,7.353,4.432l1.664,1.667
			C9.09,6.171,9.185,6.207,9.28,6.207c0.095,0,0.189-0.036,0.262-0.108C9.686,5.956,9.686,5.721,9.542,5.575z"/>
		<path d="M7.777,7.716L5.738,6.538C5.561,6.434,5.334,6.496,5.232,6.673C5.129,6.851,5.19,7.077,5.368,7.18l2.038,1.178
			c0.059,0.034,0.122,0.05,0.185,0.05c0.128,0,0.253-0.066,0.322-0.186C8.016,8.045,7.955,7.818,7.777,7.716z"/>
		<path d="M28.211,19.516l-2.039-1.178c-0.178-0.104-0.404-0.042-0.506,0.137c-0.104,0.178-0.043,0.403,0.136,0.506l2.038,1.177
			c0.059,0.034,0.123,0.05,0.186,0.05c0.129,0,0.252-0.066,0.321-0.186C28.45,19.844,28.389,19.617,28.211,19.516z"/>
		<path d="M4.161,10.346l2.274,0.611C6.467,10.966,6.5,10.97,6.532,10.97c0.164,0,0.313-0.109,0.358-0.274
			c0.053-0.197-0.064-0.401-0.262-0.454l-2.274-0.61C4.158,9.578,3.953,9.696,3.899,9.893C3.846,10.09,3.963,10.293,4.161,10.346z"
			/>
		<path d="M29.418,16.35l-2.274-0.609c-0.196-0.047-0.401,0.065-0.454,0.263c-0.053,0.198,0.064,0.4,0.262,0.454l2.274,0.609
			c0.032,0.008,0.063,0.012,0.097,0.012c0.163,0,0.312-0.109,0.357-0.273C29.733,16.604,29.616,16.402,29.418,16.35z"/>
	</g>
</g>
<g>
</g>
<g>
</g>
<g>
</g>
<g>
</g>
<g>
</g>
<g>
</g>
<g>
</g>
<g>
</g>
<g>
</g>
<g>
</g>
<g>
</g>
<g>
</g>
<g>
</g>
<g>
</g>
<g>
</g>
</svg>
