<?xml version="1.0" encoding="iso-8859-1"?>
<!-- Generator: Adobe Illustrator 16.0.0, SVG Export Plug-In . SVG Version: 6.00 Build 0)  -->
<!DOCTYPE svg PUBLIC "-//W3C//DTD SVG 1.1//EN" "http://www.w3.org/Graphics/SVG/1.1/DTD/svg11.dtd">
<svg version="1.1" id="Capa_1" xmlns="http://www.w3.org/2000/svg" xmlns:xlink="http://www.w3.org/1999/xlink" x="0px" y="0px"
	 width="31.957px" height="31.957px" viewBox="0 0 31.957 31.957" style="enable-background:new 0 0 31.957 31.957;"
	 xml:space="preserve">
<g>
	<g>
		<path d="M14.897,20.771l-8.658,4.998l-3.61-6.252l8.658-4.999c0.532-0.307,0.714-0.986,0.407-1.518
			c-0.307-0.531-0.986-0.714-1.518-0.407l-9.62,5.555c-0.532,0.308-0.714,0.985-0.407,1.519l4.721,8.177
			c0.307,0.532,0.986,0.713,1.518,0.407l9.619-5.556c0.532-0.307,0.715-0.984,0.407-1.518
			C16.108,20.646,15.429,20.463,14.897,20.771z"/>
		<path d="M31.807,12.291l-4.722-8.177C26.779,3.583,26.1,3.4,25.568,3.707l-9.62,5.555c-0.532,0.307-0.714,0.985-0.407,1.518
			c0.307,0.531,0.986,0.714,1.518,0.406l8.657-4.998l3.61,6.253l-8.658,4.998c-0.531,0.309-0.714,0.986-0.406,1.519
			c0.307,0.531,0.985,0.714,1.518,0.406l9.62-5.555C31.932,13.501,32.114,12.823,31.807,12.291z"/>
		<path d="M9.244,19.867c0.613,1.062,1.972,1.427,3.035,0.812l9.62-5.554c1.062-0.614,1.426-1.974,0.812-3.035
			c-0.612-1.063-1.972-1.427-3.034-0.813l-9.62,5.555C8.995,17.445,8.631,18.804,9.244,19.867z"/>
	</g>
</g>
<g>
</g>
<g>
</g>
<g>
</g>
<g>
</g>
<g>
</g>
<g>
</g>
<g>
</g>
<g>
</g>
<g>
</g>
<g>
</g>
<g>
</g>
<g>
</g>
<g>
</g>
<g>
</g>
<g>
</g>
</svg>
