<?xml version="1.0" encoding="iso-8859-1"?>
<!-- Generator: Adobe Illustrator 16.0.0, SVG Export Plug-In . SVG Version: 6.00 Build 0)  -->
<!DOCTYPE svg PUBLIC "-//W3C//DTD SVG 1.1//EN" "http://www.w3.org/Graphics/SVG/1.1/DTD/svg11.dtd">
<svg version="1.1" id="Capa_1" xmlns="http://www.w3.org/2000/svg" xmlns:xlink="http://www.w3.org/1999/xlink" x="0px" y="0px"
	 width="27.136px" height="27.136px" viewBox="0 0 27.136 27.136" style="enable-background:new 0 0 27.136 27.136;"
	 xml:space="preserve">
<g>
	<g>
		<path d="M24.121,4.899h-3.977c0-2.078-1.691-3.769-3.77-3.769h-5.613c-2.046,0-3.708,1.642-3.76,3.769H3.016
			C1.357,4.899,0,6.255,0,7.915v6.031c0,1.66,1.357,3.015,3.016,3.015h6.752v-0.714c0-1.56,0.946-2.9,2.292-3.485V5.656h3.014v7.105
			c1.348,0.585,2.293,1.926,2.293,3.485v0.714h6.752c1.66,0,3.017-1.355,3.017-3.015V7.915C27.136,6.255,25.779,4.899,24.121,4.899z
			 M8.5,4.899c0-1.247,1.015-2.262,2.262-2.262h5.613c1.216,0,2.204,0.967,2.252,2.262H8.5z"/>
		<path d="M18.238,18.466c0.008,0.066,0.026,0.129,0.026,0.198v3.262c0,1.063-0.862,1.927-1.925,1.927h-5.542
			c-1.063,0-1.927-0.865-1.927-1.927v-3.262c0-0.068,0.019-0.132,0.026-0.198H3.015c-0.828,0-1.594-0.24-2.262-0.629v5.152
			c0,1.658,1.357,3.016,3.015,3.016h19.599c1.658,0,3.015-1.357,3.015-3.016v-5.152c-0.668,0.391-1.435,0.629-2.263,0.629H18.238z"
			/>
		<path d="M10.371,18.665v3.262c0,0.235,0.193,0.427,0.427,0.427h5.542c0.232,0,0.425-0.191,0.425-0.427v-3.262
			c0-0.234-0.192-0.427-0.425-0.427h-5.542C10.564,18.238,10.371,18.43,10.371,18.665z"/>
		<path d="M15.867,17.755v-1.51c0-1.27-1.03-2.301-2.299-2.301c-1.267,0-2.299,1.032-2.299,2.301v1.51h0.853v-1.51
			c0-0.799,0.65-1.448,1.447-1.448c0.798,0,1.449,0.649,1.449,1.448v1.51H15.867z"/>
	</g>
</g>
<g>
</g>
<g>
</g>
<g>
</g>
<g>
</g>
<g>
</g>
<g>
</g>
<g>
</g>
<g>
</g>
<g>
</g>
<g>
</g>
<g>
</g>
<g>
</g>
<g>
</g>
<g>
</g>
<g>
</g>
</svg>
