<?xml version="1.0" encoding="iso-8859-1"?>
<!-- Generator: Adobe Illustrator 16.0.0, SVG Export Plug-In . SVG Version: 6.00 Build 0)  -->
<!DOCTYPE svg PUBLIC "-//W3C//DTD SVG 1.1//EN" "http://www.w3.org/Graphics/SVG/1.1/DTD/svg11.dtd">
<svg version="1.1" id="Capa_1" xmlns="http://www.w3.org/2000/svg" xmlns:xlink="http://www.w3.org/1999/xlink" x="0px" y="0px"
	 width="28.636px" height="28.636px" viewBox="0 0 28.636 28.636" style="enable-background:new 0 0 28.636 28.636;"
	 xml:space="preserve">
<g>
	<g>
		<path d="M7.231,24.761C7.17,24.129,7.12,23.454,7.089,22.74c-0.011-0.248-0.422-0.012-0.725-0.266
			c-0.252-0.209-0.367-0.912-0.695-1.099c-0.16-0.089-0.333,1.312-0.491,1.231c-0.656-0.332-1.218-2.041-1.218-2.041
			c0.428,3.951-1.07,8.066-1.07,8.066h5.319c0,0-0.509-0.07-0.852-2.756c-0.015-0.115,0.274-1.049,1.263-2.201
			C7.797,23.809,7.257,25.023,7.231,24.761z"/>
		<path d="M20.938,7.19c-0.699,0-1.382,0.145-2.021,0.421c0.395-0.743,0.604-1.567,0.604-2.409C19.521,2.334,17.188,0,14.317,0
			c-2.097,0-3.979,1.275-4.783,3.204c-0.146-0.017-0.292-0.025-0.44-0.025c-2.1,0-3.807,1.707-3.807,3.805
			c0,0.246,0.028,0.491,0.087,0.755c-1.761,0.877-2.88,2.668-2.88,4.655c0,2.631,1.931,4.799,4.527,5.135
			c0.648,1.273,1.954,2.082,3.391,2.082c1.417,0,2.656-0.779,3.308-1.959c0.354,0.584,0.566,1.055,0.597,1.336
			c0.429,3.951-1.07,9.647-1.07,9.647h5.319c0,0-0.923-2.995-1.12-7.476c-0.012-0.275,0.084-0.781,0.267-1.387
			c0.438,0.166,0.914,0.262,1.414,0.262c1.765,0,3.284-1.155,3.768-2.838c1.951-0.795,3.247-2.7,3.247-4.804
			C26.142,9.524,23.807,7.19,20.938,7.19z M22.43,16.529l-0.203,0.074l-0.049,0.207c-0.332,1.434-1.586,2.434-3.053,2.434
			c-0.41,0-0.801-0.081-1.158-0.223c0.55-1.455,1.535-3.252,2.97-4.449c-1.515,0.527-3.69,2.605-3.69,2.605
			s-0.854-9.521-4.149-13.605c1.219,4.281,1.516,11.329,1.516,11.329s-2.174-2.041-6.917-3.688c2.501,1.968,4.407,4.09,5.519,5.666
			c-0.436,1.151-1.533,1.94-2.805,1.94c-1.2,0-2.286-0.715-2.765-1.816l-0.094-0.217l-0.233-0.021
			c-2.299-0.199-4.034-2.079-4.034-4.373c0-1.783,1.063-3.381,2.709-4.07l0.328-0.136L6.218,7.846
			C6.123,7.523,6.076,7.249,6.076,6.983c0-1.662,1.354-3.014,3.017-3.014c0.208,0,0.414,0.021,0.613,0.063l0.343,0.073l0.114-0.331
			c0.614-1.785,2.284-2.984,4.154-2.984c2.433,0,4.414,1.979,4.414,4.412c0,1.074-0.406,2.118-1.146,2.939L17.35,8.406l0.615,0.729
			l0.306-0.233c0.788-0.603,1.71-0.92,2.667-0.92c2.433,0,4.413,1.979,4.413,4.412C25.352,14.237,24.178,15.9,22.43,16.529z"/>
	</g>
</g>
<g>
</g>
<g>
</g>
<g>
</g>
<g>
</g>
<g>
</g>
<g>
</g>
<g>
</g>
<g>
</g>
<g>
</g>
<g>
</g>
<g>
</g>
<g>
</g>
<g>
</g>
<g>
</g>
<g>
</g>
</svg>
