<?xml version="1.0" encoding="iso-8859-1"?>
<!-- Generator: Adobe Illustrator 16.0.0, SVG Export Plug-In . SVG Version: 6.00 Build 0)  -->
<!DOCTYPE svg PUBLIC "-//W3C//DTD SVG 1.1//EN" "http://www.w3.org/Graphics/SVG/1.1/DTD/svg11.dtd">
<svg version="1.1" id="Capa_1" xmlns="http://www.w3.org/2000/svg" xmlns:xlink="http://www.w3.org/1999/xlink" x="0px" y="0px"
	 width="33.124px" height="33.125px" viewBox="0 0 33.124 33.125" style="enable-background:new 0 0 33.124 33.125;"
	 xml:space="preserve">
<g>
	<path d="M24.713,11.312H8.408L0,21.812h33.124L24.713,11.312z M9.128,12.812h14.865l6.006,7.5H3.123L9.128,12.812z M8.799,16.864
		l0.579,0.815L8.97,17.968l-0.579-0.814L8.799,16.864z M13.735,16.107l0.896,0.441l-0.442,0.896l-0.895-0.439L13.735,16.107z
		 M10.717,16.118l0.25,0.433l-0.776,0.552l-0.578-0.816l0.781-0.554L10.717,16.118z M15.973,16.542l0.629,0.778
		c-0.319,0.257-0.765,0.414-1.225,0.431l-0.037-0.998C15.585,16.744,15.822,16.666,15.973,16.542z M12.616,15.556l0.223,0.109
		l-0.441,0.897l-0.223-0.109c-0.127-0.062-0.301-0.098-0.489-0.098l-0.019-1h0.019C12.03,15.355,12.352,15.425,12.616,15.556z
		 M20.67,15.242c0.174,0.137,0.441,0.27,0.734,0.366l-0.311,0.95c-0.406-0.133-0.775-0.321-1.041-0.529L20.67,15.242z
		 M17.471,15.248l0.654,0.756l-0.755,0.653l-0.655-0.756L17.471,15.248z M23.227,15.731l0.008,1l-0.998,0.008l-0.008-1
		L23.227,15.731z M19.764,14.585L19.361,15.5c-0.174-0.075-0.403-0.079-0.588-0.008l-0.366-0.93
		C18.832,14.392,19.352,14.402,19.764,14.585z M24.749,15.72v1h-0.5v-1H24.749z"/>
</g>
<g>
</g>
<g>
</g>
<g>
</g>
<g>
</g>
<g>
</g>
<g>
</g>
<g>
</g>
<g>
</g>
<g>
</g>
<g>
</g>
<g>
</g>
<g>
</g>
<g>
</g>
<g>
</g>
<g>
</g>
</svg>
