<?xml version="1.0" encoding="iso-8859-1"?>
<!-- Generator: Adobe Illustrator 16.0.0, SVG Export Plug-In . SVG Version: 6.00 Build 0)  -->
<!DOCTYPE svg PUBLIC "-//W3C//DTD SVG 1.1//EN" "http://www.w3.org/Graphics/SVG/1.1/DTD/svg11.dtd">
<svg version="1.1" id="Capa_1" xmlns="http://www.w3.org/2000/svg" xmlns:xlink="http://www.w3.org/1999/xlink" x="0px" y="0px"
	 width="29.294px" height="29.295px" viewBox="0 0 29.294 29.295" style="enable-background:new 0 0 29.294 29.295;"
	 xml:space="preserve">
<g>
	<g>
		<path d="M14.646,20.882c3.455,0,6.264-2.81,6.264-6.264V6.265C20.91,2.81,18.1,0,14.646,0S8.382,2.81,8.382,6.265v8.353
			C8.382,18.072,11.191,20.882,14.646,20.882z M9.774,6.266c0-2.687,2.186-4.873,4.872-4.873c2.686,0,4.872,2.187,4.872,4.873v8.353
			c0,2.686-2.187,4.871-4.872,4.871c-2.686,0-4.872-2.186-4.872-4.871V6.266z"/>
		<path d="M23,9.947c-0.386,0-0.696,0.312-0.696,0.696v5.166c0,3.564-3.435,6.467-7.656,6.467c-4.221,0-7.656-2.901-7.656-6.467
			v-5.166c0-0.385-0.312-0.696-0.696-0.696c-0.384,0-0.696,0.312-0.696,0.696v5.166c0,3.926,3.337,7.182,7.677,7.758
			c-0.003,0.035-0.021,0.064-0.021,0.101v2.843h-2.784c-0.769,0-1.392,0.623-1.392,1.393s0.624,1.393,1.392,1.393h8.353
			c0.77,0,1.393-0.623,1.393-1.393s-0.625-1.393-1.393-1.393H16.04v-2.843c0-0.035-0.018-0.065-0.021-0.101
			c4.339-0.576,7.677-3.832,7.677-7.758v-5.166C23.694,10.258,23.382,9.947,23,9.947z"/>
		<path d="M12.558,9.876c0.709,0,1.278,0.562,1.313,1.262h1.549c0.036-0.7,0.604-1.262,1.313-1.262c0.71,0,1.278,0.562,1.313,1.262
			h0.078V8.484c-0.731,0-1.326-0.594-1.326-1.326c0-0.718,0.572-1.294,1.283-1.318c-0.213-1.716-1.665-3.054-3.438-3.054
			S11.42,4.124,11.206,5.84c0.712,0.024,1.284,0.601,1.284,1.318c0,0.732-0.594,1.326-1.327,1.326v2.654h0.078
			C11.28,10.438,11.848,9.876,12.558,9.876z M14.646,5.831c0.733,0,1.327,0.595,1.327,1.327c0,0.732-0.594,1.326-1.327,1.326
			s-1.327-0.594-1.327-1.326C13.319,6.426,13.913,5.831,14.646,5.831z"/>
	</g>
</g>
<g>
</g>
<g>
</g>
<g>
</g>
<g>
</g>
<g>
</g>
<g>
</g>
<g>
</g>
<g>
</g>
<g>
</g>
<g>
</g>
<g>
</g>
<g>
</g>
<g>
</g>
<g>
</g>
<g>
</g>
</svg>
