<?xml version="1.0" encoding="iso-8859-1"?>
<!-- Generator: Adobe Illustrator 16.0.0, SVG Export Plug-In . SVG Version: 6.00 Build 0)  -->
<!DOCTYPE svg PUBLIC "-//W3C//DTD SVG 1.1//EN" "http://www.w3.org/Graphics/SVG/1.1/DTD/svg11.dtd">
<svg version="1.1" id="Capa_1" xmlns="http://www.w3.org/2000/svg" xmlns:xlink="http://www.w3.org/1999/xlink" x="0px" y="0px"
	 width="28.148px" height="28.147px" viewBox="0 0 28.148 28.147" style="enable-background:new 0 0 28.148 28.147;"
	 xml:space="preserve">
<g>
	<g>
		<path d="M3.125,16.072c0.195-0.104,0.398-0.188,0.611-0.258V0.61h2.447v15.204c0.213,0.07,0.416,0.154,0.612,0.26V0H3.124
			L3.125,16.072L3.125,16.072z"/>
		<path d="M12.849,10.307V0.61h2.448v9.697c0.213,0.069,0.416,0.154,0.611,0.257V0h-3.671v10.565
			C12.433,10.463,12.637,10.377,12.849,10.307z"/>
		<path d="M21.962,4.802V0.611h2.447V4.8c0.213,0.069,0.416,0.154,0.612,0.258V0h-3.671v5.06C21.546,4.957,21.75,4.871,21.962,4.802
			z"/>
		<path d="M8.018,19.58c0-1.689-1.37-3.061-3.058-3.061c-1.69,0-3.06,1.371-3.06,3.061c0,0.998,0.485,1.875,1.224,2.434v6.134h3.671
			v-6.134C7.534,21.453,8.018,20.578,8.018,19.58z"/>
		<path d="M17.132,14.072c0-1.688-1.369-3.06-3.059-3.06c-1.689,0-3.06,1.371-3.06,3.061c0,0.996,0.484,1.873,1.223,2.433v11.642
			h3.671v-11.64C16.647,15.947,17.132,15.07,17.132,14.072z"/>
		<path d="M20.13,8.565c0,0.996,0.483,1.874,1.221,2.432v17.149h3.672V11c0.74-0.559,1.225-1.436,1.225-2.435
			c0-1.688-1.369-3.06-3.058-3.06C21.499,5.506,20.13,6.877,20.13,8.565z"/>
	</g>
</g>
<g>
</g>
<g>
</g>
<g>
</g>
<g>
</g>
<g>
</g>
<g>
</g>
<g>
</g>
<g>
</g>
<g>
</g>
<g>
</g>
<g>
</g>
<g>
</g>
<g>
</g>
<g>
</g>
<g>
</g>
</svg>
