<?xml version="1.0" encoding="iso-8859-1"?>
<!-- Generator: Adobe Illustrator 16.0.0, SVG Export Plug-In . SVG Version: 6.00 Build 0)  -->
<!DOCTYPE svg PUBLIC "-//W3C//DTD SVG 1.1//EN" "http://www.w3.org/Graphics/SVG/1.1/DTD/svg11.dtd">
<svg version="1.1" id="Capa_1" xmlns="http://www.w3.org/2000/svg" xmlns:xlink="http://www.w3.org/1999/xlink" x="0px" y="0px"
	 width="28.494px" height="28.494px" viewBox="0 0 28.494 28.494" style="enable-background:new 0 0 28.494 28.494;"
	 xml:space="preserve">
<g>
	<path d="M11.926,13.329l0.315-0.546l15.78,9.11l0.473-0.82l-16.058-9.271c0.576-2.613-0.534-5.405-2.977-6.815
		C6.443,3.247,2.587,4.279,0.846,7.295c-1.742,3.017-0.708,6.874,2.308,8.614c2.442,1.41,5.416,0.978,7.39-0.83l2.974,1.718
		l1.177-0.777l1.616,0.933l1.554,2.354l1.722-0.462l0.462,1.723l3.276,1.893l1.723-0.461l0.462,1.723l1.092,0.631l1.104-1.911
		L11.926,13.329z M4.1,14.271c-2.11-1.218-2.834-3.918-1.616-6.029c1.219-2.11,3.919-2.834,6.03-1.615
		C10.625,7.845,6.212,15.49,4.1,14.271z"/>
</g>
<g>
</g>
<g>
</g>
<g>
</g>
<g>
</g>
<g>
</g>
<g>
</g>
<g>
</g>
<g>
</g>
<g>
</g>
<g>
</g>
<g>
</g>
<g>
</g>
<g>
</g>
<g>
</g>
<g>
</g>
</svg>
