<?xml version="1.0" encoding="iso-8859-1"?>
<!-- Generator: Adobe Illustrator 16.0.0, SVG Export Plug-In . SVG Version: 6.00 Build 0)  -->
<!DOCTYPE svg PUBLIC "-//W3C//DTD SVG 1.1//EN" "http://www.w3.org/Graphics/SVG/1.1/DTD/svg11.dtd">
<svg version="1.1" id="Capa_1" xmlns="http://www.w3.org/2000/svg" xmlns:xlink="http://www.w3.org/1999/xlink" x="0px" y="0px"
	 width="27.538px" height="27.539px" viewBox="0 0 27.538 27.539" style="enable-background:new 0 0 27.538 27.539;"
	 xml:space="preserve">
<g>
	<path d="M25.887,2.974H1.652C0.743,2.974,0,3.717,0,4.626v14.32c0,0.909,0.726,1.815,1.612,2.015c0,0,2.749,0.613,9.954,0.722
		v1.276c-2.565,0.115-4.406,0.418-4.406,0.778c0,0.457,2.96,0.827,6.609,0.827s6.609-0.37,6.609-0.827
		c0-0.358-1.841-0.663-4.405-0.778v-1.276c7.205-0.108,9.953-0.722,9.953-0.722c0.887-0.199,1.612-1.105,1.612-2.015V4.626
		C27.539,3.717,26.795,2.974,25.887,2.974z M26.438,19.222c0,0.152-0.125,0.275-0.275,0.275H1.376c-0.151,0-0.275-0.125-0.275-0.275
		V4.351c0-0.152,0.124-0.275,0.275-0.275h24.785c0.151,0,0.274,0.124,0.274,0.275v14.871H26.438z"/>
</g>
<g>
</g>
<g>
</g>
<g>
</g>
<g>
</g>
<g>
</g>
<g>
</g>
<g>
</g>
<g>
</g>
<g>
</g>
<g>
</g>
<g>
</g>
<g>
</g>
<g>
</g>
<g>
</g>
<g>
</g>
</svg>
