<?xml version="1.0" encoding="iso-8859-1"?>
<!-- Generator: Adobe Illustrator 16.0.0, SVG Export Plug-In . SVG Version: 6.00 Build 0)  -->
<!DOCTYPE svg PUBLIC "-//W3C//DTD SVG 1.1//EN" "http://www.w3.org/Graphics/SVG/1.1/DTD/svg11.dtd">
<svg version="1.1" id="Capa_1" xmlns="http://www.w3.org/2000/svg" xmlns:xlink="http://www.w3.org/1999/xlink" x="0px" y="0px"
	 width="31.193px" height="31.193px" viewBox="0 0 31.193 31.193" style="enable-background:new 0 0 31.193 31.193;"
	 xml:space="preserve">
<g>
	<g>
		<path d="M16.192,7.657c-0.116-1.847-0.74-2.906-1.304-3.844c-0.592-0.988-1.15-1.919-1.15-3.812h-1.241
			c0,2.237,0.706,3.412,1.328,4.449c0.524,0.875,1.021,1.71,1.129,3.209C10.684,7.8,7.54,9.343,7.54,11.361v7.438v7.436
			c0,2.78,3.539,4.959,8.056,4.959c4.518,0,8.057-2.179,8.057-4.959v-7.436v-7.438C23.653,9.335,20.484,7.788,16.192,7.657z
			 M15.596,8.882c3.901,0,6.816,1.309,6.816,2.479v5.405c-1.399-1.028-3.873-1.687-6.816-1.687c-2.942,0-5.415,0.658-6.815,1.687
			v-5.405C8.781,10.191,11.696,8.882,15.596,8.882z"/>
		<path d="M15.596,14.46c0.514,0,0.93-0.417,0.93-0.93v-3.099c0-0.514-0.416-0.93-0.93-0.93c-0.513,0-0.929,0.416-0.929,0.93v3.099
			C14.667,14.043,15.083,14.46,15.596,14.46z"/>
	</g>
</g>
<g>
</g>
<g>
</g>
<g>
</g>
<g>
</g>
<g>
</g>
<g>
</g>
<g>
</g>
<g>
</g>
<g>
</g>
<g>
</g>
<g>
</g>
<g>
</g>
<g>
</g>
<g>
</g>
<g>
</g>
</svg>
