<?xml version="1.0" encoding="iso-8859-1"?>
<!-- Generator: Adobe Illustrator 16.0.0, SVG Export Plug-In . SVG Version: 6.00 Build 0)  -->
<!DOCTYPE svg PUBLIC "-//W3C//DTD SVG 1.1//EN" "http://www.w3.org/Graphics/SVG/1.1/DTD/svg11.dtd">
<svg version="1.1" id="Capa_1" xmlns="http://www.w3.org/2000/svg" xmlns:xlink="http://www.w3.org/1999/xlink" x="0px" y="0px"
	 width="27.567px" height="27.567px" viewBox="0 0 27.567 27.567" style="enable-background:new 0 0 27.567 27.567;"
	 xml:space="preserve">
<g>
	<g>
		<path d="M24.079,7.784c0-0.021-0.01-0.037-0.01-0.057L22.202,0.93C22.145,0.419,21.631,0,21.059,0H6.509
			C5.937,0,5.422,0.419,5.366,0.93L3.499,7.727c0,0.02-0.01,0.036-0.01,0.057v1.871c0,0.486,0.191,0.927,0.496,1.26l-0.486,2.813
			c0,0.02-0.01,0.036-0.01,0.057v1.871c0,0.486,0.191,0.927,0.496,1.26l-0.486,2.812c0,0.021-0.01,0.037-0.01,0.058v1.871
			c0,1.032,0.84,1.872,1.871,1.872h7.917v2.5h-2.458V25.49l-2.076,1.039l2.076,1.038v-0.538h3.458v-3.5h7.93
			c1.031,0,1.871-0.84,1.871-1.872v-1.871c0-0.021-0.01-0.037-0.01-0.058l-0.486-2.812c0.306-0.333,0.496-0.773,0.496-1.26v-1.871
			c0-0.021-0.01-0.037-0.01-0.057l-0.486-2.813c0.306-0.333,0.496-0.773,0.496-1.26L24.079,7.784L24.079,7.784z M23.143,21.655
			c0,0.517-0.422,0.937-0.937,0.937H5.36c-0.514,0-0.936-0.42-0.936-0.937v-1.871c0-0.517,0.422-0.937,0.936-0.937h16.848
			c0.514,0,0.936,0.42,0.936,0.937V21.655L23.143,21.655z M23.143,15.655c0,0.517-0.422,0.937-0.937,0.937H5.36
			c-0.514,0-0.936-0.42-0.936-0.937v-1.871c0-0.516,0.422-0.937,0.936-0.937h16.848c0.514,0,0.936,0.421,0.936,0.937V15.655
			L23.143,15.655z M23.143,9.655c0,0.516-0.422,0.937-0.937,0.937H5.36c-0.514,0-0.936-0.421-0.936-0.937V7.784
			c0-0.516,0.422-0.937,0.936-0.937h16.848c0.514,0,0.936,0.421,0.936,0.937V9.655L23.143,9.655z"/>
		<circle cx="6.443" cy="20.72" r="0.673"/>
		<circle cx="6.443" cy="14.72" r="0.673"/>
		<circle cx="6.443" cy="8.72" r="0.673"/>
	</g>
</g>
<g>
</g>
<g>
</g>
<g>
</g>
<g>
</g>
<g>
</g>
<g>
</g>
<g>
</g>
<g>
</g>
<g>
</g>
<g>
</g>
<g>
</g>
<g>
</g>
<g>
</g>
<g>
</g>
<g>
</g>
</svg>
