<?xml version="1.0" encoding="iso-8859-1"?>
<!-- Generator: Adobe Illustrator 16.0.0, SVG Export Plug-In . SVG Version: 6.00 Build 0)  -->
<!DOCTYPE svg PUBLIC "-//W3C//DTD SVG 1.1//EN" "http://www.w3.org/Graphics/SVG/1.1/DTD/svg11.dtd">
<svg version="1.1" id="Capa_1" xmlns="http://www.w3.org/2000/svg" xmlns:xlink="http://www.w3.org/1999/xlink" x="0px" y="0px"
	 width="28.605px" height="28.605px" viewBox="0 0 28.605 28.605" style="enable-background:new 0 0 28.605 28.605;"
	 xml:space="preserve">
<g>
	<path d="M21.851,2.264c0-1.25-3.382-2.264-7.548-2.264S6.755,1.015,6.755,2.264c0,1.01,2.224,1.857,5.271,2.149l1.812,1.95
		L9.269,23.955l5.034,4.65l5.043-4.65L14.771,6.366l1.812-1.955C19.629,4.12,21.851,3.274,21.851,2.264z M9.019,2.264
		c0-1,2.37-1.812,5.284-1.812s5.284,0.812,5.284,1.812c0,1.001-2.37,1.813-5.284,1.813S9.019,3.265,9.019,2.264z"/>
</g>
<g>
</g>
<g>
</g>
<g>
</g>
<g>
</g>
<g>
</g>
<g>
</g>
<g>
</g>
<g>
</g>
<g>
</g>
<g>
</g>
<g>
</g>
<g>
</g>
<g>
</g>
<g>
</g>
<g>
</g>
</svg>
