<?xml version="1.0" standalone="no"?>
<!DOCTYPE svg PUBLIC "-//W3C//DTD SVG 20010904//EN"
 "http://www.w3.org/TR/2001/REC-SVG-20010904/DTD/svg10.dtd">
<svg version="1.0" xmlns="http://www.w3.org/2000/svg"
 width="200.000000pt" height="200.000000pt" viewBox="0 0 200.000000 200.000000"
 preserveAspectRatio="xMidYMid meet">

<g transform="translate(0.000000,200.000000) scale(0.100000,-0.100000)"
fill="#000000" stroke="none">
<path d="M635 1811 c-75 -19 -85 -31 -314 -382 -123 -189 -237 -364 -254 -388
-37 -53 -47 -123 -24 -167 18 -34 523 -563 591 -619 l46 -38 341 -35 c375 -38
392 -37 448 16 16 15 82 119 147 232 65 113 165 284 222 380 109 183 127 232
104 291 -11 28 -341 424 -481 578 -49 54 -101 100 -121 109 -53 23 -629 41
-705 23z m641 -67 c37 -7 35 -30 -15 -131 -26 -54 -51 -109 -55 -123 l-7 -25
21 25 c11 14 46 60 76 102 31 43 60 80 65 83 10 7 65 -51 205 -216 335 -393
331 -389 318 -433 -4 -11 -32 -64 -64 -116 -31 -52 -130 -221 -219 -375 -89
-154 -171 -288 -183 -297 -28 -25 -71 -23 -416 13 -292 30 -296 30 -333 59
-32 26 -174 172 -486 498 -100 105 -111 131 -75 183 9 15 29 44 43 65 35 52
219 334 332 509 109 169 115 176 164 185 38 7 590 2 629 -6z"/>
<path d="M599 1663 c-17 -15 -38 -42 -46 -61 -12 -30 -12 -37 2 -58 27 -41 99
-25 144 32 62 79 -22 152 -100 87z"/>
<path d="M994 1645 c-60 -47 -70 -128 -19 -141 55 -14 124 32 139 92 17 67
-59 98 -120 49z"/>
<path d="M1365 1340 c-64 -15 -134 -70 -178 -141 -54 -88 -74 -259 -42 -365
20 -69 67 -138 113 -169 48 -32 132 -43 186 -25 61 20 138 99 177 182 33 70
34 78 34 188 0 106 -2 120 -29 178 -29 62 -87 125 -129 141 -37 14 -100 19
-132 11z m133 -100 c17 -11 32 -22 32 -26 0 -3 -24 -43 -54 -89 -73 -111 -86
-109 -117 22 -27 109 -25 113 56 113 32 0 61 -7 83 -20z m-205 -237 c31 -5 40
-12 52 -39 14 -33 13 -36 -38 -115 l-51 -81 -23 26 c-29 34 -43 86 -43 165 l0
64 33 -7 c17 -4 49 -9 70 -13z m117 -18 c0 -25 -23 -35 -35 -15 -10 16 2 40
20 40 9 0 15 -9 15 -25z m153 -31 c32 -7 33 -14 8 -79 -32 -84 -111 -161 -111
-108 0 10 -10 48 -21 85 -18 57 -20 73 -10 94 11 24 15 26 59 20 26 -4 59 -9
75 -12z"/>
<path d="M279 1163 c-17 -15 -38 -42 -46 -61 -12 -30 -12 -37 2 -58 39 -60
165 11 165 94 0 26 -31 52 -63 52 -14 0 -40 -12 -58 -27z"/>
<path d="M675 1128 c-68 -63 -54 -147 23 -134 42 6 79 39 99 84 12 30 12 37
-2 58 -24 37 -76 33 -120 -8z"/>
<path d="M902 1020 c-51 -68 -93 -115 -110 -121 -15 -6 -83 -10 -152 -9 -222
4 -236 -2 -59 -25 198 -26 201 -28 330 -165 104 -111 194 -193 174 -159 -5 8
-31 43 -59 78 -92 117 -166 226 -166 244 0 23 22 65 72 141 42 63 72 126 60
126 -4 0 -45 -50 -90 -110z"/>
<path d="M641 766 c-23 -28 24 -82 102 -116 122 -54 115 44 -8 109 -46 25 -78
27 -94 7z"/>
<path d="M607 453 c-40 -39 107 -163 167 -140 42 16 -4 91 -77 126 -44 21 -78
27 -90 14z"/>
</g>
</svg>
