<?xml version="1.0" standalone="no"?>
<!DOCTYPE svg PUBLIC "-//W3C//DTD SVG 20010904//EN"
 "http://www.w3.org/TR/2001/REC-SVG-20010904/DTD/svg10.dtd">
<svg version="1.0" xmlns="http://www.w3.org/2000/svg"
 width="280.000000pt" height="280.000000pt" viewBox="0 0 280.000000 280.000000"
 preserveAspectRatio="xMidYMid meet">

<g transform="translate(0.000000,280.000000) scale(0.100000,-0.100000)"
fill="#000000" stroke="none">
<path d="M601 2642 c-59 -29 -91 -60 -91 -87 0 -12 18 -38 41 -60 23 -22 59
-67 80 -99 35 -54 39 -65 39 -125 0 -46 -6 -75 -18 -96 -10 -17 -21 -41 -25
-55 -3 -14 -11 -43 -17 -65 -25 -91 -33 -182 -33 -400 0 -236 7 -306 36 -362
9 -18 17 -54 17 -80 0 -26 8 -68 16 -93 9 -25 20 -58 24 -75 4 -16 20 -61 35
-100 15 -38 36 -95 47 -125 11 -30 28 -64 38 -75 10 -11 19 -26 21 -33 4 -11
98 -113 289 -313 80 -82 88 -88 115 -81 47 13 51 32 16 87 -17 28 -60 107 -96
177 -39 76 -75 134 -90 144 -15 10 -25 26 -25 40 0 13 -18 61 -40 106 -33 66
-39 87 -31 104 6 13 6 36 0 60 -4 22 -9 165 -9 319 0 256 2 285 20 335 11 30
20 67 20 83 0 16 13 56 29 90 16 34 37 84 46 111 9 27 32 67 51 88 18 21 34
48 34 61 0 24 66 133 95 157 10 8 35 39 57 67 49 67 98 93 176 93 48 0 66 -5
103 -29 24 -17 55 -45 69 -63 36 -48 109 -194 130 -259 10 -31 30 -79 44 -107
14 -28 26 -59 26 -69 0 -10 10 -38 21 -63 26 -56 59 -258 68 -410 3 -63 10
-121 14 -128 5 -7 8 -136 8 -287 0 -246 -2 -278 -19 -312 -21 -43 -33 -84 -57
-193 -17 -77 -72 -187 -130 -259 -44 -55 -79 -125 -72 -145 11 -27 36 -30 61
-7 12 11 27 21 34 21 12 0 240 227 313 311 25 30 53 74 62 99 16 43 28 64 71
124 22 31 34 76 46 181 24 194 29 223 45 275 15 49 17 89 12 345 -5 285 -11
335 -47 451 -6 17 -10 55 -10 86 0 30 -3 58 -7 62 -10 10 -33 78 -33 99 0 15
-41 101 -78 161 -29 48 7 121 116 230 28 29 52 60 52 68 0 41 2 41 -847 42
l-818 1 -44 -23z"/>
<path d="M1410 1803 c-14 -9 -42 -34 -62 -55 l-38 -40 0 -108 c0 -105 1 -109
35 -166 56 -92 70 -104 130 -104 49 0 53 2 107 58 72 74 78 87 78 172 0 107
-51 199 -132 241 -46 23 -86 24 -118 2z"/>
</g>
</svg>
