<?xml version="1.0" encoding="iso-8859-1"?>
<!-- Generator: Adobe Illustrator 16.0.0, SVG Export Plug-In . SVG Version: 6.00 Build 0)  -->
<!DOCTYPE svg PUBLIC "-//W3C//DTD SVG 1.1//EN" "http://www.w3.org/Graphics/SVG/1.1/DTD/svg11.dtd">
<svg version="1.1" id="Capa_1" xmlns="http://www.w3.org/2000/svg" xmlns:xlink="http://www.w3.org/1999/xlink" x="0px" y="0px"
	 width="29.542px" height="29.542px" viewBox="0 0 29.542 29.542" style="enable-background:new 0 0 29.542 29.542;"
	 xml:space="preserve">
<g>
	<g>
		<path d="M14.771,6.77c6.109,0,7.385,2.391,7.385,3.692h7.386c0-4.911-6.351-8.616-14.771-8.616C6.35,1.846,0,5.551,0,10.462h7.386
			C7.386,9.161,8.662,6.77,14.771,6.77z"/>
		<rect y="11.079" width="7.386" height="3.808"/>
		<rect x="22.156" y="11.079" width="7.386" height="3.808"/>
		<circle cx="14.771" cy="20.925" r="3.077"/>
		<path d="M18.464,8.434c-0.702-0.202-1.591-0.349-2.692-0.405v5.127h-2V8.029c-1.102,0.057-1.99,0.203-2.693,0.405v5.722
			l-8.616,4.925v8.615H27.08v-8.615l-8.616-4.925V8.434z M19.695,20.924c0,2.721-2.204,4.925-4.924,4.925s-4.924-2.204-4.924-4.925
			c0-2.719,2.204-4.924,4.924-4.924S19.695,18.208,19.695,20.924z"/>
	</g>
</g>
<g>
</g>
<g>
</g>
<g>
</g>
<g>
</g>
<g>
</g>
<g>
</g>
<g>
</g>
<g>
</g>
<g>
</g>
<g>
</g>
<g>
</g>
<g>
</g>
<g>
</g>
<g>
</g>
<g>
</g>
</svg>
