<?xml version="1.0" encoding="iso-8859-1"?>
<!-- Generator: Adobe Illustrator 16.0.0, SVG Export Plug-In . SVG Version: 6.00 Build 0)  -->
<!DOCTYPE svg PUBLIC "-//W3C//DTD SVG 1.1//EN" "http://www.w3.org/Graphics/SVG/1.1/DTD/svg11.dtd">
<svg version="1.1" id="Capa_1" xmlns="http://www.w3.org/2000/svg" xmlns:xlink="http://www.w3.org/1999/xlink" x="0px" y="0px"
	 width="30.472px" height="30.472px" viewBox="0 0 30.472 30.472" style="enable-background:new 0 0 30.472 30.472;"
	 xml:space="preserve">
<g>
	<g>
		<path d="M9.753,5.78c-0.188-0.328-0.612-0.441-0.94-0.252L1.05,10.009l6.532,11.315c-0.176,0.271-2.951,4.593-2.951,6.18
			c0,1.64,1.329,2.968,2.968,2.968c1.64,0,2.969-1.328,2.969-2.968c0-1.531-2.588-5.615-2.93-6.146l7.735-4.468
			c0.328-0.188,0.442-0.612,0.252-0.939L9.753,5.78z M6.874,28.54c-0.595,0-1.076-0.482-1.076-1.077s1.076-2.251,1.076-2.251
			s1.077,1.657,1.077,2.251S7.467,28.54,6.874,28.54z"/>
		<path d="M29.039,1.425c-0.786-1.363-2.531-1.83-3.895-1.042c-0.062,0.036-0.111,0.082-0.168,0.12
			c-0.082,0.02-0.162,0.057-0.236,0.113L16.397,6.93c-0.302,0.229-0.702,0.148-0.893-0.18l-2.202-3.815
			c-0.189-0.327-0.581-0.396-0.869-0.151l-1.904,1.611c-0.288,0.245-0.37,0.713-0.181,1.041l5.872,10.172
			c0.19,0.328,0.636,0.49,0.992,0.362l2.348-0.842c0.355-0.128,0.492-0.501,0.305-0.829l-2.203-3.815
			c-0.189-0.328-0.061-0.716,0.289-0.863l9.641-4.067c0.085-0.037,0.158-0.087,0.216-0.147c0.063-0.03,0.128-0.051,0.188-0.086
			C29.359,4.534,29.828,2.79,29.039,1.425z M27.085,3.746c-0.493,0.285-1.125,0.116-1.41-0.378
			c-0.285-0.493-0.115-1.124,0.378-1.409c0.494-0.285,1.125-0.117,1.409,0.376C27.749,2.83,27.58,3.461,27.085,3.746z"/>
	</g>
</g>
<g>
</g>
<g>
</g>
<g>
</g>
<g>
</g>
<g>
</g>
<g>
</g>
<g>
</g>
<g>
</g>
<g>
</g>
<g>
</g>
<g>
</g>
<g>
</g>
<g>
</g>
<g>
</g>
<g>
</g>
</svg>
