<?xml version="1.0" encoding="iso-8859-1"?>
<!-- Generator: Adobe Illustrator 16.0.0, SVG Export Plug-In . SVG Version: 6.00 Build 0)  -->
<!DOCTYPE svg PUBLIC "-//W3C//DTD SVG 1.1//EN" "http://www.w3.org/Graphics/SVG/1.1/DTD/svg11.dtd">
<svg version="1.1" id="Capa_1" xmlns="http://www.w3.org/2000/svg" xmlns:xlink="http://www.w3.org/1999/xlink" x="0px" y="0px"
	 width="25px" height="25px" viewBox="0 0 25 25" style="enable-background:new 0 0 25 25;" xml:space="preserve">
<g>
	<g>
		<path d="M11.568,7.18l0.256,0.028C12.082,7.236,12.297,7.25,12.5,7.25s0.418-0.014,0.676-0.042l0.256-0.028l-0.035-0.256
			C13.241,5.84,13.02,5,12.79,4.623l-0.103-0.111L12.51,4.5l-0.228,0.006l-0.071,0.118C11.981,5,11.76,5.84,11.605,6.924
			L11.568,7.18z"/>
		<path d="M11.38,11.004c0.013,0.821,0.058,1.602,0.132,2.318l0.025,0.251l0.25-0.028c0.547-0.062,0.879-0.062,1.426,0l0.25,0.028
			l0.025-0.251c0.074-0.717,0.119-1.497,0.132-2.318l0.004-0.254h-2.248L11.38,11.004z"/>
		<path d="M8.891,11.014c0.053,1.042,0.271,2.059,0.631,2.938l0.098,0.239l0.237-0.106c0.386-0.178,0.797-0.315,1.221-0.414
			l0.216-0.051L11.27,13.4c-0.094-0.926-0.127-1.818-0.139-2.406l-0.005-0.244H8.877L8.891,11.014z"/>
		<path d="M9.855,6.347L9.724,6.583L9.97,6.695c0.357,0.163,0.721,0.291,1.079,0.379l0.269,0.066l0.039-0.275
			c0.11-0.797,0.257-1.438,0.436-1.904l0.236-0.619l-0.586,0.309C10.842,4.966,10.293,5.553,9.855,6.347z"/>
		<path d="M13.62,9.996c-0.013-0.821-0.058-1.602-0.132-2.318l-0.025-0.251l-0.25,0.028c-0.547,0.062-0.879,0.062-1.426,0
			l-0.25-0.028l-0.025,0.251c-0.074,0.717-0.119,1.497-0.132,2.318l-0.004,0.254h2.248L13.62,9.996z"/>
		<path d="M13.73,13.4l-0.022,0.219l0.216,0.05c0.43,0.099,0.846,0.241,1.234,0.421l0.238,0.109l0.098-0.243
			c0.352-0.87,0.564-1.888,0.615-2.944l0.014-0.262h-2.248l-0.006,0.244C13.857,11.578,13.824,12.469,13.73,13.4z"/>
		<path d="M13.643,6.865l0.039,0.275l0.27-0.066c0.365-0.09,0.734-0.221,1.098-0.388l0.243-0.112L15.163,6.34
			c-0.438-0.803-0.994-1.391-1.612-1.703l-0.578-0.292l0.231,0.605C13.383,5.416,13.531,6.061,13.643,6.865z"/>
		<path d="M15.387,6.225l0.127,0.232l0.225-0.141c0.111-0.07,0.222-0.146,0.328-0.225l0.277-0.198L16.07,5.688
			c-0.26-0.192-0.523-0.361-0.787-0.499l-0.973-0.512l0.654,0.881C15.107,5.75,15.248,5.975,15.387,6.225z"/>
		<path d="M7.973,18.83c-0.065-0.04-0.142-0.066-0.229-0.081s-0.178-0.021-0.271-0.021H6.835v1.117h0.638
			c0.094,0,0.185-0.007,0.271-0.021c0.088-0.015,0.164-0.042,0.229-0.081c0.066-0.041,0.12-0.098,0.16-0.17
			c0.04-0.073,0.06-0.169,0.06-0.288c0-0.118-0.02-0.214-0.06-0.287S8.039,18.87,7.973,18.83z"/>
		<path d="M11.27,7.6l0.022-0.219l-0.216-0.05c-0.423-0.098-0.834-0.237-1.22-0.414L9.619,6.809l-0.098,0.24
			C9.162,7.928,8.943,8.944,8.89,9.987L8.876,10.25h2.248l0.006-0.244C11.143,9.418,11.176,8.525,11.27,7.6z"/>
		<path d="M16.109,9.988c-0.051-1.057-0.264-2.074-0.615-2.944l-0.098-0.243L15.158,6.91c-0.389,0.18-0.805,0.322-1.235,0.42
			l-0.216,0.051L13.73,7.6c0.094,0.932,0.127,1.822,0.139,2.406l0.005,0.244h2.249L16.109,9.988z"/>
		<path d="M13.432,13.82l-0.256-0.028c-0.515-0.058-0.837-0.058-1.352,0l-0.256,0.028l0.036,0.256
			C11.759,15.16,11.98,16,12.21,16.377l0.102,0.111L12.5,16.5l0.218-0.006l0.071-0.118c0.23-0.376,0.451-1.216,0.605-2.3
			L13.432,13.82z"/>
		<path d="M16.359,10.988c-0.051,1.137-0.277,2.221-0.656,3.133l-0.082,0.197l0.184,0.111c0.178,0.108,0.358,0.233,0.553,0.383
			l0.172,0.131l0.154-0.15c1.029-1.005,1.666-2.344,1.791-3.771l0.022-0.271h-2.126L16.359,10.988z"/>
		<path d="M15.162,14.66l0.129-0.234l-0.243-0.111c-0.362-0.168-0.731-0.299-1.098-0.389l-0.271-0.064l-0.037,0.273
			c-0.111,0.805-0.261,1.449-0.439,1.915l-0.232,0.605l0.579-0.292C14.168,16.051,14.725,15.463,15.162,14.66z"/>
		<path d="M15.738,14.684l-0.227-0.141l-0.127,0.232c-0.138,0.25-0.277,0.475-0.421,0.664l-0.653,0.883l0.972-0.512
			c0.264-0.139,0.528-0.308,0.788-0.5l0.273-0.203l-0.277-0.199C15.959,14.83,15.85,14.754,15.738,14.684z"/>
		<polygon points="10.539,19.01 10.053,20.38 11.02,20.38 10.549,19.01 		"/>
		<path d="M9.262,6.316l0.226,0.141l0.127-0.232c0.137-0.25,0.278-0.475,0.421-0.665l0.654-0.882L9.718,5.19
			C9.455,5.328,9.19,5.496,8.93,5.689L8.657,5.893l0.276,0.199C9.041,6.17,9.15,6.246,9.262,6.316z"/>
		<path d="M16.527,6.057l-0.172,0.131c-0.192,0.148-0.373,0.273-0.553,0.382L15.62,6.682l0.082,0.197
			c0.379,0.912,0.606,1.996,0.657,3.133l0.011,0.238h2.126l-0.023-0.271c-0.123-1.428-0.761-2.767-1.789-3.771L16.527,6.057z"/>
		<path d="M8.641,10.012c0.05-1.137,0.277-2.221,0.656-3.133l0.082-0.198L9.196,6.57C9.02,6.464,8.84,6.338,8.642,6.188L8.47,6.056
			L8.316,6.207c-1.03,1.004-1.666,2.344-1.79,3.771l-0.023,0.271h2.126L8.641,10.012z"/>
		<path d="M20.5,0h-16c-1.1,0-2,0.9-2,2v21c0,1.1,0.9,2,2,2h16c1.1,0,2-0.9,2-2V2C22.5,0.9,21.6,0,20.5,0z M8.292,20.382
			c-0.164,0.068-0.362,0.103-0.595,0.103H6.834v1.338h-0.82v-3.73h1.684c0.232,0,0.431,0.034,0.595,0.102
			c0.163,0.068,0.298,0.158,0.399,0.271c0.104,0.111,0.178,0.239,0.226,0.384c0.046,0.146,0.07,0.293,0.07,0.441
			c0,0.152-0.024,0.302-0.07,0.443c-0.048,0.145-0.122,0.271-0.226,0.383C8.59,20.225,8.455,20.312,8.292,20.382z M11.516,21.82
			l-0.282-0.829H9.839L9.546,21.82h-0.83l1.416-3.729h0.841l1.395,3.729H11.516z M15.497,21.188
			c-0.065,0.146-0.165,0.273-0.296,0.379c-0.131,0.106-0.293,0.19-0.486,0.252c-0.191,0.062-0.416,0.092-0.671,0.092
			c-0.205,0-0.405-0.026-0.599-0.078c-0.192-0.053-0.362-0.133-0.51-0.241c-0.146-0.106-0.264-0.243-0.353-0.411
			c-0.089-0.169-0.132-0.365-0.128-0.597h0.794c0,0.126,0.022,0.231,0.067,0.319c0.045,0.087,0.105,0.156,0.181,0.211
			c0.075,0.054,0.162,0.094,0.262,0.119c0.099,0.026,0.204,0.041,0.315,0.041c0.072,0,0.152-0.006,0.234-0.02
			c0.084-0.013,0.162-0.036,0.235-0.07c0.073-0.035,0.134-0.082,0.183-0.145c0.049-0.061,0.073-0.139,0.073-0.232
			c0-0.101-0.032-0.183-0.097-0.244c-0.064-0.063-0.148-0.117-0.253-0.16s-0.224-0.08-0.354-0.109
			c-0.133-0.029-0.268-0.062-0.402-0.102c-0.141-0.035-0.275-0.077-0.407-0.129c-0.134-0.051-0.251-0.115-0.354-0.195
			c-0.104-0.08-0.189-0.18-0.255-0.299c-0.063-0.118-0.097-0.264-0.097-0.438c0-0.191,0.041-0.357,0.124-0.499
			c0.081-0.142,0.188-0.259,0.319-0.353c0.134-0.096,0.283-0.164,0.449-0.209c0.168-0.047,0.336-0.068,0.502-0.068
			c0.194,0,0.383,0.021,0.562,0.064c0.179,0.045,0.339,0.115,0.479,0.213c0.141,0.097,0.25,0.222,0.332,0.373
			c0.082,0.152,0.123,0.336,0.123,0.552h-0.796c-0.006-0.111-0.028-0.204-0.069-0.277s-0.094-0.131-0.158-0.172
			c-0.067-0.042-0.145-0.071-0.23-0.089c-0.088-0.018-0.18-0.025-0.277-0.025c-0.064,0-0.133,0.006-0.197,0.021
			c-0.066,0.015-0.126,0.038-0.18,0.073c-0.056,0.035-0.1,0.078-0.135,0.133s-0.052,0.119-0.052,0.195
			c0,0.073,0.015,0.133,0.042,0.179c0.027,0.045,0.082,0.086,0.164,0.123c0.081,0.036,0.195,0.075,0.34,0.114
			s0.333,0.09,0.566,0.148c0.045,0.012,0.104,0.025,0.178,0.045c0.072,0.02,0.15,0.045,0.232,0.078s0.164,0.076,0.244,0.128
			c0.082,0.054,0.157,0.116,0.227,0.192c0.066,0.076,0.122,0.169,0.164,0.274c0.042,0.106,0.062,0.229,0.062,0.368
			C15.596,20.884,15.562,21.043,15.497,21.188z M18.889,21.188c-0.066,0.146-0.166,0.273-0.297,0.379
			c-0.131,0.106-0.292,0.19-0.486,0.252c-0.191,0.062-0.416,0.092-0.67,0.092c-0.205,0-0.406-0.026-0.6-0.078
			c-0.191-0.053-0.361-0.133-0.509-0.241c-0.146-0.106-0.265-0.243-0.353-0.411c-0.09-0.169-0.133-0.365-0.129-0.597h0.795
			c0,0.126,0.022,0.231,0.067,0.319c0.045,0.087,0.104,0.156,0.181,0.211c0.074,0.054,0.161,0.094,0.262,0.119
			c0.099,0.026,0.205,0.041,0.315,0.041c0.072,0,0.151-0.006,0.234-0.02c0.084-0.013,0.161-0.036,0.235-0.07
			c0.072-0.035,0.133-0.082,0.183-0.145c0.049-0.061,0.073-0.139,0.073-0.232c0-0.101-0.032-0.183-0.098-0.244
			c-0.064-0.063-0.148-0.117-0.253-0.16s-0.223-0.08-0.354-0.109c-0.133-0.029-0.266-0.062-0.402-0.102
			c-0.141-0.035-0.275-0.077-0.407-0.129c-0.133-0.051-0.251-0.115-0.354-0.195c-0.104-0.08-0.189-0.18-0.254-0.299
			c-0.064-0.118-0.096-0.264-0.096-0.438c0-0.191,0.039-0.357,0.123-0.499c0.08-0.142,0.188-0.259,0.319-0.353
			c0.133-0.096,0.282-0.164,0.45-0.209c0.166-0.047,0.334-0.068,0.501-0.068c0.194,0,0.382,0.021,0.562,0.064
			c0.18,0.045,0.34,0.115,0.479,0.213c0.141,0.097,0.251,0.222,0.332,0.373c0.082,0.152,0.123,0.336,0.123,0.552h-0.795
			c-0.006-0.111-0.029-0.204-0.07-0.277c-0.04-0.073-0.094-0.131-0.158-0.172c-0.066-0.042-0.145-0.071-0.23-0.089
			s-0.18-0.025-0.275-0.025c-0.066,0-0.134,0.006-0.198,0.021c-0.067,0.015-0.127,0.038-0.181,0.073
			c-0.055,0.035-0.1,0.078-0.135,0.133c-0.034,0.055-0.051,0.119-0.051,0.195c0,0.073,0.014,0.133,0.041,0.179
			c0.027,0.045,0.082,0.086,0.164,0.123c0.082,0.036,0.195,0.075,0.34,0.114c0.146,0.039,0.334,0.09,0.566,0.148
			c0.045,0.012,0.104,0.025,0.178,0.045c0.073,0.02,0.15,0.045,0.233,0.078c0.081,0.033,0.163,0.076,0.245,0.128
			c0.081,0.054,0.156,0.116,0.225,0.192c0.067,0.076,0.122,0.169,0.164,0.274c0.042,0.106,0.062,0.229,0.062,0.368
			C18.986,20.884,18.953,21.043,18.889,21.188z M12.5,17C8.916,17,6,14.084,6,10.5S8.916,4,12.5,4S19,6.916,19,10.5
			S16.084,17,12.5,17z"/>
		<path d="M9.379,14.318l-0.082-0.197c-0.379-0.912-0.606-1.996-0.657-3.133L8.629,10.75H6.503l0.023,0.271
			c0.124,1.428,0.76,2.768,1.79,3.771l0.154,0.149l0.172-0.131c0.197-0.148,0.378-0.273,0.554-0.381L9.379,14.318z"/>
		<path d="M9.614,14.775l-0.127-0.232l-0.225,0.141c-0.112,0.07-0.222,0.146-0.33,0.226l-0.276,0.198l0.273,0.205
			c0.26,0.192,0.525,0.361,0.788,0.498l0.972,0.513l-0.654-0.882C9.893,15.25,9.751,15.025,9.614,14.775z"/>
		<path d="M11.357,14.135l-0.039-0.275l-0.269,0.066c-0.358,0.09-0.722,0.217-1.079,0.379l-0.245,0.111l0.13,0.236
			c0.438,0.795,0.986,1.382,1.588,1.697l0.586,0.309l-0.236-0.619C11.614,15.572,11.468,14.932,11.357,14.135z"/>
	</g>
</g>
<g>
</g>
<g>
</g>
<g>
</g>
<g>
</g>
<g>
</g>
<g>
</g>
<g>
</g>
<g>
</g>
<g>
</g>
<g>
</g>
<g>
</g>
<g>
</g>
<g>
</g>
<g>
</g>
<g>
</g>
</svg>
