<?xml version="1.0" encoding="iso-8859-1"?>
<!-- Generator: Adobe Illustrator 16.0.0, SVG Export Plug-In . SVG Version: 6.00 Build 0)  -->
<!DOCTYPE svg PUBLIC "-//W3C//DTD SVG 1.1//EN" "http://www.w3.org/Graphics/SVG/1.1/DTD/svg11.dtd">
<svg version="1.1" id="Capa_1" xmlns="http://www.w3.org/2000/svg" xmlns:xlink="http://www.w3.org/1999/xlink" x="0px" y="0px"
	 width="30px" height="30px" viewBox="0 0 30 30" style="enable-background:new 0 0 30 30;" xml:space="preserve">
<g>
	<g>
		<path d="M15,0C6.729,0,0,6.729,0,15c0,8.271,6.729,15,15,15c8.271,0,15-6.729,15-15C30,6.729,23.271,0,15,0z M15,27.777
			C7.956,27.777,2.223,22.046,2.223,15S7.956,2.223,15,2.223S27.777,7.954,27.777,15S22.044,27.777,15,27.777z"/>
		<path d="M20.812,9.548c0.662,0.917,0.891,2.104,0.633,3.553c-0.269,1.532-1.047,2.788-2.312,3.732
			c-1.22,0.907-2.705,1.366-4.423,1.366h-0.116l-0.513,2.924l-0.2,1.131h-1.148H10.08H9.522l-0.16,0.914h1.63h2.652h1.148l0.2-1.133
			l0.513-2.922h0.116c1.718,0,3.206-0.461,4.423-1.368c1.267-0.945,2.044-2.201,2.313-3.73c0.277-1.564,0.017-2.836-0.774-3.779
			C21.361,9.974,21.104,9.744,20.812,9.548z"/>
		<path d="M12.969,21.343l0.197-1.131l0.517-2.924h0.115c1.718,0,3.203-0.459,4.423-1.367c1.266-0.947,2.045-2.2,2.313-3.732
			c0.274-1.564,0.014-2.834-0.777-3.779c-0.878-1.046-2.345-1.578-4.356-1.578h-4.154h-1.147l-0.2,1.132L7.822,19.736l-0.284,1.606
			h1.633h2.65H12.969z M11.244,8.202h4.154c2.967,0,4.229,1.25,3.787,3.751c-0.207,1.184-0.805,2.139-1.783,2.871
			c-0.979,0.73-2.18,1.096-3.604,1.096h-1.264l-0.716,4.055h-2.65L11.244,8.202z"/>
		<path d="M16.378,12.052c0.211-1.21-0.388-1.814-1.799-1.814h-1.044l-0.646,3.668h1.044C15.346,13.906,16.16,13.288,16.378,12.052z
			"/>
	</g>
</g>
<g>
</g>
<g>
</g>
<g>
</g>
<g>
</g>
<g>
</g>
<g>
</g>
<g>
</g>
<g>
</g>
<g>
</g>
<g>
</g>
<g>
</g>
<g>
</g>
<g>
</g>
<g>
</g>
<g>
</g>
</svg>
