<?xml version="1.0" encoding="iso-8859-1"?>
<!-- Generator: Adobe Illustrator 16.0.0, SVG Export Plug-In . SVG Version: 6.00 Build 0)  -->
<!DOCTYPE svg PUBLIC "-//W3C//DTD SVG 1.1//EN" "http://www.w3.org/Graphics/SVG/1.1/DTD/svg11.dtd">
<svg version="1.1" id="Capa_1" xmlns="http://www.w3.org/2000/svg" xmlns:xlink="http://www.w3.org/1999/xlink" x="0px" y="0px"
	 width="30.46px" height="30.46px" viewBox="0 0 30.46 30.46" style="enable-background:new 0 0 30.46 30.46;" xml:space="preserve"
	>
<g>
	<g>
		<path d="M30.277,19.982l-1.18-2.215c-0.175-0.326-0.464-0.615-0.801-0.84c0.21-0.277,0.342-0.623,0.342-1v-5.579
			c0-0.923-0.752-1.675-1.676-1.675h-8.926c-0.924,0-1.675,0.752-1.675,1.675v5.579c0,0.377,0.13,0.723,0.34,1
			c-0.337,0.225-0.626,0.514-0.8,0.84l-1.182,2.215c-0.231,0.435-0.242,0.889-0.029,1.244c0.213,0.356,0.619,0.56,1.112,0.56h13.39
			c0.494,0,0.899-0.202,1.113-0.56C30.521,20.871,30.51,20.417,30.277,19.982z M17.479,10.349c0-0.308,0.25-0.559,0.56-0.559h8.926
			c0.308,0,0.558,0.251,0.558,0.559v5.579c0,0.309-0.25,0.559-0.558,0.559h-8.926c-0.31,0-0.56-0.25-0.56-0.559V10.349z
			 M29.195,20.67H15.804c-0.084,0-0.131-0.016-0.146-0.016c0,0-0.002,0-0.003,0.002c0.001-0.02,0.009-0.069,0.052-0.15l1.182-2.215
			c0.192-0.359,0.739-0.688,1.149-0.688h8.926c0.408,0,0.956,0.328,1.147,0.688l1.183,2.215c0.043,0.081,0.05,0.131,0.058,0.139
			C29.333,20.652,29.286,20.67,29.195,20.67z"/>
		<polygon points="21.043,19.434 20.486,20.322 24.514,20.322 23.957,19.434 		"/>
		<path d="M11.161,12.301H5.057v-0.288c0-0.481-0.395-0.876-0.875-0.876h-1.93c-0.48,0-0.875,0.395-0.875,0.876v0.288H0.875
			C0.395,12.301,0,12.695,0,13.178v5.269c0,0.482,0.395,0.877,0.875,0.877h10.286c0.48,0,0.875-0.395,0.875-0.877v-5.269
			C12.036,12.695,11.641,12.301,11.161,12.301z M6.018,18.219c-1.33,0-2.408-1.078-2.408-2.408c0-1.328,1.078-2.406,2.408-2.406
			c1.329,0,2.407,1.078,2.407,2.406C8.425,17.141,7.347,18.219,6.018,18.219z"/>
		<circle cx="6.018" cy="15.812" r="1.532"/>
		<polygon points="15.407,15.23 13.889,13.456 13.889,14.401 13.022,14.401 13.022,16.061 13.889,16.061 13.889,17.005 		"/>
	</g>
</g>
<g>
</g>
<g>
</g>
<g>
</g>
<g>
</g>
<g>
</g>
<g>
</g>
<g>
</g>
<g>
</g>
<g>
</g>
<g>
</g>
<g>
</g>
<g>
</g>
<g>
</g>
<g>
</g>
<g>
</g>
</svg>
