<?xml version="1.0" encoding="iso-8859-1"?>
<!-- Generator: Adobe Illustrator 16.0.0, SVG Export Plug-In . SVG Version: 6.00 Build 0)  -->
<!DOCTYPE svg PUBLIC "-//W3C//DTD SVG 1.1//EN" "http://www.w3.org/Graphics/SVG/1.1/DTD/svg11.dtd">
<svg version="1.1" id="Capa_1" xmlns="http://www.w3.org/2000/svg" xmlns:xlink="http://www.w3.org/1999/xlink" x="0px" y="0px"
	 width="30.661px" height="30.662px" viewBox="0 0 30.661 30.662" style="enable-background:new 0 0 30.661 30.662;"
	 xml:space="preserve">
<g>
	<g>
		<path d="M11.631,19.148c-2.146-0.848-3.672-2.93-3.672-5.376c0-3.196,2.594-5.788,5.79-5.788c2.878,0,5.248,2.108,5.694,4.861
			l3.961-2.288c0.457-0.265,0.977-0.404,1.504-0.404c1.062,0,2.05,0.565,2.589,1.476V8.647c0-1.591-1.304-2.894-2.894-2.894H12.006
			c0-1.463-1.304-2.66-2.895-2.66h-3.33c-1.591,0-2.894,1.197-2.894,2.66v0.001C1.299,5.758,0,7.059,0,8.647v10.252
			c0,1.593,1.304,2.896,2.895,2.896h9.81l-0.685-1.186C11.761,20.158,11.638,19.656,11.631,19.148z"/>
		<path d="M10.13,13.772c0,1.511,0.932,2.804,2.25,3.347c0.214-0.242,0.458-0.459,0.745-0.625l4.211-2.434
			c0.01-0.096,0.03-0.189,0.03-0.288c0-1.997-1.621-3.618-3.617-3.618S10.13,11.775,10.13,13.772z"/>
		<path d="M30.389,18.572l-3.711-6.426c-0.562-0.976-1.812-1.31-2.787-0.747l-10.28,5.937c-0.976,0.562-1.311,1.812-0.748,2.787
			l3.711,6.426c0.562,0.976,1.812,1.31,2.785,0.746l10.281-5.936C30.615,20.796,30.951,19.546,30.389,18.572z M29.085,20.396
			l-10.28,5.936c-0.441,0.254-1.011,0.103-1.267-0.34l-3.71-6.427c-0.255-0.442-0.104-1.012,0.34-1.269l10.279-5.934
			c0.441-0.256,1.011-0.103,1.267,0.34l3.71,6.426C29.682,19.572,29.527,20.14,29.085,20.396z"/>
		<path d="M18.973,18.899c0.446,0.259,1.848,0.578,2.105,0.13c0.259-0.447-0.719-1.496-1.168-1.758
			c-0.448-0.258-1.021-0.105-1.282,0.342C18.369,18.064,18.521,18.642,18.973,18.899z"/>
		<path d="M24.279,19.794c-0.446-0.258-1.848-0.577-2.107-0.129c-0.257,0.447,0.723,1.498,1.169,1.756
			c0.449,0.262,1.024,0.107,1.283-0.342S24.73,20.055,24.279,19.794z"/>
		<path d="M21.075,19.662c-0.257-0.447-1.656-0.125-2.103,0.133c-0.451,0.261-0.604,0.834-0.347,1.281
			c0.259,0.451,0.835,0.604,1.284,0.348C20.357,21.162,21.334,20.113,21.075,19.662z"/>
		<path d="M23.341,17.271c-0.446,0.26-1.426,1.311-1.165,1.762c0.258,0.446,1.655,0.125,2.104-0.134
			c0.449-0.26,0.604-0.833,0.347-1.28C24.367,17.167,23.789,17.014,23.341,17.271z"/>
		<path d="M21.624,19.979c-0.517,0-0.938,1.372-0.938,1.89c0.002,0.519,0.42,0.939,0.938,0.938c0.519,0.001,0.94-0.42,0.942-0.938
			C22.564,21.351,22.145,19.98,21.624,19.979z"/>
		<path d="M21.628,18.712c0.517,0,0.938-1.371,0.938-1.889c-0.002-0.521-0.424-0.938-0.938-0.939
			c-0.521-0.001-0.942,0.421-0.94,0.939C20.686,17.341,21.105,18.712,21.628,18.712z"/>
		<circle cx="21.627" cy="19.347" r="0.375"/>
	</g>
</g>
<g>
</g>
<g>
</g>
<g>
</g>
<g>
</g>
<g>
</g>
<g>
</g>
<g>
</g>
<g>
</g>
<g>
</g>
<g>
</g>
<g>
</g>
<g>
</g>
<g>
</g>
<g>
</g>
<g>
</g>
</svg>
