<?xml version="1.0" encoding="iso-8859-1"?>
<!-- Generator: Adobe Illustrator 16.0.0, SVG Export Plug-In . SVG Version: 6.00 Build 0)  -->
<!DOCTYPE svg PUBLIC "-//W3C//DTD SVG 1.1//EN" "http://www.w3.org/Graphics/SVG/1.1/DTD/svg11.dtd">
<svg version="1.1" id="Capa_1" xmlns="http://www.w3.org/2000/svg" xmlns:xlink="http://www.w3.org/1999/xlink" x="0px" y="0px"
	 width="25px" height="25px" viewBox="0 0 25 25" style="enable-background:new 0 0 25 25;" xml:space="preserve">
<g>
	<g>
		<path d="M21,0H4C1.8,0,0,1.8,0,4v17c0,2.2,1.8,4,4,4h17c2.2,0,4-1.8,4-4V4C25,1.8,23.2,0,21,0z M12.5,20C8.357,20,5,16.643,5,12.5
			C5,8.358,8.357,5,12.5,5c4.143,0,7.5,3.358,7.5,7.5C20,16.643,16.643,20,12.5,20z"/>
		<circle cx="9" cy="12.5" r="1.5"/>
		<circle cx="16" cy="12.5" r="1.5"/>
	</g>
</g>
<g>
</g>
<g>
</g>
<g>
</g>
<g>
</g>
<g>
</g>
<g>
</g>
<g>
</g>
<g>
</g>
<g>
</g>
<g>
</g>
<g>
</g>
<g>
</g>
<g>
</g>
<g>
</g>
<g>
</g>
</svg>
