<?xml version="1.0" encoding="iso-8859-1"?>
<!-- Generator: Adobe Illustrator 16.0.0, SVG Export Plug-In . SVG Version: 6.00 Build 0)  -->
<!DOCTYPE svg PUBLIC "-//W3C//DTD SVG 1.1//EN" "http://www.w3.org/Graphics/SVG/1.1/DTD/svg11.dtd">
<svg version="1.1" id="Capa_1" xmlns="http://www.w3.org/2000/svg" xmlns:xlink="http://www.w3.org/1999/xlink" x="0px" y="0px"
	 width="30px" height="30px" viewBox="0 0 30 30" style="enable-background:new 0 0 30 30;" xml:space="preserve">
<g>
	<path d="M15,0C6.712,0,0,6.713,0,15c0,8.288,6.712,15,15,15s15-6.712,15-15C30,6.713,23.288,0,15,0z M13.5,7.5
		C13.5,6.672,14.171,6,15,6s1.5,0.672,1.5,1.5V15c0,0.828-0.671,1.5-1.5,1.5s-1.5-0.672-1.5-1.5V7.5z M15,24c-4.962,0-9-4.037-9-9
		c0-2.53,1.074-4.958,2.947-6.66c0.613-0.559,1.562-0.513,2.119,0.101c0.557,0.613,0.512,1.562-0.101,2.119
		C9.716,11.694,9,13.313,9,15c0,3.309,2.691,6,6,6c3.309,0,6-2.691,6-6c0-1.687-0.716-3.305-1.964-4.439
		c-0.613-0.558-0.658-1.507-0.101-2.119c0.558-0.612,1.506-0.656,2.119-0.101C22.926,10.044,24,12.471,24,15
		C24,19.963,19.962,24,15,24z"/>
</g>
<g>
</g>
<g>
</g>
<g>
</g>
<g>
</g>
<g>
</g>
<g>
</g>
<g>
</g>
<g>
</g>
<g>
</g>
<g>
</g>
<g>
</g>
<g>
</g>
<g>
</g>
<g>
</g>
<g>
</g>
</svg>
