<?xml version="1.0" encoding="iso-8859-1"?>
<!-- Generator: Adobe Illustrator 16.0.0, SVG Export Plug-In . SVG Version: 6.00 Build 0)  -->
<!DOCTYPE svg PUBLIC "-//W3C//DTD SVG 1.1//EN" "http://www.w3.org/Graphics/SVG/1.1/DTD/svg11.dtd">
<svg version="1.1" id="Capa_1" xmlns="http://www.w3.org/2000/svg" xmlns:xlink="http://www.w3.org/1999/xlink" x="0px" y="0px"
	 width="30.233px" height="30.232px" viewBox="0 0 30.233 30.232" style="enable-background:new 0 0 30.233 30.232;"
	 xml:space="preserve">
<g>
	<g>
		<path d="M22.36,5.748l-0.744-3.517c0.412-0.18,0.701-0.589,0.701-1.066C22.317,0.521,21.796,0,21.153,0s-1.166,0.521-1.166,1.165
			c0,0.478,0.291,0.887,0.703,1.066l-0.734,3.477H8.272c-2.988,0-5.418,2.431-5.418,5.418v13.688c0,2.986,2.431,5.418,5.418,5.418
			H21.96c2.987,0,5.418-2.432,5.418-5.418V11.126C27.379,8.274,25.159,5.956,22.36,5.748z M25.668,24.814
			c0,2.044-1.663,3.707-3.708,3.707H8.272c-2.044,0-3.708-1.663-3.708-3.707V11.126c0-2.044,1.663-3.707,3.708-3.707H21.96
			c2.044,0,3.708,1.663,3.708,3.707V24.814z"/>
		<circle cx="9.413" cy="23.674" r="3.422"/>
		<circle cx="17.968" cy="23.674" r="1.711"/>
		<circle cx="7.551" cy="10.242" r="0.856"/>
		<circle cx="11.275" cy="10.242" r="0.856"/>
		<circle cx="14.999" cy="10.242" r="0.856"/>
		<circle cx="18.723" cy="10.242" r="0.856"/>
		<circle cx="22.448" cy="10.242" r="0.856"/>
		<circle cx="7.551" cy="13.665" r="0.855"/>
		<circle cx="11.275" cy="13.665" r="0.855"/>
		<circle cx="14.999" cy="13.665" r="0.855"/>
		<circle cx="18.723" cy="13.665" r="0.855"/>
		<circle cx="22.448" cy="13.665" r="0.855"/>
		<circle cx="7.551" cy="17.087" r="0.855"/>
		<circle cx="11.275" cy="17.087" r="0.855"/>
		<circle cx="14.999" cy="17.087" r="0.855"/>
		<circle cx="18.723" cy="17.087" r="0.855"/>
		<circle cx="22.448" cy="17.087" r="0.855"/>
		<circle cx="22.532" cy="23.674" r="1.711"/>
	</g>
</g>
<g>
</g>
<g>
</g>
<g>
</g>
<g>
</g>
<g>
</g>
<g>
</g>
<g>
</g>
<g>
</g>
<g>
</g>
<g>
</g>
<g>
</g>
<g>
</g>
<g>
</g>
<g>
</g>
<g>
</g>
</svg>
