<?xml version="1.0" encoding="iso-8859-1"?>
<!-- Generator: Adobe Illustrator 16.0.0, SVG Export Plug-In . SVG Version: 6.00 Build 0)  -->
<!DOCTYPE svg PUBLIC "-//W3C//DTD SVG 1.1//EN" "http://www.w3.org/Graphics/SVG/1.1/DTD/svg11.dtd">
<svg version="1.1" id="Capa_1" xmlns="http://www.w3.org/2000/svg" xmlns:xlink="http://www.w3.org/1999/xlink" x="0px" y="0px"
	 width="32.069px" height="32.069px" viewBox="0 0 32.069 32.069" style="enable-background:new 0 0 32.069 32.069;"
	 xml:space="preserve">
<g>
	<g>
		<path d="M16.035,21.197c-0.491,0-0.946-0.148-1.327-0.4l-3.1,4.694c1.27,0.84,2.79,1.332,4.427,1.332s3.157-0.492,4.426-1.332
			l-3.1-4.694C16.98,21.049,16.526,21.197,16.035,21.197z"/>
		<path d="M13.624,18.786c0-0.944,0.547-1.752,1.337-2.147l-2.518-5.035c-2.633,1.319-4.445,4.037-4.445,7.183
			c0,0.162,0.015,0.32,0.024,0.48l5.615-0.338C13.636,18.883,13.624,18.835,13.624,18.786z"/>
		<path d="M19.626,11.603l-2.518,5.034c0.79,0.396,1.337,1.205,1.337,2.148c0,0.049-0.012,0.096-0.014,0.145l5.615,0.336
			c0.01-0.16,0.023-0.317,0.023-0.479C24.071,15.639,22.26,12.923,19.626,11.603z"/>
		<circle cx="16.035" cy="18.785" r="1.407"/>
		<path d="M30.938,21.941L20.771,5.476c-1.237-2.003-2.919-3.105-4.736-3.105s-3.499,1.103-4.736,3.105L1.131,21.941
			c-1.244,2.013-1.47,3.943-0.636,5.438c0.833,1.495,2.596,2.318,4.962,2.318h21.156c2.366,0,4.129-0.823,4.962-2.318
			C32.408,25.887,32.183,23.954,30.938,21.941z M30.522,26.794c-0.612,1.097-2,1.699-3.91,1.699H5.457
			c-1.91,0-3.298-0.604-3.91-1.699c-0.611-1.097-0.395-2.595,0.608-4.219L12.324,6.111c1.01-1.635,2.328-2.534,3.711-2.534
			c1.382,0,2.701,0.899,3.71,2.534l10.169,16.464C30.917,24.199,31.135,25.697,30.522,26.794z"/>
	</g>
</g>
<g>
</g>
<g>
</g>
<g>
</g>
<g>
</g>
<g>
</g>
<g>
</g>
<g>
</g>
<g>
</g>
<g>
</g>
<g>
</g>
<g>
</g>
<g>
</g>
<g>
</g>
<g>
</g>
<g>
</g>
</svg>
