<?xml version="1.0" encoding="iso-8859-1"?>
<!-- Generator: Adobe Illustrator 16.0.0, SVG Export Plug-In . SVG Version: 6.00 Build 0)  -->
<!DOCTYPE svg PUBLIC "-//W3C//DTD SVG 1.1//EN" "http://www.w3.org/Graphics/SVG/1.1/DTD/svg11.dtd">
<svg version="1.1" id="Capa_1" xmlns="http://www.w3.org/2000/svg" xmlns:xlink="http://www.w3.org/1999/xlink" x="0px" y="0px"
	 width="27.5px" height="27.5px" viewBox="0 0 27.5 27.5" style="enable-background:new 0 0 27.5 27.5;" xml:space="preserve">
<g>
	<g>
		<path d="M13.75,0C6.168,0,0,6.168,0,13.75S6.168,27.5,13.75,27.5S27.5,21.332,27.5,13.75S21.332,0,13.75,0z M13.75,27
			C6.444,27,0.5,21.057,0.5,13.75C0.5,6.444,6.444,0.5,13.75,0.5C21.057,0.5,27,6.444,27,13.75C27,21.057,21.057,27,13.75,27z"/>
		<polygon points="11.188,11.957 10.657,14.427 11.734,14.427 11.203,11.957 		"/>
		<path d="M13.75,1.25c-6.903,0-12.5,5.596-12.5,12.5c0,3.438,1.39,6.553,3.638,8.812h0.075c2.265-2.275,5.398-3.688,8.863-3.688
			c3.443,0,6.561,1.396,8.82,3.648c2.227-2.256,3.604-5.353,3.604-8.773C26.25,6.846,20.654,1.25,13.75,1.25z M8.384,16.195
			c-0.335,0.271-0.804,0.408-1.403,0.408c-0.626,0-1.072-0.141-1.343-0.42c-0.269-0.278-0.403-0.674-0.403-1.181V14.78h1.107v0.161
			c0,0.129,0.011,0.244,0.031,0.351s0.059,0.192,0.115,0.267c0.056,0.071,0.131,0.127,0.224,0.168
			c0.092,0.041,0.212,0.062,0.36,0.062c0.17,0,0.322-0.055,0.458-0.165c0.136-0.11,0.204-0.281,0.204-0.513
			c0-0.122-0.017-0.229-0.05-0.318c-0.033-0.09-0.089-0.171-0.165-0.242c-0.077-0.07-0.179-0.138-0.305-0.195
			c-0.125-0.06-0.28-0.119-0.465-0.182c-0.246-0.082-0.459-0.172-0.639-0.27c-0.18-0.098-0.329-0.211-0.45-0.342
			c-0.12-0.131-0.209-0.282-0.266-0.455c-0.057-0.171-0.084-0.371-0.084-0.595c0-0.544,0.151-0.949,0.453-1.216
			c0.303-0.267,0.719-0.4,1.247-0.4c0.246,0,0.473,0.027,0.68,0.081c0.208,0.054,0.388,0.142,0.539,0.262
			c0.151,0.12,0.27,0.273,0.354,0.461s0.127,0.412,0.127,0.674v0.153H7.65c0-0.261-0.047-0.463-0.139-0.604
			c-0.093-0.141-0.247-0.212-0.462-0.212c-0.123,0-0.226,0.019-0.308,0.054c-0.082,0.036-0.147,0.084-0.196,0.143
			c-0.049,0.059-0.082,0.127-0.1,0.204c-0.019,0.077-0.027,0.156-0.027,0.238c0,0.169,0.036,0.312,0.108,0.427
			c0.071,0.115,0.225,0.222,0.461,0.319l0.854,0.369c0.206,0.094,0.376,0.188,0.512,0.288c0.136,0.101,0.243,0.208,0.323,0.323
			c0.079,0.115,0.135,0.242,0.165,0.382c0.031,0.138,0.047,0.292,0.047,0.461C8.889,15.499,8.721,15.924,8.384,16.195z
			 M12.181,16.496l-0.255-1.161h-1.461l-0.254,1.161H9.058l1.453-5.493h1.37l1.453,5.493H12.181z M16.788,16.496h-3.069v-5.493
			h1.108v4.585h1.961V16.496z M20.427,16.496h-3.147v-5.493h3.07v0.908h-1.961v1.293h1.846v0.907h-1.846v1.477h2.038V16.496z
			 M22.266,16.496h-1.062V15.48h1.062V16.496z M22.266,12.788l-0.146,2.177h-0.77l-0.146-2.177v-1.785h1.062V12.788z"/>
	</g>
</g>
<g>
</g>
<g>
</g>
<g>
</g>
<g>
</g>
<g>
</g>
<g>
</g>
<g>
</g>
<g>
</g>
<g>
</g>
<g>
</g>
<g>
</g>
<g>
</g>
<g>
</g>
<g>
</g>
<g>
</g>
</svg>
