<?xml version="1.0" encoding="iso-8859-1"?>
<!-- Generator: Adobe Illustrator 16.0.0, SVG Export Plug-In . SVG Version: 6.00 Build 0)  -->
<!DOCTYPE svg PUBLIC "-//W3C//DTD SVG 1.1//EN" "http://www.w3.org/Graphics/SVG/1.1/DTD/svg11.dtd">
<svg version="1.1" id="Capa_1" xmlns="http://www.w3.org/2000/svg" xmlns:xlink="http://www.w3.org/1999/xlink" x="0px" y="0px"
	 width="28.884px" height="28.884px" viewBox="0 0 28.884 28.884" style="enable-background:new 0 0 28.884 28.884;"
	 xml:space="preserve">
<g>
	<g>
		<rect x="9.543" y="20.625" width="2.077" height="1"/>
		<rect x="5.39" y="20.625" width="2.077" height="1"/>
		<polygon points="2.812,20.125 1.812,20.125 1.812,21.625 3.312,21.625 3.312,20.625 2.812,20.625 		"/>
		<rect x="1.812" y="15.986" width="1" height="2.068"/>
		<rect x="1.812" y="11.847" width="1" height="2.069"/>
		<rect x="1.812" y="7.708" width="1" height="2.07"/>
		<rect x="1.812" y="3.569" width="1" height="2.069"/>
		<polygon points="1.812,1.5 2.812,1.5 2.812,1 3.312,1 3.312,0 1.812,0 		"/>
		<rect x="13.696" width="2.077" height="1"/>
		<rect x="9.542" width="2.077" height="1"/>
		<rect x="5.388" width="2.077" height="1"/>
		<polygon points="18.351,1.5 19.351,1.5 19.351,0 17.851,0 17.851,1 18.351,1 		"/>
		<rect x="18.351" y="11.846" width="1" height="2.07"/>
		<rect x="18.351" y="7.708" width="1" height="2.069"/>
		<rect x="18.351" y="3.569" width="1" height="2.069"/>
		<path d="M20.351,16.492l3.493-5.52c0.772-1.22-0.676-2.673-0.676-2.673l-4,6.323L20.351,16.492z"/>
		<path d="M26.852,27.604l-0.973-0.974c0.35-0.544,0.559-1.188,0.559-1.881c0-1.931-1.57-3.5-3.5-3.5
			c-0.539,0-1.043,0.133-1.5,0.353V20.5c0-0.734-0.296-1.758-0.689-2.381l-6.215-9.821c0,0-1.448,1.453-0.676,2.673l3.811,6.021
			l-0.713,1.127c-0.394,0.623-0.689,1.646-0.689,2.381v1.102c-0.457-0.22-0.961-0.353-1.5-0.353c-1.93,0-3.5,1.569-3.5,3.5
			c0,0.692,0.209,1.337,0.559,1.881l-0.973,0.974c-0.293,0.293-0.293,0.768,0,1.061c0.146,0.146,0.338,0.22,0.53,0.22
			s0.384-0.073,0.53-0.22l0.973-0.973c0.544,0.35,1.188,0.559,1.881,0.559c1.93,0,3.5-1.57,3.5-3.5v-4.249
			c0-0.358,0.188-1.007,0.38-1.312l0.207-0.326l0.207,0.326c0.192,0.305,0.38,0.953,0.38,1.312v4.249c0,1.93,1.57,3.5,3.5,3.5
			c0.693,0,1.336-0.209,1.881-0.559l0.973,0.973c0.146,0.146,0.338,0.22,0.53,0.22s0.384-0.073,0.53-0.22
			C27.145,28.371,27.145,27.896,26.852,27.604z M14.763,26.25c-0.827,0-1.5-0.674-1.5-1.5c0-0.827,0.673-1.5,1.5-1.5
			c0.827,0,1.5,0.673,1.5,1.5C16.264,25.576,15.59,26.25,14.763,26.25z M18.851,17.419c-0.235,0-0.427-0.19-0.427-0.427
			c0-0.235,0.191-0.426,0.427-0.426s0.426,0.19,0.426,0.426C19.276,17.229,19.086,17.419,18.851,17.419z M22.938,26.25
			c-0.827,0-1.5-0.674-1.5-1.5c0-0.827,0.673-1.5,1.5-1.5s1.5,0.673,1.5,1.5C24.438,25.576,23.765,26.25,22.938,26.25z"/>
	</g>
</g>
<g>
</g>
<g>
</g>
<g>
</g>
<g>
</g>
<g>
</g>
<g>
</g>
<g>
</g>
<g>
</g>
<g>
</g>
<g>
</g>
<g>
</g>
<g>
</g>
<g>
</g>
<g>
</g>
<g>
</g>
</svg>
