<?xml version="1.0" encoding="iso-8859-1"?>
<!-- Generator: Adobe Illustrator 16.0.0, SVG Export Plug-In . SVG Version: 6.00 Build 0)  -->
<!DOCTYPE svg PUBLIC "-//W3C//DTD SVG 1.1//EN" "http://www.w3.org/Graphics/SVG/1.1/DTD/svg11.dtd">
<svg version="1.1" id="Capa_1" xmlns="http://www.w3.org/2000/svg" xmlns:xlink="http://www.w3.org/1999/xlink" x="0px" y="0px"
	 width="28.167px" height="28.166px" viewBox="0 0 28.167 28.166" style="enable-background:new 0 0 28.167 28.166;"
	 xml:space="preserve">
<g>
	<path d="M14.083,0C7.232,0,3.52,2.816,3.52,2.816v11.971c0.001,5.834,10.563,13.379,10.563,13.379s10.563-7.545,10.563-13.379
		V2.816C24.646,2.816,20.934,0,14.083,0z M10.449,8.282c0-2.006,1.631-3.637,3.633-3.637c2.006,0,3.635,1.631,3.635,3.637v2.385
		h-1.346V8.282c0-1.264-1.027-2.288-2.29-2.288c-1.259,0-2.286,1.024-2.286,2.288v2.385h-1.347V8.282z M19.136,18.842
		c0,0.37-0.304,0.676-0.671,0.676H9.706c-0.37,0-0.674-0.306-0.674-0.676v-6.735c0-0.371,0.305-0.676,0.674-0.676h8.759
		c0.367,0,0.671,0.305,0.671,0.676V18.842z"/>
</g>
<g>
</g>
<g>
</g>
<g>
</g>
<g>
</g>
<g>
</g>
<g>
</g>
<g>
</g>
<g>
</g>
<g>
</g>
<g>
</g>
<g>
</g>
<g>
</g>
<g>
</g>
<g>
</g>
<g>
</g>
</svg>
