<?xml version="1.0" encoding="iso-8859-1"?>
<!-- Generator: Adobe Illustrator 16.0.0, SVG Export Plug-In . SVG Version: 6.00 Build 0)  -->
<!DOCTYPE svg PUBLIC "-//W3C//DTD SVG 1.1//EN" "http://www.w3.org/Graphics/SVG/1.1/DTD/svg11.dtd">
<svg version="1.1" id="Capa_1" xmlns="http://www.w3.org/2000/svg" xmlns:xlink="http://www.w3.org/1999/xlink" x="0px" y="0px"
	 width="30.752px" height="30.752px" viewBox="0 0 30.752 30.752" style="enable-background:new 0 0 30.752 30.752;"
	 xml:space="preserve">
<g>
	<path d="M29.677,11.218h-7.504c-0.5-3.481-3.342-6.167-6.798-6.167c-3.455,0-6.298,2.687-6.797,6.167H1.073
		C0.481,11.218,0,11.7,0,12.292c0,0.593,0.48,1.073,1.073,1.073h0.589l3.291,10.966c0.226,0.753,1.055,1.37,1.841,1.37h17.164
		c0.786,0,1.615-0.617,1.841-1.37l3.291-10.966h0.59c0.592,0,1.072-0.48,1.072-1.073C30.75,11.7,30.27,11.218,29.677,11.218z
		 M9.457,22.839H8.923c-0.787,0-1.616-0.616-1.842-1.371l-0.662-2.204h3.038V22.839z M9.457,17.833H5.99l-0.661-2.206
		c-0.226-0.753,0.232-1.37,1.019-1.37h3.109V17.833z M17.404,22.839h-3.819v-3.575h3.819V22.839z M17.404,17.833h-3.819v-3.576
		h3.819V17.833z M23.67,21.469c-0.227,0.754-1.055,1.371-1.841,1.371h-0.297v-3.576h2.8L23.67,21.469z M25.422,15.628l-0.66,2.206
		h-3.229v-3.576h2.872C25.189,14.258,25.648,14.875,25.422,15.628z M15.375,7.196c2.279,0,4.184,1.727,4.646,4.022h-9.291
		C11.192,8.923,13.097,7.196,15.375,7.196z"/>
</g>
<g>
</g>
<g>
</g>
<g>
</g>
<g>
</g>
<g>
</g>
<g>
</g>
<g>
</g>
<g>
</g>
<g>
</g>
<g>
</g>
<g>
</g>
<g>
</g>
<g>
</g>
<g>
</g>
<g>
</g>
</svg>
