<?xml version="1.0" encoding="iso-8859-1"?>
<!-- Generator: Adobe Illustrator 16.0.0, SVG Export Plug-In . SVG Version: 6.00 Build 0)  -->
<!DOCTYPE svg PUBLIC "-//W3C//DTD SVG 1.1//EN" "http://www.w3.org/Graphics/SVG/1.1/DTD/svg11.dtd">
<svg version="1.1" id="Capa_1" xmlns="http://www.w3.org/2000/svg" xmlns:xlink="http://www.w3.org/1999/xlink" x="0px" y="0px"
	 width="28.145px" height="28.144px" viewBox="0 0 28.145 28.144" style="enable-background:new 0 0 28.145 28.144;"
	 xml:space="preserve">
<g>
	<g>
		<circle cx="9.027" cy="24.036" r="2.086"/>
		<circle cx="25.018" cy="24.036" r="2.086"/>
		<path d="M28.127,9.318c-0.007-0.071-0.021-0.137-0.041-0.203c-0.02-0.064-0.041-0.125-0.072-0.183
			c-0.03-0.059-0.066-0.109-0.108-0.161c-0.042-0.054-0.086-0.102-0.138-0.146c-0.049-0.042-0.102-0.074-0.158-0.106
			c-0.062-0.035-0.125-0.064-0.195-0.087c-0.029-0.01-0.054-0.031-0.085-0.038c-0.04-0.009-0.075,0.001-0.114-0.002
			c-0.039-0.003-0.072-0.022-0.111-0.022h-2.42V7.427c0-0.378-0.31-0.688-0.688-0.688H20.33c-0.378,0-0.688,0.31-0.688,0.688v0.942
			h-4.979l1.193-1.678c0.319-0.448,0.212-1.076-0.236-1.395l-4.347-3.089c-0.448-0.319-1.076-0.212-1.395,0.236L6.789,6.79
			C6.646,6.991,6.601,7.228,6.621,7.457L6.213,6.098C6.081,5.657,5.674,5.354,5.214,5.354H1.043C0.467,5.354,0,5.821,0,6.397
			C0,6.973,0.467,7.44,1.043,7.44h3.396l3.949,13.162c0.132,0.441,0.539,0.743,0.999,0.743h15.294c0.49,0,0.912-0.339,1.019-0.817
			L28.12,9.64c0.009-0.038-0.002-0.075,0.002-0.113c0.005-0.039,0.022-0.073,0.022-0.113C28.146,9.378,28.131,9.35,28.127,9.318z
			 M6.899,8.374L6.748,7.87c0.069,0.119,0.16,0.227,0.279,0.312l0.258,0.184H6.941C6.926,8.365,6.914,8.373,6.899,8.374z
			 M23.848,19.257H10.164l-2.642-8.807h2.698l1.153,0.819c0.448,0.319,1.076,0.212,1.395-0.236l0.272-0.383
			c-0.022,0.093-0.057,0.182-0.057,0.281v6.677c0,0.688,0.563,1.252,1.252,1.252h6.677c0.688,0,1.252-0.562,1.252-1.252v-5.831
			h1.833c0.378,0,0.688-0.31,0.688-0.688v-0.637h1.119L23.848,19.257z"/>
	</g>
</g>
<g>
</g>
<g>
</g>
<g>
</g>
<g>
</g>
<g>
</g>
<g>
</g>
<g>
</g>
<g>
</g>
<g>
</g>
<g>
</g>
<g>
</g>
<g>
</g>
<g>
</g>
<g>
</g>
<g>
</g>
</svg>
