<?xml version="1.0" encoding="iso-8859-1"?>
<!-- Generator: Adobe Illustrator 16.0.0, SVG Export Plug-In . SVG Version: 6.00 Build 0)  -->
<!DOCTYPE svg PUBLIC "-//W3C//DTD SVG 1.1//EN" "http://www.w3.org/Graphics/SVG/1.1/DTD/svg11.dtd">
<svg version="1.1" id="Capa_1" xmlns="http://www.w3.org/2000/svg" xmlns:xlink="http://www.w3.org/1999/xlink" x="0px" y="0px"
	 width="29.806px" height="29.806px" viewBox="0 0 29.806 29.806" style="enable-background:new 0 0 29.806 29.806;"
	 xml:space="preserve">
<g>
	<path d="M25.371,8.724l3.49-3.054l-3.49-3.053h-9.596V0.872C15.775,0.391,15.384,0,14.902,0c-0.481,0-0.871,0.391-0.871,0.872
		v7.852H4.435l-3.49,3.053l3.49,3.053h9.596v12.385c-1.381,0.077-2.398,0.327-2.398,0.628c0,0.077,0.08,0.151,0.204,0.222
		c-1.116,0.18-1.84,0.451-1.84,0.76c0,0.543,2.195,0.981,4.905,0.981c2.712,0,4.906-0.438,4.906-0.981c0-0.309-0.723-0.58-1.84-0.76
		c0.125-0.07,0.205-0.145,0.205-0.222c0-0.301-1.019-0.551-2.398-0.628V8.724H25.371z"/>
</g>
<g>
</g>
<g>
</g>
<g>
</g>
<g>
</g>
<g>
</g>
<g>
</g>
<g>
</g>
<g>
</g>
<g>
</g>
<g>
</g>
<g>
</g>
<g>
</g>
<g>
</g>
<g>
</g>
<g>
</g>
</svg>
