<?xml version="1.0" encoding="iso-8859-1"?>
<!-- Generator: Adobe Illustrator 16.0.0, SVG Export Plug-In . SVG Version: 6.00 Build 0)  -->
<!DOCTYPE svg PUBLIC "-//W3C//DTD SVG 1.1//EN" "http://www.w3.org/Graphics/SVG/1.1/DTD/svg11.dtd">
<svg version="1.1" id="Capa_1" xmlns="http://www.w3.org/2000/svg" xmlns:xlink="http://www.w3.org/1999/xlink" x="0px" y="0px"
	 width="27.04px" height="27.04px" viewBox="0 0 27.04 27.04" style="enable-background:new 0 0 27.04 27.04;" xml:space="preserve"
	>
<g>
	<g>
		<path d="M13.52,0C6.065,0,0.001,6.064,0.001,13.521h2.002c0-6.353,5.167-11.519,11.517-11.519s11.517,5.166,11.517,11.519h2.002
			C27.039,6.065,20.974,0,13.52,0z"/>
		<path d="M13.52,3.756c-5.384,0-9.764,4.38-9.764,9.766h2.002c0-4.28,3.481-7.762,7.762-7.762s7.762,3.48,7.762,7.762h2.002
			C23.284,8.136,18.903,3.756,13.52,3.756z"/>
		<path d="M13.52,7.511c-3.313,0-6.008,2.695-6.008,6.01h2.003c0-2.211,1.796-4.007,4.005-4.007c2.209,0,4.004,1.796,4.004,4.007
			h2.004C19.528,10.207,16.833,7.511,13.52,7.511z"/>
		<path d="M14.625,13.521c0-0.609-0.495-1.104-1.105-1.104s-1.105,0.495-1.105,1.104c0,0.486,0.319,0.889,0.757,1.035L8.988,27.04
			h9.063l-4.184-12.483C14.306,14.41,14.625,14.008,14.625,13.521z"/>
	</g>
</g>
<g>
</g>
<g>
</g>
<g>
</g>
<g>
</g>
<g>
</g>
<g>
</g>
<g>
</g>
<g>
</g>
<g>
</g>
<g>
</g>
<g>
</g>
<g>
</g>
<g>
</g>
<g>
</g>
<g>
</g>
</svg>
