<?xml version="1.0" encoding="iso-8859-1"?>
<!-- Generator: Adobe Illustrator 16.0.0, SVG Export Plug-In . SVG Version: 6.00 Build 0)  -->
<!DOCTYPE svg PUBLIC "-//W3C//DTD SVG 1.1//EN" "http://www.w3.org/Graphics/SVG/1.1/DTD/svg11.dtd">
<svg version="1.1" id="Capa_1" xmlns="http://www.w3.org/2000/svg" xmlns:xlink="http://www.w3.org/1999/xlink" x="0px" y="0px"
	 width="27px" height="27px" viewBox="0 0 27 27" style="enable-background:new 0 0 27 27;" xml:space="preserve">
<g>
	<g>
		<path d="M13.5,3.979c-7.444,0-13.5,6.056-13.5,13.5h2c0-6.341,5.159-11.5,11.5-11.5S25,11.138,25,17.479h2
			C27,10.034,20.943,3.979,13.5,3.979z"/>
		<path d="M13.5,7.729c-5.376,0-9.75,4.374-9.75,9.75h2c0-4.273,3.477-7.75,7.75-7.75c4.273,0,7.75,3.477,7.75,7.75h2
			C23.25,12.103,18.876,7.729,13.5,7.729z"/>
		<path d="M13.5,11.479c-3.309,0-6,2.691-6,6h2c0-2.206,1.794-4,4-4s4,1.794,4,4h2C19.5,14.17,16.809,11.479,13.5,11.479z"/>
		<polygon points="8.975,23.021 18.025,23.021 13.5,15.479 		"/>
	</g>
</g>
<g>
</g>
<g>
</g>
<g>
</g>
<g>
</g>
<g>
</g>
<g>
</g>
<g>
</g>
<g>
</g>
<g>
</g>
<g>
</g>
<g>
</g>
<g>
</g>
<g>
</g>
<g>
</g>
<g>
</g>
</svg>
