<?xml version="1.0" standalone="no"?>
<!DOCTYPE svg PUBLIC "-//W3C//DTD SVG 20010904//EN"
 "http://www.w3.org/TR/2001/REC-SVG-20010904/DTD/svg10.dtd">
<svg version="1.0" xmlns="http://www.w3.org/2000/svg"
 width="512.000000pt" height="512.000000pt" viewBox="0 0 512.000000 512.000000"
 preserveAspectRatio="xMidYMid meet">

<g transform="translate(0.000000,512.000000) scale(0.100000,-0.100000)"
fill="#000000" stroke="none">
<path d="M1967 5088 c-8 -18 -24 -53 -35 -78 -11 -25 -39 -85 -62 -135 -23
-49 -53 -115 -67 -145 -14 -30 -45 -97 -69 -148 -24 -51 -44 -95 -44 -97 0 -2
-20 -46 -44 -97 -73 -156 -158 -338 -191 -413 -10 -22 -43 -92 -72 -155 -30
-63 -62 -131 -70 -150 -9 -19 -38 -81 -65 -138 -26 -57 -48 -105 -48 -107 0
-2 -20 -46 -44 -97 -127 -270 -176 -377 -176 -386 0 -5 12 -33 26 -63 24 -49
40 -83 109 -234 28 -60 80 -173 125 -270 18 -38 54 -116 81 -173 27 -57 49
-105 49 -107 0 -2 20 -46 44 -97 24 -51 55 -118 69 -148 36 -79 93 -201 143
-308 24 -51 44 -94 44 -97 0 -2 22 -50 49 -107 27 -57 62 -132 79 -168 86
-186 107 -232 143 -308 21 -45 39 -84 39 -86 0 -3 26 -60 59 -128 32 -68 70
-148 84 -178 13 -30 44 -95 67 -145 23 -49 51 -110 62 -135 11 -25 33 -73 49
-108 16 -35 29 -68 29 -73 0 -5 100 -9 243 -9 l243 0 31 68 c58 124 105 227
123 269 17 38 30 67 112 240 17 38 44 97 60 132 46 103 54 121 102 225 25 54
46 100 46 101 0 2 18 41 39 87 96 205 114 245 131 283 25 57 67 148 105 230
18 39 45 97 60 130 14 33 35 78 45 100 18 37 56 121 117 255 14 30 38 82 53
115 15 33 39 85 53 115 52 116 99 217 116 255 11 22 29 63 41 90 32 73 90 197
101 217 14 27 11 39 -21 106 -16 34 -30 64 -30 66 0 2 -21 48 -46 102 -59 130
-77 168 -107 234 -13 30 -39 87 -57 125 -43 92 -73 159 -100 220 -13 28 -38
84 -57 125 -19 41 -42 91 -50 110 -9 19 -28 62 -43 95 -15 33 -40 87 -55 120
-15 33 -37 83 -50 110 -13 28 -35 77 -50 110 -15 33 -40 87 -55 120 -15 33
-37 83 -50 110 -12 28 -34 75 -47 105 -14 30 -33 73 -43 95 -10 22 -33 74 -52
115 -19 41 -41 90 -49 108 l-14 32 -596 0 -597 0 -15 -32z m273 -215 c0 -100
1 -103 52 -174 9 -13 20 -44 23 -69 7 -49 7 -49 -41 15 -21 28 -64 34 -82 12
-7 -7 -20 -49 -31 -93 -11 -43 -29 -115 -41 -159 -11 -44 -24 -98 -29 -120 -9
-40 -81 -321 -126 -492 -14 -51 -25 -105 -25 -119 0 -32 30 -76 93 -133 27
-25 55 -57 63 -72 13 -27 20 -89 9 -89 -3 0 -20 16 -37 36 -34 39 -67 58 -115
67 -56 11 -69 -11 -114 -188 -59 -229 -60 -235 -66 -287 -5 -43 -2 -49 35 -86
42 -42 77 -53 167 -51 97 2 139 22 137 67 -1 38 -43 102 -82 125 -43 26 -39
41 9 33 61 -9 121 -46 184 -111 31 -33 57 -56 57 -52 0 4 -9 27 -20 49 -24 51
-24 48 1 48 22 0 109 -77 109 -97 0 -7 5 -13 10 -13 12 0 12 3 1 32 -84 208
-85 211 -85 298 -1 77 2 90 30 140 45 80 104 120 238 164 168 54 256 128 256
214 0 59 -55 130 -128 165 -46 22 -131 31 -178 18 -69 -19 -184 -139 -184
-192 0 -31 -22 -33 -47 -5 -32 38 -31 103 3 162 19 32 25 54 21 77 -4 25 5 50
40 115 44 82 45 83 33 132 -20 83 -16 166 11 204 24 35 59 63 59 47 0 -6 -4
-13 -10 -16 -12 -8 -13 -127 -1 -141 4 -5 21 -42 37 -82 l28 -74 105 4 c121 4
174 22 189 66 9 27 9 27 16 5 11 -34 -4 -52 -101 -118 -99 -68 -113 -90 -59
-100 101 -19 180 -70 222 -141 24 -41 28 -59 29 -124 0 -139 -55 -207 -247
-302 -120 -60 -149 -83 -166 -135 -21 -64 -4 -95 140 -252 61 -66 84 -100 102
-153 7 -22 36 -24 36 -3 0 23 84 105 108 105 22 0 30 -14 13 -24 -5 -3 -11
-19 -13 -35 -5 -34 13 -32 32 3 16 31 94 89 148 109 78 31 111 16 49 -22 -37
-23 -77 -90 -77 -130 0 -35 27 -51 104 -58 103 -9 151 2 197 48 33 33 39 45
39 83 0 23 -4 56 -9 72 -9 29 -23 83 -40 152 -44 172 -54 209 -62 224 -30 56
-105 41 -179 -34 -50 -50 -50 -51 -49 -22 2 53 14 74 86 148 91 93 95 110 64
231 -5 22 -14 58 -19 80 -6 22 -22 85 -37 140 -27 102 -72 281 -127 505 -17
69 -37 135 -45 148 -21 34 -53 28 -96 -20 l-38 -43 6 40 c3 22 22 63 40 92 32
48 34 58 37 147 2 54 7 97 13 98 10 2 52 -77 109 -202 16 -36 49 -108 74 -160
24 -52 55 -120 69 -150 14 -30 38 -82 53 -115 15 -33 42 -91 60 -130 18 -38
47 -101 65 -140 18 -38 44 -95 58 -125 13 -30 43 -93 65 -140 73 -156 105
-225 197 -425 12 -27 40 -86 60 -130 21 -44 46 -99 56 -122 9 -22 32 -71 50
-108 25 -53 30 -71 21 -88 -15 -33 -62 -135 -89 -197 -14 -30 -34 -75 -45
-100 -11 -25 -33 -72 -48 -105 -15 -33 -38 -82 -50 -110 -22 -48 -62 -137
-101 -220 -10 -22 -35 -76 -55 -120 -20 -44 -46 -102 -59 -130 -12 -27 -33
-72 -45 -100 -12 -27 -33 -72 -45 -100 -40 -87 -95 -209 -105 -230 -5 -11 -34
-73 -64 -138 -31 -65 -56 -121 -56 -123 0 -3 -15 -37 -34 -77 -76 -164 -104
-225 -111 -246 -20 -64 -25 23 -23 379 3 418 -1 392 63 405 32 7 149 122 192
189 27 42 27 73 4 191 -19 94 -30 207 -24 250 3 23 1 45 -4 48 -14 9 -85 -27
-127 -63 -46 -41 -80 -99 -97 -168 -7 -28 -16 -52 -20 -52 -14 0 -20 73 -13
151 5 66 4 79 -8 79 -31 0 -95 -58 -117 -106 -22 -45 -23 -57 -17 -184 3 -74
8 -179 12 -233 7 -108 2 -126 -55 -217 -81 -129 -100 -159 -146 -230 -64 -96
-65 -138 -13 -282 18 -50 14 -125 -8 -150 -11 -13 -43 -54 -69 -93 -27 -38
-57 -79 -67 -89 -25 -28 -23 -43 18 -123 53 -106 83 -114 196 -54 125 66 152
82 180 109 35 32 45 23 25 -20 -38 -82 -77 -169 -77 -173 0 -5 -20 -52 -51
-120 -5 -11 -31 -74 -58 -140 -30 -73 -56 -121 -65 -123 -9 -2 -16 1 -16 7 0
6 -13 40 -30 76 -16 36 -30 67 -30 69 0 2 -20 48 -46 102 -25 55 -49 108 -54
119 -4 11 -24 54 -43 95 -19 41 -40 93 -47 116 -15 50 -6 70 83 187 57 75 62
84 62 131 -1 39 -11 72 -43 138 -23 48 -42 99 -42 113 0 35 16 67 125 250 26
44 57 96 69 115 50 86 8 358 -80 508 -51 86 -150 174 -223 197 l-24 7 8 -76
c7 -80 0 -156 -16 -156 -5 0 -9 12 -9 26 0 76 -98 207 -185 248 -46 22 -57 14
-50 -37 6 -40 -4 -142 -25 -252 -25 -129 -24 -141 4 -189 31 -54 154 -181 182
-189 10 -3 31 -8 47 -11 l27 -6 0 -390 c0 -215 -4 -390 -8 -390 -5 0 -19 24
-32 53 -13 28 -43 95 -68 147 -24 52 -50 109 -57 126 -83 182 -118 258 -157
344 -29 61 -51 110 -100 220 -11 25 -33 72 -48 105 -15 33 -38 83 -50 110 -50
111 -73 163 -100 220 -40 87 -84 183 -110 240 -12 28 -35 77 -50 110 -15 33
-35 76 -43 95 -9 19 -38 84 -66 143 -28 60 -51 112 -51 115 0 4 16 39 34 78
19 39 49 101 65 138 59 128 89 192 126 271 20 44 48 105 62 135 14 30 43 93
65 140 22 47 52 110 65 140 14 30 40 87 58 125 18 39 44 95 58 125 33 71 92
199 127 275 16 33 43 92 60 130 33 73 64 139 123 265 19 41 45 98 57 125 48
105 60 100 60 -22z"/>
</g>
</svg>
