<?xml version="1.0" encoding="iso-8859-1"?>
<!-- Generator: Adobe Illustrator 16.0.0, SVG Export Plug-In . SVG Version: 6.00 Build 0)  -->
<!DOCTYPE svg PUBLIC "-//W3C//DTD SVG 1.1//EN" "http://www.w3.org/Graphics/SVG/1.1/DTD/svg11.dtd">
<svg version="1.1" id="Capa_1" xmlns="http://www.w3.org/2000/svg" xmlns:xlink="http://www.w3.org/1999/xlink" x="0px" y="0px"
	 width="26px" height="26px" viewBox="0 0 26 26" style="enable-background:new 0 0 26 26;" xml:space="preserve">
<g>
	<g>
		<path d="M7,5.378h12v-1.5H7V5.378z M17.417,4.045h1.167v1.167h-1.167V4.045z"/>
		<path d="M8.608,17.561H7.472c-0.26,0-0.473,0.213-0.473,0.474v1.135c0,0.259,0.213,0.474,0.473,0.474h1.136
			c0.26,0,0.472-0.213,0.472-0.474v-1.135C9.08,17.773,8.868,17.561,8.608,17.561z M8.83,19.168c0,0.121-0.102,0.223-0.222,0.223
			H7.472c-0.121,0-0.223-0.102-0.223-0.223v-1.135c0-0.121,0.102-0.223,0.223-0.223h1.136c0.12,0,0.222,0.102,0.222,0.223V19.168z"
			/>
		<path d="M11.915,17.561h-1.137c-0.26,0-0.473,0.213-0.473,0.474v1.135c0,0.259,0.213,0.474,0.473,0.474h1.137
			c0.26,0,0.472-0.213,0.472-0.474v-1.135C12.387,17.773,12.175,17.561,11.915,17.561z M12.137,19.168
			c0,0.121-0.102,0.223-0.222,0.223h-1.137c-0.121,0-0.223-0.102-0.223-0.223v-1.135c0-0.121,0.102-0.223,0.223-0.223h1.137
			c0.12,0,0.222,0.102,0.222,0.223V19.168z"/>
		<path d="M15.223,17.561h-1.138c-0.26,0-0.472,0.213-0.472,0.474v1.135c0,0.259,0.212,0.474,0.472,0.474h1.138
			c0.26,0,0.471-0.213,0.471-0.474v-1.135C15.693,17.773,15.48,17.561,15.223,17.561z M15.443,19.168
			c0,0.121-0.103,0.223-0.223,0.223h-1.137c-0.12,0-0.223-0.102-0.223-0.223v-1.135c0-0.121,0.103-0.223,0.223-0.223h1.137
			c0.12,0,0.223,0.102,0.223,0.223V19.168z"/>
		<path d="M18.527,17.561h-1.137c-0.261,0-0.473,0.213-0.473,0.474v1.135c0,0.259,0.212,0.474,0.473,0.474h1.137
			c0.26,0,0.473-0.213,0.473-0.474v-1.135C19,17.773,18.787,17.561,18.527,17.561z M18.75,19.168c0,0.121-0.102,0.223-0.223,0.223
			h-1.137c-0.121,0-0.223-0.102-0.223-0.223v-1.135c0-0.121,0.102-0.223,0.223-0.223h1.137c0.121,0,0.223,0.102,0.223,0.223V19.168z
			"/>
		<path d="M8.608,14.48H7.472c-0.26,0-0.473,0.213-0.473,0.473v1.135c0,0.26,0.213,0.473,0.473,0.473h1.136
			c0.26,0,0.472-0.213,0.472-0.473v-1.135C9.08,14.693,8.868,14.48,8.608,14.48z M8.83,16.088c0,0.121-0.102,0.223-0.222,0.223
			H7.472c-0.121,0-0.223-0.102-0.223-0.223v-1.135c0-0.121,0.102-0.223,0.223-0.223h1.136c0.12,0,0.222,0.102,0.222,0.223V16.088z"
			/>
		<path d="M11.915,14.48h-1.137c-0.26,0-0.473,0.213-0.473,0.473v1.135c0,0.26,0.213,0.473,0.473,0.473h1.137
			c0.26,0,0.472-0.213,0.472-0.473v-1.135C12.387,14.693,12.175,14.48,11.915,14.48z M12.137,16.088
			c0,0.121-0.102,0.223-0.222,0.223h-1.137c-0.121,0-0.223-0.102-0.223-0.223v-1.135c0-0.121,0.102-0.223,0.223-0.223h1.137
			c0.12,0,0.222,0.102,0.222,0.223V16.088z"/>
		<path d="M15.223,14.48h-1.138c-0.26,0-0.472,0.213-0.472,0.473v1.135c0,0.26,0.212,0.473,0.472,0.473h1.138
			c0.26,0,0.471-0.213,0.471-0.473v-1.135C15.693,14.693,15.48,14.48,15.223,14.48z M15.443,16.088c0,0.121-0.103,0.223-0.223,0.223
			h-1.137c-0.12,0-0.223-0.102-0.223-0.223v-1.135c0-0.121,0.103-0.223,0.223-0.223h1.137c0.12,0,0.223,0.102,0.223,0.223V16.088z"
			/>
		<path d="M18.527,14.48h-1.137c-0.261,0-0.473,0.213-0.473,0.473v1.135c0,0.26,0.212,0.473,0.473,0.473h1.137
			c0.26,0,0.473-0.213,0.473-0.473v-1.135C19,14.693,18.787,14.48,18.527,14.48z M18.75,16.088c0,0.121-0.102,0.223-0.223,0.223
			h-1.137c-0.121,0-0.223-0.102-0.223-0.223v-1.135c0-0.121,0.102-0.223,0.223-0.223h1.137c0.121,0,0.223,0.102,0.223,0.223V16.088z
			"/>
		<path d="M19,0H7C5.9,0,5,0.9,5,2v22c0,1.1,0.9,2,2,2h12c1.1,0,2-0.9,2-2V2C21,0.9,20.1,0,19,0z M12,0.923h2
			c0.275,0,0.5,0.159,0.5,0.354c0,0.195-0.225,0.354-0.5,0.354h-2c-0.275,0-0.5-0.159-0.5-0.354C11.5,1.083,11.725,0.923,12,0.923z
			 M7.5,0.778c0.275,0,0.5,0.224,0.5,0.5c0,0.276-0.225,0.5-0.5,0.5S7,1.554,7,1.278C7,1.002,7.225,0.778,7.5,0.778z M13,24.936
			c-0.659,0-1.193-0.533-1.193-1.192c0-0.66,0.534-1.194,1.193-1.194s1.193,0.534,1.193,1.194C14.193,24.4,13.659,24.936,13,24.936z
			 M20,21c0,0.275-0.225,0.5-0.5,0.5h-13C6.225,21.5,6,21.275,6,21V3c0-0.275,0.225-0.5,0.5-0.5h13C19.775,2.5,20,2.725,20,3V21z"/>
	</g>
</g>
<g>
</g>
<g>
</g>
<g>
</g>
<g>
</g>
<g>
</g>
<g>
</g>
<g>
</g>
<g>
</g>
<g>
</g>
<g>
</g>
<g>
</g>
<g>
</g>
<g>
</g>
<g>
</g>
<g>
</g>
</svg>
