<?xml version="1.0" encoding="iso-8859-1"?>
<!-- Generator: Adobe Illustrator 16.0.0, SVG Export Plug-In . SVG Version: 6.00 Build 0)  -->
<!DOCTYPE svg PUBLIC "-//W3C//DTD SVG 1.1//EN" "http://www.w3.org/Graphics/SVG/1.1/DTD/svg11.dtd">
<svg version="1.1" id="Capa_1" xmlns="http://www.w3.org/2000/svg" xmlns:xlink="http://www.w3.org/1999/xlink" x="0px" y="0px"
	 width="25.458px" height="25.458px" viewBox="0 0 25.458 25.458" style="enable-background:new 0 0 25.458 25.458;"
	 xml:space="preserve">
<g>
	<g>
		<path d="M12.729,0.229c-6.904,0-12.5,5.597-12.5,12.501s5.596,12.498,12.5,12.498s12.5-5.594,12.5-12.498
			S19.633,0.229,12.729,0.229z M12.729,22.729c-5.522,0-10-4.477-10-9.998c0-5.522,4.478-10.001,10-10.001
			c5.523,0,10,4.479,10,10.001C22.729,18.252,18.252,22.729,12.729,22.729z"/>
		<path d="M12.729,4.729c-4.417,0-8,3.584-8,8.001c0,4.416,3.583,7.998,8,7.998c4.417,0,8-3.582,8-7.998
			C20.729,8.313,17.146,4.729,12.729,4.729z M12.729,19.729c-3.866,0-7-3.135-7-6.998c0-3.864,3.134-7.001,7-7.001
			c3.867,0,7,3.137,7,7.001C19.729,16.594,16.596,19.729,12.729,19.729z"/>
		<path d="M12.729,6.729c-3.313,0-6,2.688-6,6.001c0,3.312,2.687,5.998,6,5.998s6-2.688,6-5.998
			C18.729,9.417,16.042,6.729,12.729,6.729z M11.479,11.292c-1.562,1.563-0.018,5.826-1.578,4.267
			C8.339,13.997,8.338,11.463,9.9,9.902c1.562-1.563,4.096-1.561,5.659,0C17.118,11.461,13.041,9.73,11.479,11.292z"/>
		<circle cx="23.958" cy="1.5" r="1.5"/>
		<circle cx="23.958" cy="23.958" r="1.5"/>
		<circle cx="1.5" cy="1.5" r="1.5"/>
		<circle cx="1.5" cy="23.958" r="1.5"/>
	</g>
</g>
<g>
</g>
<g>
</g>
<g>
</g>
<g>
</g>
<g>
</g>
<g>
</g>
<g>
</g>
<g>
</g>
<g>
</g>
<g>
</g>
<g>
</g>
<g>
</g>
<g>
</g>
<g>
</g>
<g>
</g>
</svg>
