<?xml version="1.0" encoding="iso-8859-1"?>
<!-- Generator: Adobe Illustrator 16.0.0, SVG Export Plug-In . SVG Version: 6.00 Build 0)  -->
<!DOCTYPE svg PUBLIC "-//W3C//DTD SVG 1.1//EN" "http://www.w3.org/Graphics/SVG/1.1/DTD/svg11.dtd">
<svg version="1.1" id="Capa_1" xmlns="http://www.w3.org/2000/svg" xmlns:xlink="http://www.w3.org/1999/xlink" x="0px" y="0px"
	 width="36.164px" height="36.164px" viewBox="0 0 36.164 36.164" style="enable-background:new 0 0 36.164 36.164;"
	 xml:space="preserve">
<g>
	<g>
		<circle cx="29.686" cy="6.853" r="1.5"/>
		<circle cx="29.686" cy="29.311" r="1.5"/>
		<circle cx="7.227" cy="6.853" r="1.5"/>
		<circle cx="7.227" cy="29.311" r="1.5"/>
		<path d="M30.463,14.632l-2.293,1.113c0.18,0.751,0.286,1.531,0.286,2.338c0,5.521-4.478,9.998-10,9.998
			c-3.186,0-6.017-1.494-7.848-3.813l-2.289,1.11c2.27,3.146,5.959,5.203,10.137,5.203c6.903,0,12.5-5.594,12.5-12.498
			C30.956,16.885,30.777,15.729,30.463,14.632z"/>
		<path d="M12.462,23.367c1.466,1.661,3.605,2.715,5.994,2.715c4.417,0,8-3.582,8-7.998c0-0.492-0.051-0.974-0.136-1.44
			l-0.941,0.456c0.045,0.322,0.077,0.648,0.077,0.984c0,3.863-3.134,6.998-7,6.998c-1.991,0-3.783-0.834-5.058-2.168L12.462,23.367z
			"/>
		<path d="M24.456,18.083c0-0.178-0.013-0.352-0.026-0.523l-10.078,4.891c1.074,1.008,2.515,1.631,4.104,1.631
			C21.77,24.082,24.456,21.395,24.456,18.083z"/>
		<path d="M35.291,8.066l-6.427,3.119c-2.236-3.374-6.058-5.603-10.408-5.603c-6.904,0-12.5,5.597-12.5,12.501
			c0,1.367,0.24,2.674,0.649,3.904L0,25.192l0.873,1.8L36.164,9.865L35.291,8.066z M8.456,18.083c0-5.522,4.478-10.001,10-10.001
			c3.358,0,6.308,1.672,8.119,4.214l-1.828,0.888c-1.462-1.879-3.726-3.102-6.291-3.102c-4.417,0-8,3.584-8,8.001
			c0,0.662,0.084,1.305,0.238,1.92l-1.816,0.881C8.614,19.994,8.456,19.06,8.456,18.083z M19.031,15.957
			c-0.688,0.057-1.365,0.229-1.825,0.688c-0.087,0.088-0.145,0.199-0.214,0.302l-2.519,1.222c-0.03-1.051,0.35-2.11,1.154-2.915
			c1.469-1.469,3.787-1.537,5.357-0.245L19.031,15.957z M18.456,12.082c-3.313,0-6,2.688-6,6.001c0,0.348,0.04,0.686,0.098,1.018
			l-0.931,0.452c-0.104-0.476-0.167-0.966-0.167-1.47c0-3.864,3.134-7.001,7-7.001c2.168,0,4.097,0.994,5.378,2.544l-0.928,0.451
			C21.809,12.856,20.227,12.082,18.456,12.082z"/>
	</g>
</g>
<g>
</g>
<g>
</g>
<g>
</g>
<g>
</g>
<g>
</g>
<g>
</g>
<g>
</g>
<g>
</g>
<g>
</g>
<g>
</g>
<g>
</g>
<g>
</g>
<g>
</g>
<g>
</g>
<g>
</g>
</svg>
