<?xml version="1.0" encoding="iso-8859-1"?>
<!-- Generator: Adobe Illustrator 16.0.0, SVG Export Plug-In . SVG Version: 6.00 Build 0)  -->
<!DOCTYPE svg PUBLIC "-//W3C//DTD SVG 1.1//EN" "http://www.w3.org/Graphics/SVG/1.1/DTD/svg11.dtd">
<svg version="1.1" id="Capa_1" xmlns="http://www.w3.org/2000/svg" xmlns:xlink="http://www.w3.org/1999/xlink" x="0px" y="0px"
	 width="24px" height="24px" viewBox="0 0 24 24" style="enable-background:new 0 0 24 24;" xml:space="preserve">
<g>
	<g>
		<path d="M20,0H4C1.795,0,0,1.794,0,4v16c0,2.206,1.795,4,4,4h16c2.205,0,4-1.794,4-4V4C24,1.794,22.205,0,20,0z M22,20
			c0,1.104-0.896,2-2,2H4c-1.104,0-2-0.896-2-2V4c0-1.103,0.896-2,2-2h16c1.104,0,2,0.897,2,2V20z"/>
		<path d="M7,5.25C6.035,5.25,5.25,6.035,5.25,7S6.035,8.75,7,8.75S8.75,7.965,8.75,7S7.965,5.25,7,5.25z M7,8.25
			C6.311,8.25,5.75,7.689,5.75,7S6.311,5.75,7,5.75S8.25,6.311,8.25,7S7.689,8.25,7,8.25z"/>
		<path d="M7,10.25c-0.965,0-1.75,0.785-1.75,1.75S6.035,13.75,7,13.75S8.75,12.965,8.75,12S7.965,10.25,7,10.25z M7,13.25
			c-0.689,0-1.25-0.561-1.25-1.25c0-0.689,0.561-1.25,1.25-1.25S8.25,11.311,8.25,12C8.25,12.689,7.689,13.25,7,13.25z"/>
		<path d="M7,15.25c-0.965,0-1.75,0.785-1.75,1.75S6.035,18.75,7,18.75S8.75,17.965,8.75,17S7.965,15.25,7,15.25z M7,18.25
			c-0.689,0-1.25-0.561-1.25-1.25S6.311,15.75,7,15.75S8.25,16.311,8.25,17S7.689,18.25,7,18.25z"/>
		<path d="M12,5.25c-0.965,0-1.75,0.785-1.75,1.75S11.035,8.75,12,8.75S13.75,7.965,13.75,7S12.965,5.25,12,5.25z M12,8.25
			c-0.689,0-1.25-0.561-1.25-1.25S11.311,5.75,12,5.75c0.689,0,1.25,0.561,1.25,1.25S12.689,8.25,12,8.25z"/>
		<path d="M12,10.25c-0.965,0-1.75,0.785-1.75,1.75s0.785,1.75,1.75,1.75s1.75-0.785,1.75-1.75S12.965,10.25,12,10.25z M12,13.25
			c-0.689,0-1.25-0.561-1.25-1.25c0-0.689,0.561-1.25,1.25-1.25c0.689,0,1.25,0.561,1.25,1.25C13.25,12.689,12.689,13.25,12,13.25z"
			/>
		<path d="M12,15.25c-0.965,0-1.75,0.785-1.75,1.75s0.785,1.75,1.75,1.75s1.75-0.785,1.75-1.75S12.965,15.25,12,15.25z M12,18.25
			c-0.689,0-1.25-0.561-1.25-1.25s0.561-1.25,1.25-1.25c0.689,0,1.25,0.561,1.25,1.25S12.689,18.25,12,18.25z"/>
		<path d="M17,5.25c-0.965,0-1.75,0.785-1.75,1.75S16.035,8.75,17,8.75S18.75,7.965,18.75,7S17.965,5.25,17,5.25z M17,8.25
			c-0.689,0-1.25-0.561-1.25-1.25S16.311,5.75,17,5.75S18.25,6.311,18.25,7S17.689,8.25,17,8.25z"/>
		<path d="M17,10.25c-0.965,0-1.75,0.785-1.75,1.75s0.785,1.75,1.75,1.75s1.75-0.785,1.75-1.75S17.965,10.25,17,10.25z M17,13.25
			c-0.689,0-1.25-0.561-1.25-1.25c0-0.689,0.561-1.25,1.25-1.25s1.25,0.561,1.25,1.25C18.25,12.689,17.689,13.25,17,13.25z"/>
		<path d="M17,15.25c-0.965,0-1.75,0.785-1.75,1.75s0.785,1.75,1.75,1.75s1.75-0.785,1.75-1.75S17.965,15.25,17,15.25z M17,18.25
			c-0.689,0-1.25-0.561-1.25-1.25s0.561-1.25,1.25-1.25s1.25,0.561,1.25,1.25S17.689,18.25,17,18.25z"/>
	</g>
</g>
<g>
</g>
<g>
</g>
<g>
</g>
<g>
</g>
<g>
</g>
<g>
</g>
<g>
</g>
<g>
</g>
<g>
</g>
<g>
</g>
<g>
</g>
<g>
</g>
<g>
</g>
<g>
</g>
<g>
</g>
</svg>
