<?xml version="1.0" encoding="iso-8859-1"?>
<!-- Generator: Adobe Illustrator 16.0.0, SVG Export Plug-In . SVG Version: 6.00 Build 0)  -->
<!DOCTYPE svg PUBLIC "-//W3C//DTD SVG 1.1//EN" "http://www.w3.org/Graphics/SVG/1.1/DTD/svg11.dtd">
<svg version="1.1" id="Capa_1" xmlns="http://www.w3.org/2000/svg" xmlns:xlink="http://www.w3.org/1999/xlink" x="0px" y="0px"
	 width="28.041px" height="28.041px" viewBox="0 0 28.041 28.041" style="enable-background:new 0 0 28.041 28.041;"
	 xml:space="preserve">
<g>
	<path d="M27.354,12.914L24.925,11.3c-0.916-0.608-1.488-1.988-1.271-3.067l0.576-2.856c0.219-1.079-0.485-1.783-1.564-1.565
		l-2.857,0.576c-1.079,0.218-2.459-0.354-3.066-1.271l-1.614-2.43c-0.608-0.916-1.604-0.916-2.213,0L11.3,3.116
		c-0.608,0.916-1.988,1.487-3.067,1.271L5.376,3.811C4.297,3.593,3.593,4.297,3.811,5.376l0.576,2.856
		c0.218,1.079-0.354,2.459-1.271,3.067l-2.43,1.614c-0.916,0.607-0.916,1.604,0,2.213l2.43,1.614
		c0.916,0.607,1.487,1.987,1.271,3.066l-0.576,2.857c-0.218,1.079,0.486,1.782,1.565,1.564l2.856-0.576
		c1.079-0.218,2.459,0.354,3.067,1.271l1.614,2.429c0.607,0.916,1.604,0.916,2.213,0l1.614-2.429
		c0.607-0.916,1.987-1.488,3.066-1.271l2.857,0.576c1.079,0.218,1.783-0.485,1.564-1.564l-0.576-2.857
		c-0.218-1.079,0.354-2.459,1.271-3.066l2.429-1.614C28.27,14.518,28.27,13.521,27.354,12.914z M21.003,14.362
		c-0.076,1.567-0.677,3.109-1.803,4.352l0.123,0.61l-0.61-0.123c-1.241,1.126-2.783,1.727-4.352,1.803L14.02,21.52l-0.343-0.517
		c-1.567-0.076-3.109-0.677-4.351-1.803l-0.61,0.122l0.123-0.609c-1.126-1.241-1.728-2.783-1.803-4.352L6.52,14.02l0.518-0.343
		c0.075-1.567,0.677-3.109,1.803-4.351l-0.123-0.61l0.61,0.123c1.24-1.126,2.782-1.728,4.351-1.803L14.02,6.52l0.343,0.518
		c1.567,0.075,3.109,0.677,4.352,1.803l0.61-0.123l-0.123,0.61c1.126,1.24,1.727,2.782,1.803,4.351l0.516,0.342L21.003,14.362z"/>
</g>
<g>
</g>
<g>
</g>
<g>
</g>
<g>
</g>
<g>
</g>
<g>
</g>
<g>
</g>
<g>
</g>
<g>
</g>
<g>
</g>
<g>
</g>
<g>
</g>
<g>
</g>
<g>
</g>
<g>
</g>
</svg>
