<?xml version="1.0" encoding="iso-8859-1"?>
<!-- Generator: Adobe Illustrator 16.0.0, SVG Export Plug-In . SVG Version: 6.00 Build 0)  -->
<!DOCTYPE svg PUBLIC "-//W3C//DTD SVG 1.1//EN" "http://www.w3.org/Graphics/SVG/1.1/DTD/svg11.dtd">
<svg version="1.1" id="Capa_1" xmlns="http://www.w3.org/2000/svg" xmlns:xlink="http://www.w3.org/1999/xlink" x="0px" y="0px"
	 width="25.973px" height="25.974px" viewBox="0 0 25.973 25.974" style="enable-background:new 0 0 25.973 25.974;"
	 xml:space="preserve">
<g>
	<g>
		<path d="M19.48,0H6.494C4.541,0,2.952,1.589,2.952,3.542v18.89c0,1.953,1.589,3.542,3.542,3.542H19.48
			c1.952,0,3.542-1.589,3.542-3.542V3.542C23.022,1.589,21.432,0,19.48,0z M13.257,24.793c-0.794,0-1.439-0.645-1.439-1.438
			c0-0.795,0.645-1.439,1.439-1.439c0.794,0,1.438,0.645,1.438,1.439C14.695,24.148,14.051,24.793,13.257,24.793z M20.661,20.07
			c0,0.65-0.529,1.181-1.181,1.181H6.494c-0.652,0-1.181-0.529-1.181-1.181V3.542c0-0.651,0.529-1.181,1.181-1.181H19.48
			c0.649,0,1.181,0.529,1.181,1.181V20.07z"/>
		<circle cx="8.255" cy="5.709" r="0.987"/>
		<circle cx="11.41" cy="5.709" r="0.987"/>
		<circle cx="14.564" cy="5.709" r="0.987"/>
		<circle cx="17.719" cy="5.709" r="0.987"/>
		<circle cx="8.255" cy="8.863" r="0.987"/>
		<circle cx="11.41" cy="8.863" r="0.987"/>
		<circle cx="14.564" cy="8.863" r="0.987"/>
		<circle cx="17.719" cy="8.863" r="0.987"/>
		<circle cx="8.255" cy="12.018" r="0.987"/>
		<circle cx="11.41" cy="12.018" r="0.987"/>
	</g>
</g>
<g>
</g>
<g>
</g>
<g>
</g>
<g>
</g>
<g>
</g>
<g>
</g>
<g>
</g>
<g>
</g>
<g>
</g>
<g>
</g>
<g>
</g>
<g>
</g>
<g>
</g>
<g>
</g>
<g>
</g>
</svg>
