<?xml version="1.0" encoding="iso-8859-1"?>
<!-- Generator: Adobe Illustrator 16.0.0, SVG Export Plug-In . SVG Version: 6.00 Build 0)  -->
<!DOCTYPE svg PUBLIC "-//W3C//DTD SVG 1.1//EN" "http://www.w3.org/Graphics/SVG/1.1/DTD/svg11.dtd">
<svg version="1.1" id="Capa_1" xmlns="http://www.w3.org/2000/svg" xmlns:xlink="http://www.w3.org/1999/xlink" x="0px" y="0px"
	 width="30.471px" height="30.471px" viewBox="0 0 30.471 30.471" style="enable-background:new 0 0 30.471 30.471;"
	 xml:space="preserve">
<g>
	<g>
		<path d="M20.65,6.365H17.72c-0.004-0.021-0.008-0.042-0.012-0.063l4.639-4.94c0.285,0.175,0.658,0.152,0.906-0.095
			c0.289-0.29,0.289-0.76,0-1.05c-0.291-0.289-0.76-0.289-1.049,0c-0.248,0.249-0.271,0.621-0.096,0.907l-4.781,4.489
			c-0.224-0.2-0.511-0.331-0.832-0.331h-2.523c-0.322,0-0.609,0.131-0.833,0.331L8.358,1.124c0.175-0.286,0.153-0.658-0.095-0.907
			c-0.29-0.289-0.76-0.289-1.049,0c-0.29,0.29-0.29,0.76,0,1.05c0.248,0.247,0.62,0.27,0.906,0.095l4.639,4.94
			c-0.004,0.021-0.009,0.043-0.013,0.063h-2.93c-2.98,0-5.417,2.438-5.417,5.418v10.835c0,2.734,2.059,4.987,4.699,5.345
			l-0.668,2.25c-0.084,0.285,0.014,0.343,0.219,0.127l2.183-2.304h8.805l2.184,2.304c0.205,0.216,0.303,0.158,0.219-0.127
			l-0.668-2.25c2.641-0.356,4.699-2.609,4.699-5.345V11.783C26.068,8.803,23.63,6.365,20.65,6.365z M15.233,27.562
			c-0.488,0-0.883-0.396-0.883-0.884s0.396-0.884,0.883-0.884s0.883,0.396,0.883,0.884C16.116,27.166,15.721,27.562,15.233,27.562z
			 M24.443,20.722c0,2.531-2.073,4.604-4.604,4.604h-9.21c-2.532,0-4.605-2.073-4.605-4.604v-8.127c0-2.532,2.073-4.604,4.605-4.604
			h9.21c2.531,0,4.604,2.072,4.604,4.604V20.722z"/>
		<polygon points="10.002,15.918 11.599,15.918 11.599,19.734 13.165,19.734 13.165,15.918 14.761,15.918 14.761,14.667 
			10.002,14.667 		"/>
		<polygon points="17.749,18.312 16.609,14.667 14.972,14.667 16.886,19.734 18.583,19.734 20.464,14.667 18.876,14.667 		"/>
	</g>
</g>
<g>
</g>
<g>
</g>
<g>
</g>
<g>
</g>
<g>
</g>
<g>
</g>
<g>
</g>
<g>
</g>
<g>
</g>
<g>
</g>
<g>
</g>
<g>
</g>
<g>
</g>
<g>
</g>
<g>
</g>
</svg>
