<?xml version="1.0" encoding="iso-8859-1"?>
<!-- Generator: Adobe Illustrator 16.0.0, SVG Export Plug-In . SVG Version: 6.00 Build 0)  -->
<!DOCTYPE svg PUBLIC "-//W3C//DTD SVG 1.1//EN" "http://www.w3.org/Graphics/SVG/1.1/DTD/svg11.dtd">
<svg version="1.1" id="Capa_1" xmlns="http://www.w3.org/2000/svg" xmlns:xlink="http://www.w3.org/1999/xlink" x="0px" y="0px"
	 width="28.068px" height="28.068px" viewBox="0 0 28.068 28.068" style="enable-background:new 0 0 28.068 28.068;"
	 xml:space="preserve">
<g>
	<path d="M5.085,11.109c0,0.888,0.468,1.637,1.141,2.116c-0.673,0.48-1.141,1.229-1.141,2.117c0,1.459,1.187,2.646,2.646,2.646
		h5.202v7.436c0,1.459,1.424,2.645,3.174,2.645s3.174-1.186,3.174-2.645V17.86c2.117-0.483,3.703-2.373,3.703-4.634V4.761
		C22.984,2.136,20.848,0,18.223,0H7.73C6.271,0,5.084,1.186,5.084,2.645c0,0.888,0.468,1.637,1.141,2.116
		C5.552,5.241,5.084,5.99,5.084,6.878c0,0.887,0.468,1.636,1.141,2.116C5.553,9.472,5.085,10.221,5.085,11.109z M18.223,25.422
		c0,0.875-0.949,1.588-2.117,1.588c-1.166,0-2.115-0.713-2.115-1.588v-7.435h4.232V25.422z M7.73,9.522h8.465
		c0.292,0,0.529-0.237,0.529-0.529s-0.237-0.529-0.529-0.529H7.73c-0.875,0-1.587-0.712-1.587-1.587S6.855,5.29,7.73,5.29h8.465
		c0.292,0,0.529-0.236,0.529-0.529c0-0.292-0.237-0.528-0.529-0.528H7.73c-0.875,0-1.587-0.712-1.587-1.588
		c0-0.875,0.712-1.587,1.587-1.587h10.493c2.041,0,3.703,1.662,3.703,3.703v8.465c0,2.042-1.662,3.704-3.703,3.704H7.73
		c-0.875,0-1.587-0.711-1.587-1.586c0-0.875,0.712-1.587,1.587-1.587h8.465c0.292,0,0.529-0.236,0.529-0.529
		c0-0.292-0.237-0.528-0.529-0.528H7.73c-0.875,0-1.587-0.712-1.587-1.587S6.855,9.522,7.73,9.522z"/>
</g>
<g>
</g>
<g>
</g>
<g>
</g>
<g>
</g>
<g>
</g>
<g>
</g>
<g>
</g>
<g>
</g>
<g>
</g>
<g>
</g>
<g>
</g>
<g>
</g>
<g>
</g>
<g>
</g>
<g>
</g>
</svg>
