<?xml version="1.0" encoding="iso-8859-1"?>
<!-- Generator: Adobe Illustrator 16.0.0, SVG Export Plug-In . SVG Version: 6.00 Build 0)  -->
<!DOCTYPE svg PUBLIC "-//W3C//DTD SVG 1.1//EN" "http://www.w3.org/Graphics/SVG/1.1/DTD/svg11.dtd">
<svg version="1.1" id="Capa_1" xmlns="http://www.w3.org/2000/svg" xmlns:xlink="http://www.w3.org/1999/xlink" x="0px" y="0px"
	 width="35.498px" height="35.498px" viewBox="0 0 35.498 35.498" style="enable-background:new 0 0 35.498 35.498;"
	 xml:space="preserve">
<g>
	<g>
		<path d="M14.249,3.5c0-0.827,0.673-1.5,1.5-1.5s1.5,0.673,1.5,1.5v18.75h2V3.5c0-1.93-1.57-3.5-3.5-3.5s-3.5,1.57-3.5,3.5v18.75h2
			V3.5z"/>
		<path d="M21.249,3.5v18.75h2V3.5c0-1.93-1.57-3.5-3.5-3.5c-0.354,0-0.686,0.068-1.006,0.165c0.558,0.502,0.982,1.136,1.236,1.858
			C20.697,2.136,21.249,2.752,21.249,3.5z"/>
		<path d="M24.249,23.25h-13c-0.55,0-1,0.45-1,1v3c0,0.55,0.435,1.116,0.966,1.258l1.534,0.409v1.333
			c0,0.646,0.778,1.214,1.965,1.579c-0.068,0.093-0.116,0.201-0.116,0.325c0,0.144,0.059,0.271,0.147,0.369
			c-0.089,0.1-0.147,0.228-0.147,0.371c0,0.145,0.059,0.272,0.147,0.371c-0.089,0.1-0.147,0.228-0.147,0.37
			c0,0.308,0.249,0.558,0.556,0.558h0.965c-0.021,0.059-0.037,0.119-0.037,0.186c0,0.307,0.249,0.557,0.556,0.557h0.091
			c0,0.311,0.457,0.562,1.021,0.562c0.563,0,1.021-0.252,1.021-0.562h0.092c0.308,0,0.557-0.25,0.557-0.557
			c0-0.066-0.018-0.127-0.037-0.186h0.965c0.307,0,0.557-0.25,0.557-0.558c0-0.144-0.059-0.271-0.147-0.37
			c0.089-0.099,0.147-0.227,0.147-0.371c0-0.144-0.059-0.271-0.147-0.371c0.089-0.098,0.147-0.227,0.147-0.369
			c0-0.124-0.049-0.232-0.116-0.325c1.185-0.365,1.962-0.935,1.962-1.579v-1.333l1.534-0.409c0.53-0.142,0.966-0.708,0.966-1.258v-3
			C25.249,23.7,24.799,23.25,24.249,23.25z"/>
	</g>
</g>
<g>
</g>
<g>
</g>
<g>
</g>
<g>
</g>
<g>
</g>
<g>
</g>
<g>
</g>
<g>
</g>
<g>
</g>
<g>
</g>
<g>
</g>
<g>
</g>
<g>
</g>
<g>
</g>
<g>
</g>
</svg>
