<?xml version="1.0" encoding="iso-8859-1"?>
<!-- Generator: Adobe Illustrator 16.0.0, SVG Export Plug-In . SVG Version: 6.00 Build 0)  -->
<!DOCTYPE svg PUBLIC "-//W3C//DTD SVG 1.1//EN" "http://www.w3.org/Graphics/SVG/1.1/DTD/svg11.dtd">
<svg version="1.1" id="Capa_1" xmlns="http://www.w3.org/2000/svg" xmlns:xlink="http://www.w3.org/1999/xlink" x="0px" y="0px"
	 width="29.493px" height="29.493px" viewBox="0 0 29.493 29.493" style="enable-background:new 0 0 29.493 29.493;"
	 xml:space="preserve">
<g>
	<g>
		<path d="M27.453,12.166c-0.514-1.841-1.98-3.18-3.729-3.18c-0.021,0-0.039,0.006-0.059,0.007
			c-0.281-3.498-2.779-6.246-5.854-6.246c-1.729,0-3.271,0.884-4.354,2.265c-0.682-0.658-1.546-1.07-2.499-1.07
			c-2.14,0-3.874,1.993-3.931,4.472C6.654,8.248,6.251,8.145,5.826,8.145c-1.885,0-3.412,1.781-3.412,3.978
			C1.08,12.123,0,13.381,0,14.936c0,1.554,1.081,2.811,2.415,2.811c0.055,0,24.621,0,24.664,0c1.334,0,2.414-1.259,2.414-2.812
			C29.493,13.529,28.607,12.375,27.453,12.166z"/>
		<path d="M25.747,24.747c-1.89,0-3.467-1.318-3.884-3.082h0.884c0.274,0,0.36-0.177,0.19-0.393l-1.881-2.381
			c-0.17-0.215-0.449-0.215-0.619,0l-1.881,2.381c-0.17,0.216-0.086,0.393,0.189,0.393h1.078c0.443,2.873,2.927,5.082,5.923,5.082
			c0.554,0,1-0.447,1-1S26.301,24.747,25.747,24.747z"/>
		<path d="M15.057,18.893c-0.169-0.217-0.449-0.217-0.619,0l-1.881,2.379c-0.17,0.217-0.085,0.394,0.19,0.394h1v4.081
			c0,0.553,0.447,1,1,1c0.554,0,1-0.447,1-1v-4.082h1c0.274,0,0.36-0.177,0.19-0.393L15.057,18.893z"/>
		<path d="M9.057,18.893c-0.17-0.217-0.449-0.217-0.619,0l-1.881,2.379c-0.17,0.217-0.085,0.394,0.19,0.394h0.884
			c-0.417,1.763-1.995,3.081-3.884,3.081c-0.553,0-1,0.447-1,1s0.447,1,1,1c2.996,0,5.479-2.209,5.922-5.082h1.078
			c0.275,0,0.36-0.177,0.19-0.393L9.057,18.893z"/>
	</g>
</g>
<g>
</g>
<g>
</g>
<g>
</g>
<g>
</g>
<g>
</g>
<g>
</g>
<g>
</g>
<g>
</g>
<g>
</g>
<g>
</g>
<g>
</g>
<g>
</g>
<g>
</g>
<g>
</g>
<g>
</g>
</svg>
