<?xml version="1.0" encoding="iso-8859-1"?>
<!-- Generator: Adobe Illustrator 16.0.0, SVG Export Plug-In . SVG Version: 6.00 Build 0)  -->
<!DOCTYPE svg PUBLIC "-//W3C//DTD SVG 1.1//EN" "http://www.w3.org/Graphics/SVG/1.1/DTD/svg11.dtd">
<svg version="1.1" id="Capa_1" xmlns="http://www.w3.org/2000/svg" xmlns:xlink="http://www.w3.org/1999/xlink" x="0px" y="0px"
	 width="24.349px" height="24.349px" viewBox="0 0 24.349 24.349" style="enable-background:new 0 0 24.349 24.349;"
	 xml:space="preserve">
<g>
	<path d="M23.537,7.305h-5.682c-0.445,0-0.812-0.364-0.812-0.812V0.812C17.044,0.365,16.679,0,16.232,0H8.117
		C7.671,0,7.305,0.364,7.305,0.812v5.681c0,0.447-0.365,0.812-0.812,0.812H0.812C0.366,7.305,0,7.669,0,8.117v8.116
		c0,0.446,0.365,0.812,0.812,0.812h5.681c0.446,0,0.812,0.364,0.812,0.812v5.682c0,0.447,0.365,0.812,0.812,0.812h8.116
		c0.445,0,0.812-0.364,0.812-0.812v-5.682c0-0.447,0.364-0.812,0.812-0.812h5.682c0.445,0,0.812-0.364,0.812-0.812V8.117
		C24.349,7.669,23.984,7.305,23.537,7.305z M15.726,15.908c-1.239,2.562-5.363,2.842-6.854,0.754
		c-1.145-1.603-0.957-3.518,0.65-5.358c1.361-1.563,2.048-3.053,1.761-5.004C15.068,8.475,17.234,12.797,15.726,15.908z"/>
</g>
<g>
</g>
<g>
</g>
<g>
</g>
<g>
</g>
<g>
</g>
<g>
</g>
<g>
</g>
<g>
</g>
<g>
</g>
<g>
</g>
<g>
</g>
<g>
</g>
<g>
</g>
<g>
</g>
<g>
</g>
</svg>
