<?xml version="1.0" encoding="iso-8859-1"?>
<!-- Generator: Adobe Illustrator 16.0.0, SVG Export Plug-In . SVG Version: 6.00 Build 0)  -->
<!DOCTYPE svg PUBLIC "-//W3C//DTD SVG 1.1//EN" "http://www.w3.org/Graphics/SVG/1.1/DTD/svg11.dtd">
<svg version="1.1" id="Capa_1" xmlns="http://www.w3.org/2000/svg" xmlns:xlink="http://www.w3.org/1999/xlink" x="0px" y="0px"
	 width="26.421px" height="26.421px" viewBox="0 0 26.421 26.421" style="enable-background:new 0 0 26.421 26.421;"
	 xml:space="preserve">
<g>
	<g>
		<path d="M17.255,7.527h-3.704c0.002,0.012,0.014,0.019,0.014,0.031v0.475c0,0.195-0.159,0.354-0.355,0.354
			c-0.195,0-0.355-0.159-0.355-0.354V7.558c0-0.013,0.013-0.02,0.014-0.031H9.166c-0.523,0-1.37,0.247-1.813,0.528L4.582,9.82
			v14.534c0,0.633,0.518,1.15,1.15,1.15h0.813v0.785c0,0.072,0.06,0.132,0.131,0.132h1.716c0.072,0,0.132-0.06,0.132-0.132v-0.785
			h9.375v0.785c0,0.072,0.061,0.132,0.133,0.132h1.716c0.071,0,0.131-0.06,0.131-0.132v-0.785h0.813c0.633,0,1.149-0.518,1.149-1.15
			V9.819L19.07,8.055C18.625,7.774,17.777,7.527,17.255,7.527z M12.854,9.102c0-0.197,0.16-0.356,0.355-0.356
			c0.196,0,0.355,0.159,0.355,0.356v1.068c0,0.195-0.159,0.355-0.355,0.355c-0.195,0-0.355-0.16-0.355-0.355V9.102z M12.854,11.238
			c0-0.196,0.16-0.356,0.355-0.356c0.196,0,0.355,0.16,0.355,0.356v1.067c0,0.197-0.159,0.356-0.355,0.356
			c-0.195,0-0.355-0.159-0.355-0.356V11.238z M12.854,13.376c0-0.196,0.16-0.354,0.355-0.354c0.196,0,0.355,0.158,0.355,0.354v1.067
			c0,0.197-0.159,0.354-0.355,0.354c-0.195,0-0.355-0.157-0.355-0.354V13.376z M14.006,16.066c0,0.44-0.357,0.797-0.797,0.797
			s-0.797-0.355-0.797-0.797v-0.112c0-0.438,0.357-0.798,0.797-0.798s0.797,0.357,0.797,0.798V16.066z"/>
		<path d="M20.688,2.493h-3.965L15.559,0h-4.7L9.695,2.493H5.73c-0.633,0-1.15,0.519-1.15,1.15v4.813l2.153-1.372
			c0.625-0.396,1.692-0.707,2.431-0.707h8.091c0.738,0,1.806,0.311,2.431,0.707l2.152,1.371V3.643
			C21.838,3.012,21.32,2.493,20.688,2.493z M10.859,1.268h4.7l0.854,1.226h-6.409L10.859,1.268z"/>
	</g>
</g>
<g>
</g>
<g>
</g>
<g>
</g>
<g>
</g>
<g>
</g>
<g>
</g>
<g>
</g>
<g>
</g>
<g>
</g>
<g>
</g>
<g>
</g>
<g>
</g>
<g>
</g>
<g>
</g>
<g>
</g>
</svg>
