<?xml version="1.0" encoding="iso-8859-1"?>
<!-- Generator: Adobe Illustrator 16.0.0, SVG Export Plug-In . SVG Version: 6.00 Build 0)  -->
<!DOCTYPE svg PUBLIC "-//W3C//DTD SVG 1.1//EN" "http://www.w3.org/Graphics/SVG/1.1/DTD/svg11.dtd">
<svg version="1.1" id="Capa_1" xmlns="http://www.w3.org/2000/svg" xmlns:xlink="http://www.w3.org/1999/xlink" x="0px" y="0px"
	 width="33.186px" height="33.186px" viewBox="0 0 33.186 33.186" style="enable-background:new 0 0 33.186 33.186;"
	 xml:space="preserve">
<g>
	<g>
		<path d="M6.59,21.429c-1.58,0-2.859,1.281-2.859,2.859c0,1.579,1.279,2.859,2.859,2.859c1.578,0,2.859-1.28,2.859-2.859
			C9.449,22.71,8.168,21.429,6.59,21.429z M6.59,25.788c-0.829,0-1.5-0.672-1.5-1.5s0.671-1.5,1.5-1.5c0.828,0,1.5,0.672,1.5,1.5
			S7.418,25.788,6.59,25.788z"/>
		<path d="M21.145,21.429c-1.578,0-2.858,1.281-2.858,2.859c0,1.579,1.28,2.859,2.858,2.859c1.58,0,2.859-1.28,2.859-2.859
			C24.004,22.71,22.725,21.429,21.145,21.429z M21.145,25.788c-0.827,0-1.5-0.672-1.5-1.5s0.673-1.5,1.5-1.5
			c0.828,0,1.5,0.672,1.5,1.5S21.973,25.788,21.145,25.788z"/>
		<path d="M27.864,21.429c-1.579,0-2.858,1.281-2.858,2.859c0,1.579,1.279,2.859,2.858,2.859s2.858-1.28,2.858-2.859
			C30.723,22.71,29.443,21.429,27.864,21.429z M27.864,25.788c-0.828,0-1.5-0.672-1.5-1.5s0.672-1.5,1.5-1.5s1.5,0.672,1.5,1.5
			S28.692,25.788,27.864,25.788z"/>
		<path d="M32.188,6.038H12.344c-0.55,0-1,0.45-1,1v12.49h19.572v0.385H10.375v-6.25c0-0.55-0.45-1-1-1H7.031
			c-0.55,0-1.238,0.382-1.529,0.848l-1.873,2.998c-0.291,0.467-0.943,1.023-1.451,1.236l-1.256,0.529
			C0.414,18.487,0,19.112,0,19.662v1.25v2.375c0,0.55,0.45,1,1,1h1.98c0-1.989,1.619-3.608,3.609-3.608
			c1.99,0,3.609,1.619,3.609,3.608h7.336c0-1.989,1.619-3.608,3.608-3.608c1.533,0,2.838,0.963,3.359,2.314
			c0.522-1.352,1.826-2.314,3.359-2.314c1.99,0,3.609,1.619,3.609,3.608h0.059c0.55,0,1-0.45,1-1V22.03
			c0.381-0.143,0.656-0.502,0.656-0.93V7.038C33.188,6.489,32.738,6.038,32.188,6.038z M9.449,16.858c0,0.275-0.226,0.5-0.5,0.5
			h-4.35c-0.275,0-0.381-0.191-0.234-0.424l1.969-3.152c0.146-0.233,0.49-0.424,0.766-0.424h1.85c0.274,0,0.5,0.225,0.5,0.5
			L9.449,16.858L9.449,16.858z"/>
	</g>
</g>
<g>
</g>
<g>
</g>
<g>
</g>
<g>
</g>
<g>
</g>
<g>
</g>
<g>
</g>
<g>
</g>
<g>
</g>
<g>
</g>
<g>
</g>
<g>
</g>
<g>
</g>
<g>
</g>
<g>
</g>
</svg>
