<?xml version="1.0" standalone="no"?>
<!DOCTYPE svg PUBLIC "-//W3C//DTD SVG 20010904//EN"
 "http://www.w3.org/TR/2001/REC-SVG-20010904/DTD/svg10.dtd">
<svg version="1.0" xmlns="http://www.w3.org/2000/svg"
 width="600.000000pt" height="600.000000pt" viewBox="0 0 600.000000 600.000000"
 preserveAspectRatio="xMidYMid meet">

<g transform="translate(0.000000,600.000000) scale(0.100000,-0.100000)"
fill="#000000" stroke="none">
<path d="M3195 5574 c-5 -2 -617 -78 -1360 -169 -742 -91 -1365 -168 -1383
-171 l-34 -5 91 -65 92 -64 496 -74 c272 -41 498 -77 501 -80 7 -7 26 7 -168
-124 -244 -165 -511 -397 -699 -607 -126 -142 -171 -201 -267 -354 -100 -158
-127 -210 -190 -370 -69 -172 -78 -202 -114 -396 -36 -191 -40 -226 -40 -385
-1 -105 5 -229 15 -309 44 -376 203 -775 435 -1099 172 -240 452 -491 720
-647 74 -43 173 -100 220 -127 123 -72 354 -164 515 -204 227 -58 404 -72 714
-57 244 12 264 14 500 63 221 46 271 61 491 142 213 78 276 107 483 219 210
114 261 147 441 284 182 139 223 177 377 341 228 244 322 376 415 587 120 272
164 491 164 832 0 197 -2 221 -34 390 -92 486 -350 917 -760 1271 -129 112
-146 129 -131 140 9 7 284 151 610 321 327 169 594 311 592 314 -1 3 -35 35
-76 69 l-73 64 -1132 -158 c-622 -87 -1132 -159 -1133 -160 -2 -2 22 -31 53
-67 211 -240 324 -540 324 -857 0 -456 -243 -862 -605 -1014 -95 -40 -125 -48
-225 -58 -150 -15 -307 4 -420 52 -104 44 -132 69 -210 183 -92 137 -135 272
-144 455 -22 428 228 926 690 1381 77 75 207 189 289 254 83 64 150 120 150
124 0 7 -134 118 -160 133 -5 3 -14 4 -20 2z"/>
</g>
</svg>
