<?xml version="1.0" encoding="iso-8859-1"?>
<!-- Generator: Adobe Illustrator 16.0.0, SVG Export Plug-In . SVG Version: 6.00 Build 0)  -->
<!DOCTYPE svg PUBLIC "-//W3C//DTD SVG 1.1//EN" "http://www.w3.org/Graphics/SVG/1.1/DTD/svg11.dtd">
<svg version="1.1" id="Capa_1" xmlns="http://www.w3.org/2000/svg" xmlns:xlink="http://www.w3.org/1999/xlink" x="0px" y="0px"
	 width="28.018px" height="28.018px" viewBox="0 0 28.018 28.018" style="enable-background:new 0 0 28.018 28.018;"
	 xml:space="preserve">
<g>
	<path d="M25.609,2.504C25.53,2.452,17.681-2.748,9.464,1.991L9.457,1.996C1.251,6.735,1.83,16.135,1.837,16.229l0.051,0.703
		l0.696-0.102c0.258-0.035,6.283-0.932,12.503-4.444l5.71,9.888c-0.041,0.128-0.035,0.271,0.038,0.396l1.077,1.867
		c0.458,0.795,0.187,1.814-0.607,2.271c-0.796,0.461-1.815,0.188-2.274-0.606c-0.136-0.235-0.438-0.315-0.672-0.181
		c-0.235,0.136-0.316,0.438-0.181,0.673c0.729,1.265,2.354,1.698,3.619,0.969c1.265-0.729,1.698-2.353,0.97-3.618l-1.079-1.865
		c-0.073-0.127-0.192-0.203-0.323-0.232l-5.71-9.889c6.154-3.631,9.941-8.399,10.103-8.604L26.191,2.9L25.609,2.504z M6.026,15.389
		C6.71,7.25,8.728,4.049,9.542,3.064c0.155,2.116,0.701,8.24,1.932,10.395C9.438,14.35,7.548,14.967,6.026,15.389z M18.39,9.466
		c-1.25-2.145-6.28-5.679-8.035-6.872c1.262-0.211,5.042-0.357,12.432,3.115C21.659,6.818,20.181,8.147,18.39,9.466z"/>
</g>
<g>
</g>
<g>
</g>
<g>
</g>
<g>
</g>
<g>
</g>
<g>
</g>
<g>
</g>
<g>
</g>
<g>
</g>
<g>
</g>
<g>
</g>
<g>
</g>
<g>
</g>
<g>
</g>
<g>
</g>
</svg>
