<?xml version="1.0" encoding="iso-8859-1"?>
<!-- Generator: Adobe Illustrator 16.0.0, SVG Export Plug-In . SVG Version: 6.00 Build 0)  -->
<!DOCTYPE svg PUBLIC "-//W3C//DTD SVG 1.1//EN" "http://www.w3.org/Graphics/SVG/1.1/DTD/svg11.dtd">
<svg version="1.1" id="Capa_1" xmlns="http://www.w3.org/2000/svg" xmlns:xlink="http://www.w3.org/1999/xlink" x="0px" y="0px"
	 width="27.324px" height="27.324px" viewBox="0 0 27.324 27.324" style="enable-background:new 0 0 27.324 27.324;"
	 xml:space="preserve">
<g>
	<g>
		<path d="M21.588,10.376l5.736-5.736l-4.641-4.639l-5.734,5.735c0.283,0.995,0.874,2.018,1.748,2.892
			C19.57,9.501,20.593,10.091,21.588,10.376z M24.919,5.65l-0.812,0.812l-1.274-1.276l0.812-0.812L24.919,5.65z M21.674,2.405
			l1.275,1.275l-0.812,0.812l-1.274-1.276L21.674,2.405z"/>
		<path d="M18.229,9.094c-2.118-2.12-2.723-4.981-1.539-6.716c-2.366-0.615-4.661-0.23-6.165,1.273
			C9.44,4.737,8.945,6.24,8.982,7.883c-2.649-0.464-5.2,0.121-6.949,1.869c-3.3,3.302-2.498,9.455,1.793,13.745
			c4.291,4.292,10.445,5.093,13.745,1.793c1.748-1.748,2.334-4.299,1.87-6.949c1.644,0.037,3.146-0.457,4.231-1.544
			c1.503-1.503,1.888-3.797,1.272-6.165C23.21,11.816,20.35,11.214,18.229,9.094z M10.25,20.804l-3.729-3.729l0.699-0.699
			l3.729,3.729L10.25,20.804z M11.571,19.481l-3.729-3.729l1.864-1.864l3.73,3.729L11.571,19.481z M15.729,15.325l-3.729-3.73
			l1.865-1.865l3.729,3.73L15.729,15.325z"/>
	</g>
</g>
<g>
</g>
<g>
</g>
<g>
</g>
<g>
</g>
<g>
</g>
<g>
</g>
<g>
</g>
<g>
</g>
<g>
</g>
<g>
</g>
<g>
</g>
<g>
</g>
<g>
</g>
<g>
</g>
<g>
</g>
</svg>
