<?xml version="1.0" encoding="iso-8859-1"?>
<!-- Generator: Adobe Illustrator 16.0.0, SVG Export Plug-In . SVG Version: 6.00 Build 0)  -->
<!DOCTYPE svg PUBLIC "-//W3C//DTD SVG 1.1//EN" "http://www.w3.org/Graphics/SVG/1.1/DTD/svg11.dtd">
<svg version="1.1" id="Capa_1" xmlns="http://www.w3.org/2000/svg" xmlns:xlink="http://www.w3.org/1999/xlink" x="0px" y="0px"
	 width="27.399px" height="27.4px" viewBox="0 0 27.399 27.4" style="enable-background:new 0 0 27.399 27.4;" xml:space="preserve"
	>
<g>
	<g>
		<path d="M23.895,7.593h-1.91L14.59,1.344c0.038-0.104,0.066-0.216,0.066-0.334c0-0.528-0.43-0.956-0.953-0.956
			c-0.529,0-0.959,0.428-0.959,0.956c0,0.118,0.028,0.229,0.067,0.334L5.416,7.593H3.505C1.572,7.593,0,9.164,0,11.097v12.744
			c0,1.934,1.572,3.504,3.505,3.504h20.389c1.933,0,3.505-1.57,3.505-3.504V11.096C27.4,9.164,25.828,7.593,23.895,7.593z
			 M13.232,1.823c0.141,0.082,0.297,0.142,0.472,0.142c0.173,0,0.327-0.06,0.468-0.141l6.825,5.769H6.405L13.232,1.823z
			 M25.488,23.841c0,0.878-0.714,1.593-1.594,1.593H3.507c-0.879,0-1.593-0.715-1.593-1.593V11.096c0-0.878,0.714-1.593,1.593-1.593
			h20.389c0.879,0,1.593,0.715,1.593,1.593L25.488,23.841L25.488,23.841z"/>
		<path d="M13.162,16.525c0.767-0.443,0.214-2.846-0.23-3.616c-0.445-0.771-1.432-1.035-2.2-0.593
			c-0.773,0.447-1.04,1.436-0.595,2.207C10.581,15.292,12.389,16.97,13.162,16.525z"/>
		<path d="M14.241,18.414c-0.768,0.443-0.215,2.847,0.229,3.615c0.444,0.771,1.432,1.037,2.199,0.594
			c0.773-0.447,1.04-1.438,0.596-2.209C16.821,19.645,15.014,17.967,14.241,18.414z"/>
		<path d="M12.612,17.463c0-0.886-2.357-1.608-3.244-1.608c-0.892,0-1.614,0.725-1.614,1.609c-0.001,0.895,0.723,1.617,1.614,1.619
			C10.255,19.082,12.611,18.357,12.612,17.463z"/>
		<path d="M18.034,15.855c-0.89-0.002-3.245,0.723-3.247,1.617c0.002,0.887,2.357,1.607,3.247,1.609
			c0.89-0.002,1.612-0.723,1.612-1.607C19.648,16.58,18.924,15.853,18.034,15.855z"/>
		<path d="M10.136,20.414c-0.443,0.771-0.181,1.759,0.589,2.201c0.771,0.447,1.762,0.184,2.209-0.586
			c0.441-0.771,0.994-3.172,0.22-3.621C12.387,17.965,10.583,19.642,10.136,20.414z"/>
		<path d="M17.266,14.523c0.444-0.773,0.179-1.76-0.588-2.203c-0.772-0.449-1.765-0.185-2.207,0.588
			c-0.444,0.77-0.999,3.171-0.223,3.621C15.018,16.97,16.821,15.291,17.266,14.523z"/>
		<circle cx="13.701" cy="17.469" r="0.646"/>
	</g>
</g>
<g>
</g>
<g>
</g>
<g>
</g>
<g>
</g>
<g>
</g>
<g>
</g>
<g>
</g>
<g>
</g>
<g>
</g>
<g>
</g>
<g>
</g>
<g>
</g>
<g>
</g>
<g>
</g>
<g>
</g>
</svg>
