<?xml version="1.0" encoding="iso-8859-1"?>
<!-- Generator: Adobe Illustrator 16.0.0, SVG Export Plug-In . SVG Version: 6.00 Build 0)  -->
<!DOCTYPE svg PUBLIC "-//W3C//DTD SVG 1.1//EN" "http://www.w3.org/Graphics/SVG/1.1/DTD/svg11.dtd">
<svg version="1.1" id="Capa_1" xmlns="http://www.w3.org/2000/svg" xmlns:xlink="http://www.w3.org/1999/xlink" x="0px" y="0px"
	 width="27.206px" height="27.205px" viewBox="0 0 27.206 27.205" style="enable-background:new 0 0 27.206 27.205;"
	 xml:space="preserve">
<g>
	<g>
		<path d="M25.924,0H1.285C0.929,0,0.637,0.292,0.637,0.648v1.297c0,0.356,0.292,0.648,0.648,0.648h0.648
			c0.356,0,0.648,0.292,0.648,0.648v19.452c0,0.355,0,0.939,0,1.297s0,0.939,0,1.297v1.27c0,0.356,0.292,0.648,0.648,0.648h1.297
			c0.356,0,0.648-0.292,0.648-0.648v-1.27c0-0.355,0.292-0.648,0.648-0.648h15.562c0.357,0,0.648,0.293,0.648,0.648v1.27
			c0,0.356,0.293,0.648,0.648,0.648h1.296c0.356,0,0.647-0.292,0.647-0.648v-1.27c0-0.355,0-0.939,0-1.297s0-0.939,0-1.297V3.242
			c0-0.357,0.293-0.648,0.648-0.648h0.648c0.355,0,0.647-0.292,0.647-0.648V0.649C26.572,0.292,26.28,0,25.924,0z M22.034,21.396
			c0,0.357-0.291,0.648-0.647,0.648H5.823c-0.356,0-0.648-0.292-0.648-0.648v-6.483c0-0.356,0.292-0.647,0.648-0.647h15.562
			c0.355,0,0.648,0.291,0.648,0.647V21.396L22.034,21.396z M22.034,11.023c0,0.356-0.291,0.648-0.647,0.648H5.823
			c-0.356,0-0.648-0.292-0.648-0.648V4.539c0-0.356,0.292-0.648,0.648-0.648h15.562c0.355,0,0.648,0.292,0.648,0.648V11.023
			L22.034,11.023z"/>
		<path d="M16.846,7.132h-6.484c-0.358,0-0.648,0.29-0.648,0.648c0,0.358,0.29,0.648,0.648,0.648h6.484
			c0.357,0,0.648-0.29,0.648-0.648C17.495,7.422,17.206,7.132,16.846,7.132z"/>
		<path d="M16.846,17.507h-6.484c-0.358,0-0.648,0.29-0.648,0.647c0,0.359,0.29,0.648,0.648,0.648h6.484
			c0.357,0,0.648-0.289,0.648-0.648C17.495,17.797,17.206,17.507,16.846,17.507z"/>
	</g>
</g>
<g>
</g>
<g>
</g>
<g>
</g>
<g>
</g>
<g>
</g>
<g>
</g>
<g>
</g>
<g>
</g>
<g>
</g>
<g>
</g>
<g>
</g>
<g>
</g>
<g>
</g>
<g>
</g>
<g>
</g>
</svg>
