<?xml version="1.0" encoding="iso-8859-1"?>
<!-- Generator: Adobe Illustrator 16.0.0, SVG Export Plug-In . SVG Version: 6.00 Build 0)  -->
<!DOCTYPE svg PUBLIC "-//W3C//DTD SVG 1.1//EN" "http://www.w3.org/Graphics/SVG/1.1/DTD/svg11.dtd">
<svg version="1.1" id="Capa_1" xmlns="http://www.w3.org/2000/svg" xmlns:xlink="http://www.w3.org/1999/xlink" x="0px" y="0px"
	 width="33.235px" height="33.234px" viewBox="0 0 33.235 33.234" style="enable-background:new 0 0 33.235 33.234;"
	 xml:space="preserve">
<g>
	<g>
		<path d="M18.639,28.432l5.402,4.803l9.192-9.192l-4.804-5.403c-0.401,2.369-1.506,4.641-3.33,6.465
			C23.279,26.928,21.008,28.03,18.639,28.432z"/>
		<path d="M8.839,8.84C4.551,13.128,4.551,20.107,8.84,24.396s11.268,4.289,15.555,0c4.291-4.29,4.291-11.269,0.002-15.557
			C20.106,4.55,13.129,4.55,8.839,8.84z M22.096,22.098c-3.021,3.021-7.938,3.021-10.959,0c-3.021-3.021-3.021-7.938,0-10.959
			s7.938-3.022,10.961,0C25.12,14.159,25.119,19.076,22.096,22.098z M10.254,22.981c-1.434-1.435-2.271-3.235-2.533-5.104
			l1.004,1.131c0.38,1.26,1.065,2.448,2.06,3.442c0.995,0.995,2.183,1.681,3.443,2.06l1.131,1.004
			C13.489,25.252,11.687,24.414,10.254,22.981z M25.514,15.356l-1.004-1.13c-0.381-1.261-1.064-2.449-2.06-3.443
			c-0.995-0.995-2.183-1.68-3.442-2.059L17.877,7.72c1.868,0.262,3.67,1.1,5.104,2.533C24.416,11.686,25.252,13.488,25.514,15.356z"
			/>
		<path d="M15.678,14.863c-0.169,0.09-0.331,0.197-0.475,0.34c-0.143,0.142-0.249,0.304-0.34,0.474
			c-3.294,0.212-5.745,0.94-5.745,0.94s2.451,0.729,5.746,0.939c0.09,0.168,0.197,0.332,0.34,0.474
			c0.781,0.78,2.048,0.78,2.827,0.001c0.78-0.781,0.782-2.048,0.001-2.829c-0.143-0.143-0.305-0.25-0.475-0.34
			c-0.211-3.294-0.939-5.745-0.939-5.745S15.89,11.568,15.678,14.863z"/>
		<path d="M14.597,4.803L9.193,0L5.127,4.066c0.293,0.293,0.293,0.768,0,1.061c-0.293,0.293-0.769,0.293-1.061,0L0,9.193
			l4.803,5.404c0.402-2.369,1.505-4.64,3.328-6.463C9.957,6.308,12.228,5.204,14.597,4.803z M5.834,6.894
			c-0.293-0.293-0.293-0.768,0-1.061s0.768-0.293,1.061,0c0.293,0.292,0.293,0.768,0,1.061S6.127,7.187,5.834,6.894z"/>
	</g>
</g>
<g>
</g>
<g>
</g>
<g>
</g>
<g>
</g>
<g>
</g>
<g>
</g>
<g>
</g>
<g>
</g>
<g>
</g>
<g>
</g>
<g>
</g>
<g>
</g>
<g>
</g>
<g>
</g>
<g>
</g>
</svg>
