<?xml version="1.0" encoding="iso-8859-1"?>
<!-- Generator: Adobe Illustrator 16.0.0, SVG Export Plug-In . SVG Version: 6.00 Build 0)  -->
<!DOCTYPE svg PUBLIC "-//W3C//DTD SVG 1.1//EN" "http://www.w3.org/Graphics/SVG/1.1/DTD/svg11.dtd">
<svg version="1.1" id="Capa_1" xmlns="http://www.w3.org/2000/svg" xmlns:xlink="http://www.w3.org/1999/xlink" x="0px" y="0px"
	 width="28px" height="28px" viewBox="0 0 28 28" style="enable-background:new 0 0 28 28;" xml:space="preserve">
<g>
	<g>
		<path d="M19.242,18.281C17.896,19.695,16.044,20.57,14,20.57s-3.896-0.875-5.242-2.289c-1.354,0.763-2.195,1.82-2.195,2.988
			c0,2.328,3.33,0,7.438,0c4.108,0,7.438,2.328,7.438,0C21.438,20.104,20.596,19.044,19.242,18.281z"/>
		<path d="M14,19.695c3.865,0,7-3.133,7-7c0-3.865-3.135-7-7-7s-7,3.135-7,7C7,16.562,10.135,19.695,14,19.695z M11.375,6.68
			C12.179,6.328,13.067,6.133,14,6.133c0.936,0,1.824,0.196,2.628,0.547c-0.003,3.703,0.872,3.326,0.872,6.015
			c0,1.933-1.566,3.5-3.5,3.5c-1.933,0-3.5-1.567-3.5-3.5C10.5,10.005,11.375,10.383,11.375,6.68z"/>
		<path d="M14,15.32c1.45,0,2.625-1.176,2.625-2.625S15.45,10.07,14,10.07s-2.625,1.175-2.625,2.625
			C11.375,14.146,12.55,15.32,14,15.32z M14,11.383c0.725,0,1.312,0.588,1.312,1.313c0,0.725-0.588,1.312-1.312,1.312
			c-0.725,0-1.313-0.588-1.313-1.313S13.275,11.383,14,11.383z"/>
		<path d="M14,12.695c0.342,0.342,0.277,0.961,0.619,0.619c0.342-0.342,0.342-0.895,0-1.236c-0.342-0.341-0.896-0.342-1.238,0
			C13.039,12.42,13.658,12.354,14,12.695z"/>
		<circle cx="14" cy="7.773" r="0.766"/>
		<path d="M14,0C6.281,0,0,6.281,0,14s6.281,14,14,14c7.719,0,14-6.281,14-14S21.719,0,14,0z M14,26.25
			C7.245,26.25,1.75,20.755,1.75,14S7.245,1.75,14,1.75S26.25,7.245,26.25,14S20.755,26.25,14,26.25z"/>
	</g>
</g>
<g>
</g>
<g>
</g>
<g>
</g>
<g>
</g>
<g>
</g>
<g>
</g>
<g>
</g>
<g>
</g>
<g>
</g>
<g>
</g>
<g>
</g>
<g>
</g>
<g>
</g>
<g>
</g>
<g>
</g>
</svg>
