<?xml version="1.0" encoding="iso-8859-1"?>
<!-- Generator: Adobe Illustrator 16.0.0, SVG Export Plug-In . SVG Version: 6.00 Build 0)  -->
<!DOCTYPE svg PUBLIC "-//W3C//DTD SVG 1.1//EN" "http://www.w3.org/Graphics/SVG/1.1/DTD/svg11.dtd">
<svg version="1.1" id="Capa_1" xmlns="http://www.w3.org/2000/svg" xmlns:xlink="http://www.w3.org/1999/xlink" x="0px" y="0px"
	 width="28.053px" height="28.053px" viewBox="0 0 28.053 28.053" style="enable-background:new 0 0 28.053 28.053;"
	 xml:space="preserve">
<g>
	<path d="M26.54,19.786c-0.306-0.314-0.668-0.578-1.085-0.793c-2.096-1.073-4.266-0.966-6.458-1.808
		c-0.164-0.062-0.359-0.186-0.427-0.33c-0.178-0.396-0.303-0.815-0.432-1.229c-0.08-0.267-0.15-0.516-0.441-0.644
		c-0.078-0.034-0.148-0.188-0.148-0.286c0.016-0.963,2.865-1.171,3.395-3.594c0.5-2.292-1-7.542-2.258-8.373
		c-1.065-0.705-1.283-3.461-4.66-2.544c-1.541-0.208-2.474,0.302-3.36,1.271C8.543,3.771,6.235,5.81,6.36,8.81
		c0.16,3.854,4.226,5.312,4.147,5.883c-0.017,0.111-0.134,0.277-0.229,0.299c-0.383,0.078-0.441,0.374-0.533,0.673
		c-0.12,0.393-0.248,0.785-0.4,1.166c-0.048,0.119-0.167,0.242-0.284,0.294c-0.68,0.296-1.373,0.568-2.058,0.855
		c-0.729,0.308-3.623,0.686-4.342,1.069c-0.423,0.226-0.818,0.478-1.149,0.788l-1,4.26c4.871,0,7.415,3.522,12.483,3.956
		l2.108-0.062c3.691-0.617,9.581-3.894,12.438-3.894L26.54,19.786z M11.128,25.476l2.897-6.922l-0.897-1.924h1.795l-0.898,1.924
		l2.897,6.922H11.128z M22.982,22.033h-4.207v-0.75h4.207V22.033z"/>
</g>
<g>
</g>
<g>
</g>
<g>
</g>
<g>
</g>
<g>
</g>
<g>
</g>
<g>
</g>
<g>
</g>
<g>
</g>
<g>
</g>
<g>
</g>
<g>
</g>
<g>
</g>
<g>
</g>
<g>
</g>
</svg>
