<?xml version="1.0" encoding="iso-8859-1"?>
<!-- Generator: Adobe Illustrator 16.0.0, SVG Export Plug-In . SVG Version: 6.00 Build 0)  -->
<!DOCTYPE svg PUBLIC "-//W3C//DTD SVG 1.1//EN" "http://www.w3.org/Graphics/SVG/1.1/DTD/svg11.dtd">
<svg version="1.1" id="Capa_1" xmlns="http://www.w3.org/2000/svg" xmlns:xlink="http://www.w3.org/1999/xlink" x="0px" y="0px"
	 width="29px" height="29px" viewBox="0 0 29 29" style="enable-background:new 0 0 29 29;" xml:space="preserve">
<g>
	<g>
		<path d="M14.5,0C6.505,0,0,6.505,0,14.5S6.505,29,14.5,29S29,22.496,29,14.5C29,6.505,22.495,0,14.5,0z M14.5,27
			C7.607,27,2,21.393,2,14.5C2,7.607,7.607,2,14.5,2C21.393,2,27,7.608,27,14.5C27,21.393,21.393,27,14.5,27z"/>
		<path d="M19.163,4.556c0.001,0.001,0.003,0.001,0.004,0.002c0.001,0,0.005,0,0.008,0C19.17,4.558,19.167,4.558,19.163,4.556z"/>
		<path d="M19.02,19.202c-0.021,0.04-0.021,0.144-0.047,0.179c-0.105,0.1-0.305,0.326-0.447,0.416
			c-0.185,0.107-0.396,0.107-0.42,0.385c-0.006,0.094,0.074,0.223,0.072,0.284c0.002,0.011-0.139,0.255-0.139,0.255
			c-0.01,0.002-0.125,0.1-0.129,0.117c-0.006,0.08-0.012,0.167,0.055,0.21c0.002,0.032-0.02,0.063-0.021,0.132
			c-0.01,0.139,0.101,0.27,0.25,0.262c0.359-0.039,0.445-0.377,0.572-0.631c0.161-0.32,0.313-0.593,0.352-1.014
			c0.009,0,0.072,0.014,0.097,0.02c0.002-0.025,0.009-0.06,0.009-0.084C19.177,19.585,19.221,19.216,19.02,19.202z"/>
		<path d="M23.723,15.589c-0.002,0.087,0.041,0.167,0.098,0.167c0.084-0.009,0.138-0.148,0.145-0.263
			c0.012-0.199-0.113-0.269-0.167-0.417C23.792,15.266,23.729,15.404,23.723,15.589z"/>
		<path d="M25.312,15.904c-0.021-0.002-0.02,0.007-0.021-0.021c-0.012-0.074-0.02-0.148-0.061-0.177
			c-0.054,0.012-0.019-0.003-0.069,0.012c-0.021-0.041,0.005-0.046-0.042-0.042c-0.012,0-0.014-0.007-0.014,0.002
			c-0.002,0.014-0.002,0.03-0.004,0.041c0.01,0.053,0.01,0.182,0.049,0.196c0.041,0.021,0.041-0.008,0.045,0.037
			c0,0.051,0.011,0.095,0.021,0.144c0.005,0.068,0.048,0.037,0.058,0.148c0,0.042-0.006,0.14,0.009,0.165
			c0.011,0.015,0.028,0.006,0.026,0.017c0.006,0.014-0.007,0.041-0.002,0.041c0.025-0.134,0.047-0.267,0.064-0.402
			c-0.003-0.014-0.004-0.025-0.012-0.041C25.344,15.979,25.338,15.923,25.312,15.904z"/>
		<path d="M25.25,16.58c-0.012,0.009-0.002,0.006-0.016,0.006c0,0.006-0.004,0.014-0.002,0.02c-0.006,0.035-0.006,0.102,0.02,0.105
			c0.01-0.05,0-0.076-0.004-0.105C25.248,16.598,25.248,16.589,25.25,16.58z"/>
		<path d="M25.206,16.3c-0.001,0.011-0.002,0.009-0.013,0.013c0.002,0,0.002,0,0.004,0c-0.004,0.029,0.007,0.096,0.025,0.102
			C25.255,16.391,25.223,16.332,25.206,16.3z"/>
		<path d="M19.072,5.353c0.085,0.027,0.048,0.048,0.093,0.078c0.009,0.014,0.088,0.019,0.125,0.027c0.017,0,0.028,0.013,0.039,0.02
			c0.128,0.028,0.252,0.055,0.381,0.086c-0.005-0.004-0.01-0.007-0.017-0.011c-0.117-0.062-0.278-0.114-0.303-0.178
			c-0.029-0.118,0.26-0.146,0.485-0.102c0.08,0.014,0.086-0.016,0.199,0.019c0.048,0.014,0.051-0.005,0.082-0.005
			c0.135,0.024,0.245,0.065,0.382,0.093c0.029,0.007,0.079,0.022,0.132,0.039c-0.058-0.042-0.118-0.08-0.176-0.118
			c-0.104-0.021-0.211-0.035-0.345-0.075c-0.049-0.014-0.088-0.044-0.141-0.06c-0.084-0.026-0.074-0.005-0.134-0.025
			c-0.168-0.046-0.269-0.009-0.386-0.037c-0.076-0.019-0.11-0.019-0.184-0.036c-0.031-0.015-0.054,0-0.043,0.005
			c0,0.014,0.036,0.017,0.043,0.036c0.014,0.042-0.226,0.011-0.224,0.042c0.013,0.018,0.065,0.031,0.085,0.053
			c-0.077-0.007-0.227-0.033-0.225-0.001c0.005,0.011,0.009,0.013,0.009,0.026c0.011,0.043-0.142-0.003-0.134,0.041
			c0.016,0.027,0.102,0.053,0.102,0.053S19.059,5.351,19.072,5.353z"/>
		<polygon points="19.691,5.55 19.693,5.553 19.695,5.553 		"/>
		<path d="M21.789,6.359c0.027,0.014,0.078,0.025,0.13,0.046c-0.063-0.059-0.127-0.117-0.19-0.172
			c-0.002,0.01-0.01,0.017-0.03,0.021C21.691,6.263,21.74,6.332,21.789,6.359z"/>
		<path d="M21.963,6.446c-0.062-0.031-0.117-0.057-0.121-0.051c0.032,0.062,0.106,0.156,0.032,0.129
			c-0.003-0.002-0.021,0.016-0.05,0.027c-0.084,0.026-0.133,0-0.165-0.005c-0.046,0-0.024-0.073-0.032-0.082
			c-0.025-0.004,0.109-0.018,0.1-0.038c-0.006-0.021,0.024-0.028,0.01-0.048c-0.023-0.024-0.096-0.064-0.114-0.093
			c-0.034-0.061-0.032-0.105-0.062-0.15c-0.041-0.064-0.086-0.084-0.104-0.107c-0.003-0.01,0-0.017,0.008-0.021
			c-0.065-0.054-0.132-0.107-0.198-0.159c0,0-0.002,0-0.002-0.001h0.002c-0.025-0.021-0.054-0.04-0.078-0.06
			c-0.017-0.003-0.021,0.001-0.014,0.016c0.001,0.004-0.002,0.008,0,0.011c-0.029-0.011-0.058-0.018-0.074-0.02
			c-0.059-0.006-0.055,0.054-0.104,0.055c-0.055,0.004-0.098-0.017-0.127-0.002c-0.045,0.02,0.072,0.054,0.083,0.076
			c0.034,0.054-0.033,0.045,0.019,0.075c0.057,0.027,0.125,0.06,0.188,0.099c0.11,0.102,0.106,0.125,0.018,0.091
			c-0.056-0.018-0.147-0.083-0.231-0.125c-0.154-0.075-0.314-0.146-0.406-0.19c-0.655-0.251-0.336-0.025-0.354-0.017
			c-0.287,0.002-0.158-0.083-0.246-0.112c-0.154-0.028-0.473,0.012-0.728-0.085c-0.015-0.019,0.127-0.027,0.099-0.038
			c-0.121-0.034-0.354-0.027-0.605-0.001c-0.098,0.01-0.18-0.024-0.268-0.016c-0.136,0.021-0.021,0.121-0.297,0.065
			c-0.066-0.014-0.23-0.079-0.207-0.111c0.016-0.022,0.26,0.042,0.258,0.011c-0.021-0.08-0.371-0.226-0.474-0.142
			c-0.032,0.025,0.11,0.041,0.013,0.133c-0.023,0.016,0.106,0.052,0.111,0.097c0,0.034-0.188,0.019-0.24,0.006
			c-0.023-0.01,0.006-0.06-0.053-0.059c-0.127,0.002-0.343,0.08-0.415,0.078c-0.081,0.016,0.079,0.092,0.042,0.12
			c-0.042,0.021-0.27-0.029-0.629-0.116c0.025,0.036,0.057,0.074,0.088,0.108c0.074,0.018,0.139,0.035,0.213,0.056
			c-0.138-0.005-0.213,0.03-0.32-0.014c-0.055-0.02-0.133-0.026-0.176-0.062c-0.039-0.022,0.002-0.055-0.027-0.091
			c-0.059-0.065-0.172-0.133-0.205-0.158c0.255,0.017,0.388,0.021,0.643,0.064c0.334,0.054,0.973-0.065-0.045-0.283
			c-0.296-0.06-0.482-0.119-0.705-0.136c-0.017,0-0.152-0.046-0.311-0.047c-0.016-0.002-0.155-0.009-0.221-0.017
			c0.002-0.015-0.047-0.011-0.113-0.033c0.154-0.016,0.207,0.005,0.263-0.038c-0.053-0.014-0.206-0.037-0.233-0.04
			c-0.056-0.006-0.078,0.01-0.099,0.025c-0.073-0.005-0.06-0.013-0.069-0.044c-0.105,0.013-0.153,0.022-0.25,0.047
			c-0.01-0.013-0.009-0.025-0.035-0.036c-0.113,0.011-0.15,0.057-0.286,0.056c0.031-0.027,0.137-0.024,0.14-0.061
			c-0.001-0.033-0.254,0.021-0.354,0.022c-0.063,0-0.099-0.019-0.14-0.028c-0.021,0.006-0.137,0.019-0.141,0.031
			c0.001,0.017,0.045,0.018,0.099,0.022c-0.121,0.017-0.229,0.01-0.322,0.06c0-0.015,0.002-0.019,0-0.034
			c-0.14,0.003-0.162,0.05-0.248,0.061c-0.001-0.011,0-0.014,0-0.024c-0.103,0.009-0.216,0.015-0.29,0.035
			c0.015,0.008,0.037,0.011,0.053,0.012c-0.04,0.011-0.174,0.02-0.219,0.02c-0.061,0-0.108,0.029-0.138,0.043
			c0.045,0,0.051-0.003,0.093,0c-0.01,0.001-0.085,0.036-0.111,0.042c-0.078,0.004-0.023-0.001-0.12,0
			c0.021-0.012-0.011,0.001-0.043-0.01c-0.016,0.011-0.04,0.021-0.054,0.033c-0.015-0.004-0.032-0.005-0.047-0.002
			c-0.04,0.001-0.078,0.014-0.092,0.042c0,0-0.038,0.026-0.012,0.022c-0.021,0.003-0.086,0.03-0.117,0.045
			c0.141,0,0.322-0.032,0.473-0.052c-0.034,0.043-0.204,0.14-0.332,0.169c-0.127,0.025-0.21,0.065-0.288,0.119
			c-0.003,0-0.064,0.062-0.064,0.062c-0.04,0.003-0.043,0.076-0.116,0.107c-0.187,0.074-0.3,0.14-0.564,0.195
			c0.05-0.001,0.075,0.004,0.14,0.004c-0.209,0.015-0.22,0.073-0.331,0.095c-0.131,0.025-0.198,0.064-0.273,0.118
			c-0.035,0.021-0.097,0.051-0.103,0.091c-0.012,0.077,0.043,0.18,0.127,0.226c-0.027,0.017-0.097,0.06-0.104,0.081
			c0.044-0.008,0.104-0.019,0.157-0.03c0,0.015-0.001,0.028-0.005,0.041c-0.02,0.01-0.102,0.03-0.105,0.053
			c-0.002,0.012,0.221,0.057,0.261,0.054c0.253-0.025,0.495-0.129,0.628-0.224c0.038,0.021,0.049,0.042,0.115,0.06
			c-0.012,0.01-0.034,0.026-0.033,0.041c-0.006,0.049,0.085,0.054,0.117,0.096c0.037,0.06,0.021,0.101,0.124,0.145
			c0,0.01-0.01,0.02-0.015,0.029c0,0.015,0.045,0.158,0.097,0.162C12.66,7,12.691,6.87,12.798,6.862c0.04-0.002,0.142,0,0.231-0.002
			c0.027-0.057,0.167-0.07,0.195-0.146c-0.029-0.006-0.092-0.016-0.092-0.046c0-0.059-0.015-0.169,0.113-0.176
			c0.062-0.004,0.252-0.074,0.253-0.12c0.004-0.053-0.022-0.125-0.136-0.128c0.003-0.02-0.019-0.042-0.048-0.048
			c-0.026-0.026-0.06-0.047-0.094-0.072c0.098-0.025,0.04-0.07,0.085-0.11c0.066-0.046,0.158-0.065,0.263-0.098
			c0.131-0.029,0.417-0.121,0.423-0.182c0.017-0.015,0-0.024,0.002-0.057c0.003-0.075,0.151-0.131,0.358-0.132
			c0.15-0.003,0.349,0.009,0.353,0.074c-0.003,0.048-0.261,0.139-0.347,0.16c-0.16,0.048-0.118,0.124-0.378,0.127
			c0.012,0.02-0.019,0.114-0.022,0.133c0.003,0.032,0.012,0.067,0.074,0.078c-0.017,0.013-0.085,0.032-0.088,0.063
			c0,0.058,0.135,0.09,0.266,0.09c0.002,0.031,0.027,0.034,0.109,0.037c0.112-0.003,0.18,0.013,0.309,0
			c0.121,0.008,0.242-0.018,0.306-0.074c0.051,0.03,0.317,0.035,0.368,0.082c-0.076,0.023-0.142,0.096-0.226,0.096
			c-0.11,0-0.329-0.047-0.47-0.05c-0.14,0.006-0.523,0.136-0.429,0.182c0.112,0.047,0.198-0.042,0.311,0.047
			c0.082,0.066-0.04,0.134-0.088,0.136c-0.127,0.002-0.144-0.065-0.255-0.071c-0.11,0.009-0.219,0.189-0.226,0.264
			C13.917,7.031,13.694,7,13.675,7.105c-0.077,0.009-0.152,0.011-0.231,0.013c0.011-0.011,0.021-0.024,0.028-0.034
			c-0.037-0.008-0.13-0.007-0.217-0.007c-0.078,0.008-0.176,0.052-0.238,0.065C12.924,7.17,12.86,7.14,12.752,7.171
			c-0.027,0.008-0.039,0.032-0.11,0.035c0,0-0.101-0.035-0.104-0.041c0-0.009,0.032-0.024,0.039-0.038
			c-0.146,0.002-0.264,0.075-0.436,0.088c-0.017-0.002-0.159-0.128-0.171-0.142c-0.046,0.005,0.047,0.092-0.02,0.102
			c0-0.012,0.003-0.025,0.003-0.036c-0.03-0.001-0.065-0.022-0.063-0.054c0.006-0.065,0.082-0.086,0.146-0.128
			c0.016-0.004,0.074-0.021,0.075-0.036c-0.001-0.009,0.001-0.019,0.002-0.026c-0.04,0.007-0.117,0.006-0.114-0.026
			c0.003-0.032,0.011-0.048,0.043-0.085c0.004-0.011,0.004-0.024,0.004-0.038c-0.157,0.067-0.392,0.091-0.409,0.228
			c-0.006,0.074,0.087,0.096,0.107,0.18c0.001,0.003,0.037,0.063,0.036,0.08c-0.012,0.022-0.103,0.059-0.141,0.065
			c-0.052,0.004-0.105-0.004-0.15,0.022c-0.011,0.003-0.037,0.025-0.054,0.019c-0.035,0.009-0.006-0.002-0.086,0.006
			c-0.14,0.01-0.37,0.17-0.462,0.233c-0.007,0.003-0.064,0.033-0.065,0.049c-0.005,0.045,0.007,0.094-0.042,0.13
			c-0.021,0.016-0.273,0.103-0.311,0.116c-0.024,0.006-0.054,0.011-0.084,0.017c-0.044,0.1,0.006,0.126-0.174,0.148
			c-0.017,0.026-0.063,0.063-0.107,0.07c-0.075,0.008-0.128-0.005-0.171-0.034C9.915,8.079,9.89,8.08,9.873,8.083
			C9.866,8.088,9.871,8.105,9.869,8.115c0.009,0.01-0.022,0.071,0.021,0.077c0,0.009-0.002,0.021-0.002,0.029
			c-0.02,0.003-0.09,0.027-0.138,0.035c-0.041,0-0.138,0-0.151-0.023C9.536,8.255,9.378,8.294,9.371,8.332
			c0,0.004,0.002,0.01,0.003,0.014c0,0.061,0.241,0.064,0.333,0.074c0.026,0.005,0.031,0.019,0.068,0.022
			C9.769,8.505,9.827,8.654,9.949,8.645c-0.001,0.031,0.031,0.02,0.03,0.062c-0.002,0.013-0.018,0.05-0.03,0.065
			c0.004-0.003,0.009-0.006,0.013-0.01c0,0.023-0.005,0.104-0.005,0.118C9.95,8.964,9.846,8.966,9.835,9.054
			c-0.014,0.002-0.107,0.03-0.15,0.036c-0.06,0.005-0.094-0.021-0.163-0.002c-0.096,0.011-0.185,0.021-0.28,0.028
			c-0.027,0-0.073-0.001-0.096-0.014C9.055,9.11,8.976,9.123,8.89,9.129C8.86,9.143,8.826,9.12,8.806,9.123
			C8.776,9.126,8.577,9.242,8.57,9.264C8.568,9.298,8.621,9.352,8.613,9.417c-0.014,0.11-0.074,0.227-0.084,0.337
			C8.524,9.78,8.464,9.804,8.459,9.86C8.452,9.89,8.496,9.915,8.542,9.912c-0.009,0.087-0.016,0.177-0.025,0.268
			c-0.002,0.014,0.007,0.041,0.041,0.042c0.094-0.007,0.146-0.053,0.249-0.063c0.128-0.011,0.121,0.196,0.211,0.193
			c0.127-0.014,0.214-0.129,0.356-0.144c0.026,0.001,0.138-0.034,0.188-0.027c0.002,0,0-0.003,0.001-0.005
			c0.121,0.028,0.139-0.116,0.216-0.159c0.131-0.072,0.18-0.187,0.262-0.289c-0.025-0.004-0.057-0.023-0.056-0.054
			c0.013-0.095,0.195-0.29,0.31-0.32c0.134-0.027,0.265-0.07,0.313-0.163c-0.011-0.026-0.022-0.065-0.031-0.094
			c0.008-0.059,0.105-0.113,0.203-0.122c0.119-0.011,0.086,0.041,0.226,0.032C11.15,9,11.232,8.92,11.356,8.867
			c0.058-0.017,0.064-0.075,0.183-0.084c0.244-0.013,0.388,0.095,0.385,0.263c0.009,0.025,0.108,0.046,0.152,0.073
			c0.11,0.071,0.148,0.113,0.356,0.134c0.001,0.022,0.103,0.046,0.123,0.043c0.008,0.021,0.311,0.241,0.326,0.245
			c0.012,0.034,0.064,0.058,0.064,0.128c-0.001,0.045-0.032,0.127-0.117,0.128c-0.001,0.015,0.026,0.036,0.072,0.03
			c0.095-0.004,0.096-0.105,0.159-0.146c0,0,0.063-0.051,0.063-0.071c0.005-0.056-0.061-0.03-0.06-0.088
			c0-0.038,0.01-0.117,0.092-0.118c0.082,0,0.116,0.055,0.213,0.064c0.021-0.098-0.169-0.169-0.301-0.212
			c-0.032-0.007-0.196-0.029-0.17-0.086c0.003-0.009,0.011-0.025,0.012-0.035c-0.098,0-0.163,0.024-0.264-0.001
			c-0.042-0.011-0.107-0.126-0.129-0.187c-0.017-0.034-0.064-0.106-0.166-0.132c-0.077-0.016-0.134-0.037-0.13-0.104
			c-0.003-0.022,0.019-0.058,0.029-0.08c-0.01,0-0.03-0.017-0.032-0.023c0.003-0.041,0.143-0.052,0.218-0.087
			c0.03,0.023-0.006,0.117,0.079,0.113c0.068,0,0.13-0.005,0.197-0.006c0.002,0.108,0.195,0.276,0.342,0.279
			c0.024,0,0.069-0.004,0.092-0.002c0,0.062,0.104,0.064,0.197,0.094c0.092,0.033,0.236,0.12,0.237,0.186
			c0.001,0.033-0.002,0.079-0.002,0.119c-0.004,0.091-0.033,0.105,0.049,0.162c0.061,0.041,0.11,0.085,0.14,0.146
			c0.001,0.009,0.019,0.051,0.039,0.052c0.028-0.005,0.086-0.002,0.115-0.002c-0.013,0.019-0.088,0.103-0.088,0.142
			c0,0.106,0.144,0.237,0.255,0.237c0.024,0.003,0.07,0.001,0.095-0.001c-0.07-0.023,0-0.107,0-0.138
			c0.002-0.037-0.025-0.141-0.039-0.164c-0.001-0.01,0-0.028,0-0.039c0.026,0.017,0.099,0.125,0.174,0.143c0.004,0,0.01,0,0.015,0
			c0.01-0.034,0.09-0.09,0.115-0.102c-0.004-0.012-0.018-0.033-0.026-0.042c-0.041-0.003-0.234-0.118-0.236-0.129
			c-0.001-0.011,0.022-0.033,0.026-0.056c-0.03-0.028-0.084-0.064-0.127-0.1c0.001-0.019,0.049-0.052,0.074-0.051
			c0.064,0.002,0.072,0.071,0.176,0.067c0.009-0.03,0.013-0.067,0-0.1c0.087-0.02,0.111-0.055,0.222-0.061
			c0.124,0.001,0.125,0.047,0.23,0.052c0.087,0.006,0.136,0.008,0.223-0.02c0.062-0.014,0.186-0.016,0.245-0.027
			c0.024-0.009,0.065-0.004,0.087-0.018c-0.042-0.043-0.22-0.107-0.223-0.196c0-0.061,0.121-0.156,0.185-0.195
			c0.001-0.033-0.001-0.082-0.002-0.115c0.015-0.022,0.017,0.011,0.041-0.064c0.001-0.036,0.069-0.062,0.136-0.071
			c-0.002-0.02-0.002-0.047-0.008-0.067c0.146-0.022,0.161-0.185,0.309-0.187c0.037,0.002,0.199,0.075,0.389,0.093
			c0.021,0-0.135,0.056-0.122,0.071c0.106,0.083,0.209,0.171,0.257,0.176c0.092-0.002,0.398-0.08,0.451-0.119
			c-0.01,0.002-0.182-0.025-0.182-0.025c-0.021,0-0.11-0.014-0.115-0.068c0.005-0.029,0.464-0.135,0.638-0.166
			c0,0-0.086,0.062-0.112,0.067c0.012,0.021,0.195,0.146-0.185,0.198c0.185,0.26,0.892,0.301,0.925,0.665
			c0.008-0.001,0.021,0,0.026-0.002h0.001c-0.105,0.028-0.18,0.093-0.312,0.086c-0.125,0.003-0.242-0.013-0.371-0.018
			c-0.076-0.004-0.323-0.046-0.332-0.102c-0.15-0.009-0.143-0.07-0.324-0.079c-0.116-0.002-0.297-0.004-0.383,0.03
			c-0.074,0.024-0.188,0.085-0.272,0.086c-0.065-0.001-0.136-0.005-0.206-0.004c-0.025,0-0.158-0.027-0.16,0.02
			c-0.002,0.027,0.038,0.016,0.055,0.056c-0.123,0.036-0.698-0.04-0.712,0.1c0.002,0.021,0.067,0.025,0.115,0.023
			c-0.009,0.02,0,0.031,0,0.056c-0.004,0.091-0.07,0.083-0.142,0.125c0.097,0.042,0.169,0.079,0.232,0.16
			c-0.063,0.063,0.126,0.152,0.171,0.186c-0.006,0.009-0.041,0.031-0.056,0.036c0.019,0.003,0.058,0.002,0.075,0.001
			c0.133-0.049,0.195,0.107,0.327,0.112c0.122,0.002,0.092-0.136,0.235-0.136c0.145,0.009,0.279,0.166,0.42,0.174
			c0.199,0.003,0.227-0.07,0.334-0.143c0.021,0.02,0.068,0.047,0.136,0.051c0.041,0,0.073-0.037,0.125-0.051
			c0.003,0.017,0.003,0.044,0.002,0.062c-0.011,0.009-0.044,0.029-0.044,0.058c0.006,0.07,0.035,0.157,0.04,0.262
			c0,0.143-0.126,0.164-0.167,0.288c-0.038,0.123-0.057,0.187-0.102,0.326c-0.006,0.019-0.053,0.022-0.055,0.066
			c0.016,0.023,0.034,0.074,0.046,0.098c-0.006-0.014-0.026-0.044-0.03-0.06c-0.094,0.024-0.1,0.007-0.207,0.008
			c-0.15-0.003-0.287-0.068-0.422-0.065c-0.212-0.006-0.094,0.054-0.318,0.06c-0.242-0.009-0.545-0.099-0.771-0.173
			c-0.112-0.041-0.265,0.008-0.329-0.062c-0.021-0.03-0.103-0.054-0.104-0.143c-0.036-0.003-0.099,0.003-0.15,0.001
			c-0.005,0.001-0.016-0.008-0.02-0.013c-0.216,0.065-0.373,0.06-0.38,0.263c0.001,0.032,0,0.085,0,0.126
			c0,0.024-0.075,0.09-0.139,0.095c-0.511-0.001-0.777-0.395-1.225-0.399c-0.063,0.005-0.124,0.004-0.187,0.005
			c-0.131-0.002-0.293-0.126-0.292-0.279c0.006-0.095,0.09-0.142,0.092-0.233c0-0.043-0.078-0.071-0.081-0.13
			c0.009-0.076,0.092-0.066,0.104-0.159c-0.03,0.006-0.068,0.039-0.098,0.039c-0.107,0.004-0.066-0.097-0.193-0.098
			c-0.124,0.01-0.133,0.095-0.266,0.098c-0.072,0.009-0.106-0.034-0.193-0.032c-0.097,0.011-0.2,0.097-0.274,0.103
			c-0.041,0.003-0.132-0.054-0.222-0.049c-0.291,0.017-0.689,0.172-0.941,0.297c-0.081,0.039-0.203,0.111-0.332,0.119
			c-0.212,0.013-0.271-0.013-0.415-0.109c-0.064,0.054-0.092,0.199-0.144,0.263c-0.029,0.013-0.064,0.043-0.104,0.066
			c-0.157,0.192-0.312,0.225-0.475,0.429c-0.075,0.1-0.103,0.288-0.093,0.369c-0.066,0.094-0.167,0.241-0.249,0.297
			c-0.106,0.068-0.294,0.15-0.376,0.267c-0.146,0.205-0.247,0.429-0.324,0.667c-0.04,0.098-0.153,0.17-0.159,0.291
			c-0.007,0.243,0.098,0.42,0.096,0.688c0,0.154-0.094,0.439-0.205,0.51c0.04,0.087,0.124,0.199,0.125,0.285
			c0,0.041,0.022,0.101,0.026,0.191c-0.006,0-0.011,0-0.016,0c0.018,0.032,0.038,0.048,0.065,0.084
			c0.003,0.02,0.271,0.311,0.309,0.342c0.127,0.127,0.163,0.266,0.27,0.448c0.12,0.195,0.35,0.163,0.592,0.55
			c0.016,0.018,0.102,0.051,0.167,0.055c0.223,0.007,0.368-0.109,0.61-0.104c0.12,0.003,0.279,0.098,0.371,0.104
			c0.1,0,0.117-0.077,0.216-0.107c0.236-0.068,0.588-0.23,0.917-0.227c0.275,0.008,0.055,0.397,0.253,0.414
			c0.062,0,0.284-0.026,0.405-0.025c0.233,0.004,0.346,0.134,0.427,0.273c-0.068,0.057-0.063,0.24-0.063,0.319
			c0,0.019-0.028,0.04,0.002,0.095c-0.035,0.021-0.148,0.181-0.148,0.25c0.01,0.303,0.371,0.604,0.558,0.812
			c0.088,0.112,0.068,0.244,0.124,0.373c0.073,0.149,0.126,0.239,0.18,0.508c0.027,0.131,0.088,0.192,0.096,0.345
			c0.003,0.312-0.35,0.459-0.338,0.857c0.019,0.374,0.217,0.578,0.414,0.846c0.055,0.071,0.131,0.107,0.136,0.182
			c-0.001,0.043,0.006,0.096,0.006,0.142c0.022,0.472,0.192,0.644,0.413,0.813c0.046,0.037,0.176,0.277,0.307,0.442
			c0.034,0.049,0.037,0.108-0.011,0.147c0.054,0.037,0.054,0.108,0.054,0.205c0.011,0,0.024-0.017,0.063-0.021
			c0.035,0.055,0.094,0.093,0.201,0.094c0.236,0.006,0.294-0.134,0.562-0.137c0.068,0.001,0.105,0.044,0.173,0.044
			c0.06,0,0.106-0.024,0.188-0.032c0.022-0.082,0.231-0.037,0.342-0.072c0.262-0.099,0.343-0.23,0.509-0.395
			c0.107-0.096,0.188-0.1,0.336-0.211c0.075-0.066,0.197-0.184,0.204-0.327c0.002-0.042-0.033-0.079-0.09-0.103
			c0.08-0.133-0.029-0.112,0.217-0.199c0.074-0.027,0.198-0.021,0.261-0.081c0.063-0.058,0.094-0.276,0.098-0.381
			c0.006-0.206-0.15-0.156-0.148-0.306c0.004-0.078,0.104-0.164,0.199-0.177c0.098-0.372,0.9-0.334,0.945-0.786
			c-0.002-0.037-0.012-0.08-0.047-0.113c0.006-0.122,0.012-0.243,0.017-0.375c0.006-0.037,0.019-0.09,0.026-0.139
			c0.008-0.006,0.049-0.062,0.049-0.09c0.004-0.113-0.241-0.244-0.24-0.456c0.009-0.179-0.104-0.336-0.102-0.532
			c0.012-0.17,0.176-0.22,0.23-0.379c0.08-0.242,0.254-0.221,0.418-0.361c0.062-0.055,0.08-0.289,0.148-0.344
			c0.17-0.119,0.349-0.226,0.527-0.365c0.25-0.188,0.316-0.356,0.521-0.617c0.16-0.223,0.46-0.749,0.471-1.115
			c0-0.029-0.025-0.055-0.043-0.094c-0.229,0.062-0.404,0.167-0.654,0.21c-0.098,0.013-0.162-0.031-0.259,0.002
			c-0.085,0.026-0.093,0.106-0.196,0.11c-0.111-0.002-0.201-0.205-0.283-0.271c0.065-0.081,0.006-0.091,0.006-0.203
			c-0.221-0.002-0.278-0.263-0.385-0.346c-0.123-0.083-0.188-0.093-0.302-0.195c-0.12-0.122-0.054-0.279-0.172-0.442
			c-0.106-0.13-0.254-0.278-0.325-0.456c-0.003-0.115-0.003-0.226-0.004-0.344c-0.104-0.076-0.292-0.209-0.261-0.349
			c-0.212-0.378-0.415-0.74-0.629-1.111c0-0.026-0.002-0.078-0.002-0.107c0.114,0.117,0.235,0.389,0.382,0.417
			c0.021-0.064,0.087-0.214,0.119-0.311c-0.014,0.08-0.033,0.155-0.032,0.197c0,0.015,0.099,0.132,0.118,0.154
			c0.074,0.114,0.141,0.175,0.227,0.288c0.021,0.027,0.074,0.091,0.098,0.155c0.009,0.029,0.005,0.13,0.043,0.172
			c0.019,0.011,0.115,0.018,0.138,0.034c0.011,0.018,0.054,0.057,0.087,0.084c0.034,0.121,0.131,0.152,0.137,0.303
			c0.008,0.245,0.057,0.374,0.295,0.431c0.002,0.157,0.153,0.359,0.232,0.437c0.07,0.075,0.221,0.148,0.191,0.292
			c-0.01,0.043-0.067,0.181,0.008,0.188c0.006,0.125-0.01,0.258,0.054,0.361c0.044,0.065-0.004,0.065,0.007,0.072
			c0.014,0.008,0.192,0.086,0.207,0.088c0.012-0.004,0.03-0.018,0.041-0.024c0.133,0,0.161-0.104,0.27-0.183
			c0.089,0.006,0.162,0.013,0.246,0.021c0.076-0.04,0.317-0.226,0.4-0.248c0.145-0.039,0.297-0.085,0.438-0.153
			c-0.008-0.012-0.026-0.041-0.024-0.058c0.003-0.139,0.335-0.154,0.505-0.186c0-0.073,0.11-0.175,0.163-0.177
			c0.091,0.002,0.079-0.176,0.17-0.177c0.066,0,0.06-0.1,0.083-0.176c0.016-0.072,0.076-0.094,0.166-0.093
			c0-0.15,0.227-0.201,0.225-0.344c-0.006-0.043-0.082-0.044-0.112-0.101c0.002,0,0.002,0.004,0,0.004
			c-0.036-0.02-0.052-0.127-0.113-0.15c-0.172-0.063-0.278-0.093-0.37-0.277c-0.004-0.075-0.01-0.146-0.009-0.225
			c-0.212,0.158-0.212,0.399-0.631,0.391c-0.097-0.005-0.25-0.05-0.258-0.139c0-0.076,0.038-0.123,0.036-0.197
			c-0.002-0.016-0.008-0.049-0.008-0.068c-0.067,0.012-0.047,0.09-0.121,0.107c-0.006-0.043-0.041-0.075-0.047-0.145
			c-0.141-0.04-0.33-0.307-0.375-0.457c-0.011-0.039-0.011-0.086-0.018-0.142c0.001-0.094,0.027-0.191,0.117-0.191
			c0.18,0.008,0.32,0.204,0.393,0.343c0.012,0.019-0.001,0.072,0.034,0.109c0.073,0.071,0.167,0.04,0.245,0.117
			c0.064,0.064,0.115,0.142,0.212,0.18c0.101,0.007,0.199,0.007,0.298,0.014c0.027-0.032,0.049-0.086,0.12-0.085
			c0.123,0.01,0.133,0.187,0.19,0.252c0.002,0.005,0.179,0.063,0.203,0.065c0.158,0.01,0.4,0.092,0.508,0.1
			c0.008-0.003,0.018,0.001,0.027,0.001c0.033,0.005,0.074,0.015,0.112,0.023c0.005-0.012,0.026-0.025,0.047-0.038
			c0.042,0.016,0.089,0.034,0.14,0.049c0.054,0,0.115-0.023,0.183-0.021c0.055,0.007,0.098-0.003,0.153,0.017
			c0.069,0.03,0.102,0.163,0.146,0.242c0.059,0.093,0.203,0.216,0.303,0.222c0.041,0.003,0.07,0.009,0.112,0.02
			c-0.017,0.023-0.022,0.071-0.06,0.083c-0.045,0.016-0.077-0.017-0.121,0.016c0.076,0.097,0.141,0.271,0.291,0.283
			c0.125,0.002,0.134-0.13,0.191-0.201c0.014-0.003,0.023,0,0.036,0.002c0.002,0.018-0.026,0.065-0.024,0.077
			c0.006,0.081,0.052,0.148,0.057,0.239c0.001,0.075-0.02,0.083-0.02,0.163c0-0.001-0.002-0.002-0.002-0.004
			c0,0.015,0.008,0.069,0.01,0.084c-0.004,0.109,0.053,0.219,0.084,0.336c0.029,0.129,0.076,0.304,0.098,0.391
			c0.023,0.075,0.02,0.111,0.055,0.187c0.034,0.068,0.016,0.142,0.047,0.233c0.02,0.039,0.08,0.101,0.096,0.183
			c0.031,0.125,0.076,0.229,0.105,0.365c0.004,0.016,0.012,0.053,0.035,0.057c0.005,0.033,0.028,0.062,0.062,0.054
			c0.041,0.002,0.043-0.067,0.057-0.117c0.027-0.059,0.027-0.032,0.08-0.069c0.038-0.023,0.025-0.166,0.081-0.192
			c0.016-0.006,0.041-0.009,0.041-0.024c0.007-0.004,0.012-0.001,0.021-0.005c-0.005-0.042-0.016-0.096-0.02-0.146
			c0.005-0.104,0.05-0.191,0.051-0.336c0-0.086-0.031-0.215-0.031-0.315c0-0.119,0.084-0.086,0.15-0.124
			c0.035-0.01,0.064-0.077,0.098-0.126c0.064-0.106,0.129-0.222,0.195-0.334c0.051-0.089,0.15-0.112,0.206-0.208
			c0.03-0.052,0.019-0.11,0.028-0.19c0.019-0.049,0.074,0.019,0.096-0.063c0.023,0.041,0.025,0.057,0.076,0.064
			c0.074,0.005,0.152-0.014,0.146-0.179c0.039,0.022,0.092,0.059,0.108,0.138c0.021,0.06,0.013,0.147,0.039,0.22
			c0.021,0.069,0.06,0.119,0.093,0.183c0.038,0.089,0.042,0.102,0.068,0.211c0.002,0.025,0.017,0.042,0.017,0.066
			c-0.003,0.057-0.011,0.083-0.007,0.149c0.004,0.07-0.002,0.111,0.033,0.116c0.065-0.003,0.087-0.125,0.121-0.21
			c0.017,0.038,0.011,0.046,0.022,0.08c0.013,0.006,0.024-0.002,0.027,0.027c0.024,0.078-0.046,0.21,0.019,0.221
			c0.004,0.158,0.042,0.38,0.041,0.6c-0.002,0.051-0.029,0.146-0.005,0.185c0.006,0-0.001,0.001-0.005,0.001
			c0.001,0-0.001,0-0.005,0c-0.011,0.064-0.022,0.131-0.026,0.197c0,0.011,0.01,0.031-0.001,0.031
			c0.001,0.004,0.003,0.006,0.005,0.01c0.002-0.006,0.008-0.01,0.021-0.012c0.082,0.006,0.04,0.164,0.048,0.232
			c0.012,0.104,0.014,0.206,0.016,0.34c0.002,0.021,0.004,0.04,0.006,0.057c0.018-0.143,0.032-0.289,0.045-0.434
			c-0.01-0.016-0.021-0.032-0.028-0.05c-0.007-0.048-0.007-0.116-0.013-0.151c0.002,0,0-0.001,0.002,0
			c0-0.142-0.047-0.088-0.045-0.238c0.006-0.14,0.033-0.188,0.037-0.345c0.002-0.042,0.021-0.104,0.021-0.147
			c0-0.024-0.027-0.057,0.011-0.057c0.054,0,0.039,0.008,0.044,0.066c0,0-0.001,0.064,0.008,0.064
			c0.002,0.002,0.002,0.002,0.004,0.004c0-0.037,0.002-0.07,0.002-0.107C25.482,11.317,24.127,8.451,21.963,6.446z M19.75,9.515
			c-0.045-0.002-0.089,0.083-0.096,0.148c0.125,0.029,0.188,0.082,0.199,0.169c0,0.031,0.006,0.076,0.006,0.107
			c0.004,0.032,0.007,0.122,0.013,0.129c0.004,0.027,0.003,0.075,0.007,0.103c-0.079,0.016-0.165,0.019-0.271,0.014
			c-0.073-0.009-0.227-0.007-0.277-0.056c-0.031-0.029-0.057-0.091-0.109-0.113c-0.072-0.012-0.144-0.066-0.183-0.117
			c-0.036-0.059,0.013-0.088-0.04-0.146c-0.027-0.028-0.079-0.037-0.083-0.082c0.024,0,0.062,0.013,0.085,0.015
			c0.072-0.073,0.061-0.172,0.152-0.201c-0.168-0.082-0.426-0.362-0.446-0.512c0-0.038-0.142-0.115-0.146-0.183
			c-0.002-0.021,0.099-0.169,0.127-0.194c0.021,0.014,0.205-0.041,0.221-0.043c0.15-0.033,0.219-0.062,0.416-0.05
			c0.312,0.04,0.379,0.169,0.516,0.308c-0.086,0.038-0.195-0.019-0.303-0.031c-0.148-0.016-0.383,0.069-0.396,0.067
			c0.016,0.09,0.104,0.092,0.146,0.141c0.127,0.154,0.299,0.202,0.319,0.377c0.041-0.013,0.146-0.043,0.191-0.047
			c0.01,0.074,0.12,0.142,0.125,0.214C19.867,9.523,19.811,9.521,19.75,9.515z"/>
		<path d="M18.396,4.419c-0.012,0.002-0.019-0.001-0.03-0.001c-0.001,0.003,0,0.003,0.002,0.006
			C18.377,4.416,18.385,4.427,18.396,4.419z"/>
		<path d="M17.872,4.293c0.044,0.008,0.069,0.02,0.118,0.033c-0.025-0.003-0.045-0.003-0.069-0.002
			c0.027,0.01,0.06,0.014,0.089,0.019c-0.033,0.002-0.066-0.006-0.1-0.007c0.021,0.015,0.062,0.028,0.14,0.04
			c0.017,0.008,0.033,0.021,0.058,0.024c0.045,0.009,0.045-0.012,0.09-0.011c0.066,0.002,0.107,0.02,0.169,0.029
			c0.006,0,0.002-0.008-0.005-0.008c0.019-0.002,0.033,0.004,0.05,0.01c0.054-0.002,0.12,0.051,0.122,0.004
			c-0.032-0.005-0.09-0.03-0.15-0.045c-0.068-0.018-0.097-0.006-0.173-0.019c-0.091-0.018-0.161-0.048-0.292-0.072
			c-0.104-0.021-0.339-0.051-0.38-0.04c0.04,0.012,0.071,0.017,0.114,0.024C17.729,4.282,17.814,4.286,17.872,4.293z"/>
		<path d="M19.165,4.623c0.009,0,0.024,0.016,0.049,0.021c0.043,0.014,0.052,0.031,0.062,0.006c0.029,0.015,0.07,0.029,0.099,0.038
			c0.048,0.012,0.052,0.006,0.085,0.01c-0.025-0.012-0.055-0.026-0.081-0.04C19.329,4.643,19.156,4.59,19.165,4.623z"/>
		<path d="M19.287,4.614c-0.039-0.02-0.079-0.037-0.119-0.056c-0.062-0.015-0.12-0.035-0.184-0.049
			c-0.023-0.003-0.031-0.004-0.055-0.001c0.01-0.003,0.209,0.074,0.24,0.084C19.21,4.601,19.249,4.607,19.287,4.614z"/>
		<path d="M19.12,4.536c-0.011-0.005-0.021-0.01-0.028-0.014c0.001,0.005,0.002,0.004,0.006,0.015
			C19.107,4.536,19.113,4.536,19.12,4.536z"/>
		<path d="M12.596,4.26c-0.034,0.03,0.051,0.033,0.145,0.037C12.727,4.3,12.711,4.3,12.698,4.303c0.031,0.016,0.08,0.021,0.169,0.01
			c0.113-0.013,0.121-0.04,0.167-0.053c0.013,0.006,0.032-0.001,0.044-0.003c0.02,0.005,0.071,0.011,0.081,0.01
			c0.042-0.007,0.091-0.009,0.143-0.01c-0.064,0.022-0.209,0.044-0.284,0.056c-0.026-0.002-0.15,0.005-0.156,0.028
			c0,0.058,0.14,0.011,0.206,0.004c0.035-0.003,0.212-0.012,0.246-0.006c-0.065,0.007-0.125,0.01-0.183,0.023
			c0,0-0.122,0.003-0.202,0.012c0.003,0.052,0.288,0.055,0.42,0.074c0.082-0.026,0.071-0.071,0.168-0.096
			c0.027-0.003,0.067-0.01,0.085-0.018c0.062-0.043,0.117-0.104,0.31-0.119c0,0,0.041,0.019,0.132,0.019
			C14.02,4.235,13.99,4.238,13.966,4.24c0.026,0.008,0.068,0.037,0.11,0.04c-0.021,0.034-0.069,0.016-0.085,0.046
			c0.073,0.004,0.185,0.001,0.255-0.001c-0.019,0.006-0.019,0.01-0.007,0.028c0.146-0.011,0.202-0.034,0.353-0.054
			c-0.053-0.015-0.204-0.006-0.211-0.055c-0.059,0.001-0.114,0-0.176,0.001c0.016-0.007,0.012-0.011,0.001-0.023
			c-0.035,0.007-0.055,0-0.1,0.001c0.016,0,0.038-0.001,0.056-0.002c-0.052-0.019-0.345-0.053-0.438-0.051c-0.016,0-0.038,0-0.054,0
			c0.019-0.012,0.024-0.035-0.063-0.032c-0.039,0.003-0.055,0.013-0.098,0.022c-0.002-0.017,0.008-0.015,0.019-0.03
			c-0.004-0.025-0.143-0.015-0.214-0.017c-0.075,0.002-0.106-0.008-0.111,0.027c-0.005,0.048,0.027,0.04,0.059,0.062
			c-0.139-0.006-0.089-0.054-0.236-0.049c-0.045,0-0.089,0.01-0.096,0.031c0.009,0.007,0.012,0.006,0.019,0.015
			c-0.034-0.008-0.079-0.002-0.126-0.008c0.018-0.011,0.041-0.018,0.067-0.026c-0.122,0.005-0.179,0.011-0.267,0.016
			c-0.054,0.004-0.17,0.043-0.191,0.053c0.037,0.009,0.087,0.025,0.127,0.022C12.57,4.256,12.583,4.257,12.596,4.26z"/>
		<path d="M13.824,4.117c0.01,0,0.237-0.002,0.256-0.003c-0.025,0.006-0.083,0.003-0.136,0.011c-0.01,0.001-0.07,0.002-0.11,0.004
			c0.016,0.014,0.02,0.021,0.07,0.021c0.107,0,0.204-0.009,0.312-0.007c0.042,0.021,0.094,0.027,0.193,0.025
			c0.159-0.003,0.429-0.048,0.563-0.072c-0.041-0.009-0.133-0.043-0.247-0.042c-0.06,0-0.116,0-0.179,0
			c-0.083,0-0.115,0.014-0.164,0.015c-0.017-0.009-0.005-0.004,0-0.036c-0.02,0-0.046,0-0.065,0
			c-0.026,0.01-0.069,0.032-0.137,0.035c-0.025,0.001-0.186-0.015-0.217-0.024c-0.054,0.004-0.098,0.007-0.153,0.005
			c0.011,0.004,0.018,0.008,0.028,0.014c-0.03,0.001-0.064,0.001-0.094,0.002c0.005,0,0.005,0.009,0,0.009
			c-0.031,0.001-0.077,0.001-0.108,0c-0.023,0.001-0.055,0.001-0.08,0.002c0.003,0.026,0.036,0.021,0.079,0.031
			C13.615,4.161,13.729,4.118,13.824,4.117z"/>
		<path d="M12.432,4.292c0-0.002,0.004-0.003,0.001-0.003c-0.001,0.001-0.006,0.001-0.01,0.001
			C12.427,4.29,12.429,4.29,12.432,4.292c-0.003-0.001-0.006-0.001-0.01-0.002c-0.087,0.021,0.063,0.047,0.168,0.047
			C12.549,4.295,12.493,4.305,12.432,4.292z"/>
		<path d="M8.701,7.965c0.031-0.001,0.08-0.018,0.106-0.031c0.042-0.028,0.121-0.098,0.212-0.111
			c0.05-0.013,0.115-0.012,0.148-0.042C9.22,7.748,9.184,7.706,9.188,7.677c0.004-0.041,0.013-0.081,0.021-0.124
			c0.01-0.028,0.097-0.042,0.108-0.071c0-0.066-0.036-0.136-0.165-0.119C9.123,7.37,9.088,7.373,9.059,7.379
			C9.005,7.385,8.89,7.448,8.883,7.474c0,0.018,0.003,0.021,0.025,0.041c-0.033,0.02-0.135,0.061-0.165,0.067
			c-0.015,0.006-0.055,0-0.066,0.049C8.673,7.668,8.716,7.684,8.767,7.69c-0.04,0.091-0.171,0.117-0.189,0.213
			C8.574,7.946,8.635,7.979,8.701,7.965z"/>
		<path d="M9.328,6.905c-0.039,0.012-0.133,0.041-0.142,0.06C9.185,6.98,9.195,7.002,9.209,7.001
			C9.267,6.986,9.322,6.945,9.328,6.905z"/>
		<path d="M9.37,7.072C9.369,7.083,9.369,7.092,9.364,7.1c0.004,0-0.045,0.034-0.046,0.051C9.314,7.165,9.366,7.169,9.397,7.166
			C9.396,7.177,9.395,7.188,9.392,7.198C9.387,7.208,9.373,7.22,9.365,7.225c0,0.019-0.007,0.038-0.008,0.058
			c0.014-0.001,0.031-0.004,0.045-0.008C9.391,7.261,9.378,7.258,9.41,7.221c0.015,0.011,0.044,0.01,0.091,0.004
			C9.479,7.25,9.493,7.254,9.491,7.293C9.48,7.319,9.431,7.349,9.425,7.376C9.424,7.405,9.458,7.399,9.511,7.392
			c0.041-0.008,0.076-0.026,0.132-0.037c0.017,0,0.037,0.001,0.051-0.004C9.684,7.367,9.649,7.38,9.648,7.408
			C9.641,7.445,9.721,7.441,9.78,7.429C9.776,7.446,9.773,7.467,9.772,7.485c-0.032,0.04-0.163,0.091-0.27,0.104
			c-0.003,0.039,0.042,0.05,0.031,0.103C9.528,7.751,9.369,7.77,9.357,7.831c0,0.006,0.015,0.012,0.025,0.013
			c0.026-0.001,0.021-0.021,0.061-0.025c0.061-0.011,0.074,0.03,0.155,0.023C9.633,7.831,9.68,7.82,9.708,7.791
			c0,0.008,0.003,0.019,0.008,0.026c-0.004,0.058-0.12,0.047-0.205,0.074c-0.014,0.005-0.208,0.155-0.22,0.167
			C9.285,8.064,9.285,8.076,9.288,8.082C9.3,8.08,9.317,8.079,9.329,8.078c0.02-0.017,0.043-0.041,0.086-0.042
			c0.021-0.011,0.056-0.007,0.08-0.011c0.004-0.029,0.044-0.068,0.103-0.076C9.633,7.944,9.66,7.964,9.7,7.959
			c0.09-0.014,0.253-0.063,0.313-0.071c0.085-0.005,0.155-0.015,0.24-0.024c0.068-0.011,0.116-0.037,0.177-0.075
			c0-0.01,0.002-0.021,0.003-0.028c-0.031,0.004-0.059,0.005-0.12-0.004c0.059-0.054,0.196-0.107,0.21-0.172
			c-0.001-0.037-0.046-0.063-0.12-0.06c-0.042,0.006-0.033,0.001-0.078,0.024c0.007-0.006,0.023-0.013,0.03-0.018
			c-0.02,0.005-0.033,0.02-0.075,0.033c0-0.008,0.003-0.017,0.004-0.025c0.015-0.002,0.032-0.019,0.033-0.029
			c0.005-0.03-0.059-0.042-0.057-0.073c0.011-0.095-0.138-0.096-0.226-0.143C9.966,7.257,10,7.169,9.892,7.163
			C9.85,7.16,9.813,7.177,9.759,7.178C9.767,7.164,9.79,7.146,9.811,7.143c0.011-0.08,0.194-0.137,0.187-0.237
			c-0.111,0.016-0.22,0.031-0.336,0.047C9.656,6.944,9.651,6.94,9.651,6.929c0.022-0.053,0.148-0.061,0.155-0.111
			c0.001-0.006-0.03-0.024-0.05-0.022c-0.057,0.01-0.11,0.02-0.164,0.026c-0.03,0.005-0.089,0.042-0.096,0.057
			c-0.003,0.02-0.027,0.034-0.033,0.063C9.427,6.951,9.387,6.968,9.379,6.996C9.378,7.004,9.392,7.013,9.403,7.013
			c0,0.006-0.017,0.022-0.027,0.025c-0.01-0.003-0.035-0.003-0.033-0.025C9.316,7.015,9.282,7.019,9.254,7.029
			C9.242,7.072,9.285,7.078,9.37,7.072z"/>
		<path d="M9.523,7.441c-0.008-0.003-0.02,0.004-0.028,0.005C9.467,7.459,9.449,7.477,9.448,7.495
			c0.019-0.004,0.044-0.009,0.063-0.008C9.517,7.472,9.521,7.457,9.523,7.441z"/>
		<path d="M8.283,6.255c-0.047,0.018-0.081,0.021-0.074-0.01C8.187,6.254,8.194,6.263,8.156,6.261
			c-0.01,0.016-0.021,0.021-0.032,0.045c-0.054-0.018-0.1,0.032-0.16,0.056C7.919,6.374,7.892,6.38,7.822,6.399
			c0,0.01-0.008,0.016-0.008,0.027C7.792,6.429,7.792,6.417,7.758,6.428c-0.04,0.015-0.07,0.033-0.111,0.051
			C7.618,6.491,7.624,6.478,7.598,6.475C7.584,6.49,7.586,6.482,7.586,6.508C7.563,6.518,7.533,6.543,7.503,6.55
			C7.471,6.568,7.448,6.546,7.458,6.523c0.001-0.021-0.012-0.009-0.011-0.03c-0.011,0.004-0.02,0.01-0.033,0.013
			c-0.04,0.016-0.051,0.043-0.086,0.056c0,0.009-0.007,0.011-0.007,0.02C7.288,6.588,7.283,6.59,7.242,6.609
			c0,0.038,0.14-0.004,0.19-0.023C7.431,6.596,7.425,6.6,7.441,6.601C7.392,6.627,7.279,6.683,7.215,6.704
			C7.272,6.73,7.323,6.666,7.391,6.648c-0.018,0.037-0.041,0.05-0.05,0.086C7.327,6.74,7.314,6.752,7.298,6.762
			c0.096-0.032,0.116-0.006,0.171-0.02C7.59,6.73,7.684,6.713,7.859,6.665c0.165-0.047,0.255-0.117,0.384-0.172
			c0.062-0.03,0.198-0.105,0.248-0.155c0.005,0,0.008-0.006,0.011-0.007c0.02-0.074-0.162-0.01-0.14-0.086
			C8.363,6.235,8.385,6.224,8.4,6.213C8.356,6.224,8.328,6.245,8.283,6.255z"/>
		<path d="M4.934,18.359c0.051-0.17,0.162-0.313,0.119-0.686c-0.017-0.098-0.041-0.206-0.115-0.251
			c-0.046-0.028-0.072-0.007-0.121-0.036c-0.054-0.033-0.168-0.188-0.204-0.27c-0.037-0.032-0.085-0.078-0.147-0.107
			c-0.062-0.013-0.068,0.001-0.103,0c-0.056-0.014-0.071-0.092-0.127-0.104c-0.041-0.023-0.013,0.005-0.051,0.037
			c-0.009-0.006-0.004-0.008-0.016-0.004c-0.002-0.041-0.005-0.071-0.018-0.117c-0.01-0.039-0.032-0.034-0.054-0.063
			c-0.037-0.042-0.124-0.153-0.165-0.166c-0.031-0.014-0.044-0.001-0.05,0.024c0-0.028-0.001-0.059-0.004-0.073
			c-0.002-0.01-0.001-0.044-0.019-0.051c-0.024,0.005-0.02,0.051-0.032-0.019c-0.04-0.005-0.027-0.025-0.045-0.058
			c-0.001-0.006-0.007,0.004-0.008-0.001c-0.057-0.009-0.024,0.038-0.021,0.113c0.01,0.045,0.06,0.15,0.091,0.16
			c0.018,0.012,0.028,0,0.034-0.023c0,0.025,0,0.052-0.005,0.073c-0.006,0.024,0.005,0.051-0.014,0.045
			c-0.015,0.003-0.014-0.039-0.018-0.054c-0.032-0.021-0.004-0.01-0.045-0.014c-0.01-0.053-0.022-0.084-0.044-0.115
			c-0.015-0.021-0.026-0.013-0.03-0.056c-0.014-0.133,0.025-0.282,0.047-0.369c0-0.045-0.029-0.051-0.042-0.1
			c-0.015-0.048-0.05-0.199-0.053-0.259c-0.065-0.051-0.03-0.153-0.098-0.184c0.147,1.438,0.574,2.791,1.22,4.012
			c0.016,0.008,0.021,0.025,0.048,0.039c0.047,0.025,0.08-0.004,0.08-0.045c0-0.021-0.022-0.049-0.011-0.082
			c0.016-0.065,0.021-0.096,0.035-0.176c0.008-0.019-0.013-0.094-0.021-0.137c-0.008-0.036,0.008-0.055,0.013-0.083
			c0.009-0.013,0.004-0.024,0.003-0.047c-0.018-0.054-0.048-0.278-0.061-0.357c-0.032-0.11-0.083-0.17-0.054-0.229
			c0.037-0.058,0.052-0.035,0.071-0.095C4.913,18.389,4.919,18.395,4.934,18.359z"/>
		<path d="M7.862,5.751C7.824,5.78,7.788,5.808,7.75,5.836C7.802,5.81,7.858,5.782,7.889,5.75C7.875,5.752,7.865,5.754,7.862,5.751z
			"/>
		<path d="M7.355,6.274c0.073-0.048,0.113-0.056,0.18-0.104C7.48,6.191,7.287,6.277,7.198,6.298C7.106,6.38,7.018,6.46,6.93,6.545
			c0.037-0.021,0.077-0.043,0.121-0.069C7.158,6.412,7.219,6.345,7.355,6.274z"/>
		<path d="M8,5.649c-0.035,0.026-0.068,0.05-0.103,0.078c0.068-0.034,0.135-0.073,0.166-0.101C8.047,5.63,8.023,5.639,8,5.649z"/>
		<path d="M7.667,5.921C7.675,5.906,7.663,5.913,7.64,5.925c-0.039,0.029-0.075,0.061-0.112,0.09c0.02-0.008,0.039-0.018,0.06-0.024
			C7.64,5.961,7.654,5.949,7.667,5.921z"/>
		<path d="M7.534,6.143c0.042-0.016,0.097-0.04,0.114-0.063c0.025-0.066-0.052-0.061-0.14-0.049
			c-0.05,0.042-0.101,0.085-0.149,0.128C7.407,6.155,7.394,6.198,7.534,6.143z"/>
		<path d="M8.301,5.491C8.275,5.498,8.257,5.504,8.232,5.515c0-0.011,0.008-0.009,0.01-0.021C8.218,5.503,8.2,5.508,8.18,5.517
			C8.159,5.532,8.14,5.545,8.12,5.56c0.001,0.01,0.013,0.01,0.039,0.002C8.203,5.54,8.277,5.502,8.301,5.491z"/>
		<path d="M12.729,9.8c-0.102-0.016-0.139,0.041-0.227,0.042c-0.092,0-0.146-0.064-0.29-0.01c0,0.011-0.002,0.03-0.001,0.04
			c0.018,0.019,0.077,0.02,0.092,0.024c0.107,0.029,0.183,0.111,0.301,0.137c-0.008,0.012,0.037,0.023,0.053,0.021
			c0.014-0.001,0.038-0.027,0.04-0.039c-0.002-0.036-0.031-0.051-0.031-0.088c0-0.019,0.035-0.062,0.035-0.062
			C12.708,9.847,12.722,9.817,12.729,9.8z"/>
		<path d="M11.712,9.021c-0.014,0.001-0.021-0.035-0.021-0.057c-0.024,0.008-0.063,0.052-0.105,0.059
			c-0.011,0.005-0.034,0.006-0.045,0.014c0.027,0.034,0.041,0.188,0.105,0.199C11.657,9.207,11.691,9.089,11.712,9.021z"/>
		<path d="M11.54,9.458c-0.007,0.03-0.034,0.068-0.044,0.109c-0.003,0.037-0.008,0.112,0.059,0.112
			c0.04-0.006,0.171-0.083,0.177-0.159c0.004-0.09,0.021-0.133-0.03-0.218c-0.016-0.003-0.037-0.031-0.083-0.028
			c-0.045,0.005-0.065,0.054-0.139,0.075C11.485,9.384,11.541,9.412,11.54,9.458z"/>
		<path d="M10.553,9.573c-0.028,0.008-0.063,0.023-0.1,0.044c0.005,0,0.057,0.043,0.078,0.042c0.014,0,0.048-0.018,0.051-0.031
			C10.585,9.617,10.552,9.581,10.553,9.573z"/>
		<path d="M12.123,7.068c0.003-0.023-0.026-0.018-0.023-0.046c-0.021,0.001-0.057,0.003-0.078,0.006
			C12.02,7.034,12.02,7.042,12.02,7.05c-0.002,0.023,0.043,0.032,0.091,0.025c0,0.007,0,0.013,0,0.019
			C12.116,7.084,12.122,7.086,12.123,7.068z"/>
		<path d="M12.164,7.08c-0.004,0.004-0.015,0.011-0.021,0.014c0.003-0.001,0.032,0.013,0.056,0.011c0.095,0,0.061-0.085,0.134-0.103
			c-0.018-0.039-0.021-0.059-0.104-0.055c-0.021,0.002-0.081,0.066-0.081,0.075c0,0.014,0.04,0.03,0.082,0.032
			c0,0.012-0.035,0.028-0.058,0.035C12.169,7.084,12.164,7.083,12.164,7.08z"/>
		<path d="M13.443,6.712c0.014-0.003,0.073-0.018,0.073-0.026c0.001-0.009-0.001-0.018,0.001-0.027
			c0.006-0.001,0.027-0.02,0.032-0.03c-0.012-0.005-0.032-0.016-0.043-0.021c0,0-0.041,0.012-0.039,0.024
			c-0.004,0.01,0.018,0.019,0.028,0.026c-0.026,0.005-0.064,0.017-0.092,0.021C13.399,6.691,13.414,6.712,13.443,6.712z"/>
		<path d="M14.81,10.319c-0.117-0.03-0.272-0.058-0.426-0.035c0.079,0.034,0.202,0.043,0.258,0.046
			C14.677,10.327,14.72,10.359,14.81,10.319z"/>
		<path d="M16.301,10.344c0.008-0.014-0.002-0.05,0.014-0.057c0.029-0.012,0.072,0.007,0.084-0.047
			c-0.112,0.012-0.282,0.064-0.385,0.104c0.002,0.008,0.023,0.028,0.034,0.028c0,0.014,0.032,0.031,0.048,0.03
			C16.156,10.402,16.282,10.372,16.301,10.344z"/>
		<path d="M20.016,14.699c0.039,0,0.1-0.064,0.108-0.086c-0.08,0.001-0.121,0.015-0.175,0.035
			C19.952,14.676,20,14.698,20.016,14.699z"/>
		<path d="M18.418,5.417c-0.009-0.004-0.062,0.022-0.059,0.032c0.007,0.023,0.033,0.03,0.099,0.038
			c0.088,0.024,0.149,0.011,0.215,0.004c0.005-0.01,0-0.015-0.004-0.025c-0.077-0.02-0.114-0.047-0.19-0.06
			C18.454,5.405,18.443,5.417,18.418,5.417z"/>
		<path d="M19.85,5.626c0,0.03,0.121,0.07,0.178,0.087c0,0,0.062,0.025,0.06,0.006C20.061,5.677,19.837,5.594,19.85,5.626z"/>
	</g>
</g>
<g>
</g>
<g>
</g>
<g>
</g>
<g>
</g>
<g>
</g>
<g>
</g>
<g>
</g>
<g>
</g>
<g>
</g>
<g>
</g>
<g>
</g>
<g>
</g>
<g>
</g>
<g>
</g>
<g>
</g>
</svg>
