<?xml version="1.0" encoding="iso-8859-1"?>
<!-- Generator: Adobe Illustrator 16.0.0, SVG Export Plug-In . SVG Version: 6.00 Build 0)  -->
<!DOCTYPE svg PUBLIC "-//W3C//DTD SVG 1.1//EN" "http://www.w3.org/Graphics/SVG/1.1/DTD/svg11.dtd">
<svg version="1.1" id="Capa_1" xmlns="http://www.w3.org/2000/svg" xmlns:xlink="http://www.w3.org/1999/xlink" x="0px" y="0px"
	 width="29.197px" height="29.197px" viewBox="0 0 29.197 29.197" style="enable-background:new 0 0 29.197 29.197;"
	 xml:space="preserve">
<g>
	<g>
		<path d="M26.607,8.128h-7.764c-0.197,0-0.39,0.028-0.574,0.07c-0.488-1.628-1.984-2.826-3.771-2.826H3.954
			C1.774,5.372,0,7.146,0,9.326v10.545c0,2.181,1.774,3.954,3.954,3.954h10.545c1.786,0,3.282-1.198,3.771-2.827
			c0.187,0.043,0.377,0.071,0.576,0.071h7.764c1.422,0,2.588-1.166,2.588-2.59v-7.763C29.196,9.294,28.031,8.128,26.607,8.128z
			 M17.575,19.871c0,1.694-1.38,3.075-3.075,3.075H3.954c-1.695,0-3.075-1.381-3.075-3.075V9.327c0-1.695,1.38-3.075,3.075-3.075
			h10.545c1.695,0,3.075,1.38,3.075,3.075L17.575,19.871L17.575,19.871z M24.586,18.653h-1.834v-6.424h-0.025l-1.547,0.734
			l-0.312-1.423l2.146-0.999h1.572V18.653z"/>
		<path d="M9.278,8.903c-2.848,0-4.203,2.526-4.203,5.714c0.017,3.118,1.271,5.677,4.119,5.677c2.813,0,4.186-2.339,4.186-5.746
			C13.379,11.531,12.226,8.903,9.278,8.903z M9.26,18.345c-1,0-1.609-1.203-1.592-3.729c-0.017-2.561,0.627-3.764,1.575-3.764
			c1.035,0,1.56,1.288,1.56,3.729C10.803,17.089,10.261,18.345,9.26,18.345z"/>
	</g>
</g>
<g>
</g>
<g>
</g>
<g>
</g>
<g>
</g>
<g>
</g>
<g>
</g>
<g>
</g>
<g>
</g>
<g>
</g>
<g>
</g>
<g>
</g>
<g>
</g>
<g>
</g>
<g>
</g>
<g>
</g>
</svg>
